SplineFontDB: 3.2
FontName: Robo99
FullName: Robo99
FamilyName: Robo99
Weight: Regular
Copyright: Copyright (c) 2023, Maximilian Bachl
UComments: "2023-8-18: Created with FontForge (http://fontforge.org)"
Version: 001.000
ItalicAngle: 0
UnderlinePosition: -204
UnderlineWidth: 102
Ascent: 1638
Descent: 410
InvalidEm: 0
LayerCount: 2
Layer: 0 0 "Back" 1
Layer: 1 0 "Fore" 0
XUID: [1021 75 -1550332495 22636]
StyleMap: 0x0000
FSType: 0
OS2Version: 0
OS2_WeightWidthSlopeOnly: 0
OS2_UseTypoMetrics: 1
CreationTime: 1692382138
ModificationTime: 1692437202
OS2TypoAscent: 0
OS2TypoAOffset: 1
OS2TypoDescent: 0
OS2TypoDOffset: 1
OS2TypoLinegap: 184
OS2WinAscent: 0
OS2WinAOffset: 1
OS2WinDescent: 0
OS2WinDOffset: 1
HheadAscent: 0
HheadAOffset: 1
HheadDescent: 0
HheadDOffset: 1
Lookup: 1 0 0 "Ubuntu-Regular-'locl' Localized Forms in Cyrillic lookup 3" { "Ubuntu-Regular-'locl' Localized Forms in Cyrillic lookup 3 subtable"  } ['locl' ('cyrl' <'BGR ' > ) ]
Lookup: 1 0 0 "Ubuntu-Regular-'locl' Localized Forms in Cyrillic lookup 4" { "Ubuntu-Regular-'locl' Localized Forms in Cyrillic lookup 4 subtable"  } ['locl' ('cyrl' <'MKD ' > ) ]
Lookup: 1 0 0 "Ubuntu-Regular-'locl' Localized Forms in Cyrillic lookup 5" { "Ubuntu-Regular-'locl' Localized Forms in Cyrillic lookup 5 subtable"  } ['locl' ('cyrl' <'SRB ' > ) ]
Lookup: 1 0 0 "Ubuntu-Regular-'tnum' Tabular Numbers lookup 7" { "Ubuntu-Regular-'tnum' Tabular Numbers lookup 7 subtable"  } ['tnum' ('cyrl' <'BGR ' 'MKD ' 'SRB ' 'dflt' > 'grek' <'dflt' > 'latn' <'AZE ' 'CRT ' 'MOL ' 'ROM ' 'TRK ' 'dflt' > ) ]
Lookup: 1 0 0 "Ubuntu-Regular-'numr' Numerators lookup 8" { "Ubuntu-Regular-'numr' Numerators lookup 8 subtable"  } ['numr' ('cyrl' <'BGR ' 'MKD ' 'SRB ' 'dflt' > 'grek' <'dflt' > 'latn' <'AZE ' 'CRT ' 'MOL ' 'ROM ' 'TRK ' 'dflt' > ) ]

StartChar: A
Encoding: 65 65 0
Width: 1427
Flags: HW
LayerCount: 2
Fore
SplineSet
674 1542 m 0
 808 1600 866 1568 911 1414 c 0
 933 1334 1010 1120 1077 934 c 0
 1144 748 1234 487 1279 349 c 0
 1362 77 1356 58 1186 77 c 0
 1093 87 1093 86 1029 406 c 0
 1016 464 991 470 738 467 c 2
 460 467 l 1
 415 298 l 2
 357 74 357 70 210 70 c 0
 69 70 63 80 146 163 c 0
 181 198 223 304 245 403 c 0
 264 499 338 720 405 893 c 0
 472 1066 547 1277 569 1360 c 0
 595 1466 629 1526 674 1542 c 0
949 662 m 0
 946 736 729 1328 729 1267 c 0
 726 1213 619 877 549 704 c 0
 530 659 559 650 738 640 c 0
 866 634 949 643 949 662 c 0
EndSplineSet
Validated: 33
EndChar

StartChar: B
Encoding: 66 66 1
Width: 1406
Flags: HW
LayerCount: 2
Fore
SplineSet
107 1494 m 0
 120 1532 193 1542 484 1542 c 0
 906 1542 1057 1507 1150 1392 c 0
 1278 1229 1198 902 1032 902 c 0
 930 902 958 861 1121 781 c 0
 1323 682 1362 438 1208 246 c 0
 1096 102 968 70 542 70 c 0
 190 70 154 77 164 128 c 0
 170 157 206 186 248 192 c 0
 322 202 321 204 318 758 c 2
 312 1315 l 1
 216 1334 l 2
 117 1356 75 1414 107 1494 c 0
939 1350 m 0
 853 1385 533 1395 504 1363 c 0
 494 1353 497 1300 510 1242 c 0
 523 1184 529 1092 526 1034 c 2
 516 934 l 1
 686 934 l 2
 904 934 948 954 1009 1069 c 0
 1073 1194 1045 1312 939 1350 c 0
942 685 m 0
 833 743 610 781 552 755 c 0
 523 742 510 656 510 486 c 0
 510 192 526 179 798 230 c 0
 1006 268 1086 336 1086 467 c 0
 1086 592 1064 624 942 685 c 0
EndSplineSet
Validated: 33
EndChar

StartChar: C
Encoding: 67 67 2
Width: 1308
Flags: HW
LayerCount: 2
Fore
SplineSet
496 1488 m 0
 704 1590 870 1600 1043 1510 c 0
 1171 1443 1222 1360 1187 1258 c 0
 1155 1156 1082 1152 1024 1254 c 0
 966 1347 858 1414 765 1414 c 0
 736 1414 650 1385 573 1347 c 0
 368 1248 295 1088 317 787 c 0
 346 419 458 269 736 240 c 0
 867 224 877 230 995 371 c 0
 1139 550 1222 566 1190 416 c 0
 1145 186 983 70 701 70 c 0
 519 70 399 125 281 266 c 0
 140 436 108 541 121 826 c 0
 134 1168 240 1357 496 1488 c 0
EndSplineSet
Validated: 33
EndChar

StartChar: D
Encoding: 68 68 3
Width: 1458
Flags: HW
LayerCount: 2
Fore
SplineSet
138 1520 m 0
 221 1555 698 1539 861 1494 c 0
 1053 1443 1191 1332 1287 1146 c 0
 1338 1044 1348 972 1338 742 c 0
 1328 496 1318 452 1235 346 c 0
 1088 151 877 70 506 70 c 0
 202 70 148 90 234 160 c 0
 263 186 272 307 266 621 c 0
 263 855 256 1107 256 1181 c 0
 256 1299 246 1319 176 1338 c 0
 118 1351 96 1379 96 1430 c 0
 96 1472 116 1514 138 1520 c 0
893 1309 m 0
 730 1360 480 1395 477 1363 c 0
 461 1145 493 301 519 272 c 0
 570 211 647 221 877 323 c 0
 1069 413 1088 429 1123 557 c 0
 1168 727 1146 980 1066 1146 c 0
 1024 1239 979 1280 893 1309 c 0
EndSplineSet
Validated: 33
EndChar

StartChar: E
Encoding: 69 69 4
Width: 1286
Flags: HW
LayerCount: 2
Fore
SplineSet
414 1517 m 0
 529 1523 750 1530 904 1536 c 2
 1189 1542 l 1
 1166 1440 l 2
 1153 1382 1140 1331 1137 1328 c 0
 1134 1322 1051 1331 955 1347 c 0
 859 1363 718 1367 638 1354 c 2
 494 1334 l 1
 485 1136 l 2
 475 944 478 934 558 915 c 0
 603 905 686 903 747 909 c 0
 849 922 853 918 853 803 c 2
 853 688 l 1
 651 704 l 1
 449 720 l 1
 456 522 l 2
 469 240 504 211 862 224 c 0
 1147 230 1150 231 1150 154 c 0
 1150 55 1121 45 779 42 c 0
 280 36 235 106 251 845 c 2
 261 1254 l 1
 177 1286 l 2
 132 1302 94 1338 94 1360 c 0
 94 1453 206 1507 414 1517 c 0
EndSplineSet
Validated: 33
EndChar

StartChar: F
Encoding: 70 70 5
Width: 1384
Flags: HW
LayerCount: 2
Fore
SplineSet
710 1514 m 2
 979 1524 1219 1533 1241 1536 c 0
 1270 1539 1279 1507 1273 1424 c 0
 1267 1334 1251 1305 1216 1318 c 0
 1133 1340 733 1357 656 1338 c 0
 595 1322 582 1290 563 1136 c 0
 537 925 557 902 771 902 c 0
 912 902 915 899 915 797 c 2
 915 691 l 1
 729 704 l 1
 544 717 l 1
 544 477 l 2
 544 343 531 199 512 154 c 0
 486 80 464 70 320 70 c 0
 144 70 118 99 240 179 c 0
 320 230 320 233 320 742 c 0
 320 1305 339 1258 121 1293 c 0
 70 1303 73 1312 140 1398 c 2
 217 1494 l 1
 710 1514 l 2
EndSplineSet
Validated: 33
EndChar

StartChar: G
Encoding: 71 71 6
Width: 1402
Flags: HW
LayerCount: 2
Fore
SplineSet
548 1507 m 0
 734 1590 883 1590 1088 1507 c 0
 1264 1433 1319 1344 1255 1226 c 0
 1210 1146 1146 1165 1028 1299 c 0
 958 1373 916 1395 826 1392 c 0
 663 1389 471 1267 388 1120 c 0
 324 1005 317 963 336 749 c 0
 371 368 490 230 784 230 c 0
 954 230 1018 291 1056 496 c 2
 1082 646 l 1
 960 646 l 2
 826 646 806 685 880 784 c 0
 912 826 970 838 1108 838 c 2
 1293 838 l 1
 1274 602 l 2
 1252 308 1204 198 1060 128 c 0
 782 -3 519 29 317 224 c 0
 167 368 119 505 119 790 c 0
 119 969 138 1046 202 1174 c 0
 301 1366 359 1421 548 1507 c 0
EndSplineSet
Validated: 33
EndChar

StartChar: H
Encoding: 72 72 7
Width: 1406
Flags: HW
LayerCount: 2
Fore
SplineSet
187 1478 m 0
 376 1555 431 1485 431 1162 c 2
 431 934 l 1
 715 934 l 1
 997 934 l 1
 1019 1056 l 2
 1029 1120 1039 1251 1039 1344 c 2
 1039 1510 l 1
 1154 1510 l 1
 1272 1510 l 1
 1250 842 l 2
 1231 372 1237 167 1259 154 c 0
 1339 103 1285 67 1144 77 c 2
 997 86 l 1
 1003 362 l 2
 1013 720 990 742 667 742 c 2
 431 742 l 1
 431 406 l 1
 431 70 l 1
 271 70 l 2
 108 70 56 112 178 144 c 0
 236 160 245 180 226 266 c 0
 216 320 207 567 207 810 c 0
 207 1210 200 1261 146 1309 c 0
 76 1370 91 1440 187 1478 c 0
EndSplineSet
Validated: 33
EndChar

StartChar: I
Encoding: 73 73 8
Width: 542
Flags: HW
LayerCount: 2
Fore
SplineSet
191 1520 m 0
 217 1549 203 1549 325 1507 c 0
 402 1478 421 1460 405 1418 c 0
 367 1325 382 160 424 134 c 0
 450 118 437 106 386 93 c 0
 271 61 104 67 104 102 c 0
 104 121 120 134 136 134 c 0
 155 134 168 384 168 816 c 0
 168 1194 178 1510 191 1520 c 0
EndSplineSet
Validated: 33
EndChar

StartChar: J
Encoding: 74 74 9
Width: 1148
Flags: HW
LayerCount: 2
Fore
SplineSet
801 1520 m 0
 839 1562 936 1543 968 1485 c 0
 1016 1392 1048 522 1006 368 c 0
 961 198 820 80 638 54 c 0
 363 12 148 150 116 387 c 0
 97 521 98 522 200 512 c 0
 283 506 299 493 286 442 c 0
 276 404 305 349 366 285 c 0
 446 208 478 195 564 211 c 0
 622 221 702 269 744 317 c 0
 821 403 820 407 801 954 c 0
 788 1255 788 1510 801 1520 c 0
EndSplineSet
Validated: 33
EndChar

StartChar: K
Encoding: 75 75 10
Width: 1445
Flags: HW
LayerCount: 2
Fore
SplineSet
767 1216 m 2
 1065 1536 1077 1542 1215 1542 c 0
 1292 1542 1356 1533 1356 1517 c 0
 1356 1504 1199 1338 1007 1146 c 2
 655 797 l 1
 991 442 l 1
 1327 86 l 1
 1180 77 l 2
 1033 67 1029 71 831 285 c 0
 722 403 588 553 534 614 c 2
 435 723 l 1
 435 426 l 2
 435 263 428 124 422 118 c 0
 416 112 345 96 268 83 c 0
 124 61 124 64 188 125 c 0
 249 183 253 221 243 781 c 0
 233 1370 233 1379 163 1389 c 0
 125 1395 92 1420 92 1446 c 0
 92 1481 137 1498 278 1504 c 2
 460 1514 l 1
 460 1200 l 1
 460 890 l 1
 767 1216 l 2
EndSplineSet
Validated: 33
EndChar

StartChar: L
Encoding: 76 76 11
Width: 1316
Flags: HW
LayerCount: 2
Fore
SplineSet
139 1520 m 0
 245 1565 453 1539 514 1478 c 0
 572 1420 578 1370 581 912 c 0
 584 208 565 250 923 237 c 0
 1211 227 1218 227 1218 150 c 0
 1218 89 1201 70 1147 67 c 0
 1105 67 959 61 818 58 c 0
 440 42 290 68 290 138 c 0
 290 173 306 198 322 198 c 0
 357 198 360 1075 325 1235 c 0
 309 1309 280 1338 203 1357 c 0
 94 1386 56 1488 139 1520 c 0
EndSplineSet
Validated: 33
EndChar

StartChar: M
Encoding: 77 77 12
Width: 1814
Flags: HW
LayerCount: 2
Fore
SplineSet
348 1536 m 0
 348 1562 536 1536 565 1504 c 0
 594 1466 671 1267 847 758 c 0
 889 636 933 512 943 486 c 0
 956 457 991 512 1036 634 c 0
 1074 740 1138 884 1170 954 c 0
 1205 1021 1253 1152 1272 1242 c 0
 1320 1444 1439 1574 1516 1510 c 0
 1545 1488 1558 1443 1548 1411 c 0
 1538 1382 1545 1347 1564 1334 c 0
 1583 1321 1596 1104 1596 736 c 0
 1596 189 1599 160 1660 144 c 0
 1794 109 1714 70 1512 70 c 0
 1323 70 1305 77 1327 128 c 0
 1391 272 1375 1017 1308 947 c 0
 1295 931 1244 813 1199 682 c 0
 1100 407 1007 262 927 262 c 0
 857 262 699 547 616 822 c 0
 584 928 550 1027 540 1040 c 0
 527 1053 508 867 498 624 c 0
 488 378 495 170 511 154 c 0
 572 87 534 70 316 70 c 0
 102 70 24 108 152 150 c 0
 187 160 223 188 229 214 c 0
 255 278 313 841 332 1206 c 0
 342 1382 348 1530 348 1536 c 0
EndSplineSet
Validated: 33
EndChar

StartChar: N
Encoding: 78 78 13
Width: 1417
Flags: HW
LayerCount: 2
Fore
SplineSet
1118 1485 m 0
 1128 1501 1169 1510 1204 1504 c 0
 1271 1494 1274 1478 1284 1014 c 0
 1287 752 1281 435 1268 310 c 0
 1242 89 1243 86 1147 86 c 0
 1064 86 1028 121 871 339 c 0
 772 480 632 701 558 835 c 2
 427 1078 l 1
 427 595 l 1
 427 109 l 1
 279 86 l 2
 103 60 23 109 164 160 c 2
 257 192 l 1
 228 394 l 2
 212 506 209 746 219 928 c 0
 235 1168 232 1270 203 1302 c 0
 145 1369 248 1478 366 1478 c 0
 484 1478 558 1392 670 1133 c 0
 718 1015 823 806 903 672 c 0
 1041 442 1051 432 1070 512 c 0
 1080 560 1092 790 1095 1027 c 0
 1098 1264 1108 1469 1118 1485 c 0
EndSplineSet
Validated: 33
EndChar

StartChar: O
Encoding: 79 79 14
Width: 1435
Flags: HW
LayerCount: 2
Fore
SplineSet
600 1530 m 0
 677 1552 767 1564 802 1558 c 0
 837 1548 891 1542 920 1542 c 0
 1000 1542 1164 1392 1234 1258 c 0
 1317 1092 1346 794 1298 570 c 0
 1224 215 904 -9 584 74 c 0
 411 116 196 314 142 480 c 0
 88 650 123 989 219 1200 c 0
 305 1392 386 1460 600 1530 c 0
936 1325 m 0
 843 1399 667 1399 542 1322 c 0
 404 1239 338 1053 338 762 c 0
 338 573 350 509 411 419 c 0
 497 288 604 230 754 230 c 0
 991 230 1106 406 1106 768 c 0
 1106 1024 1038 1248 936 1325 c 0
EndSplineSet
Validated: 33
EndChar

StartChar: P
Encoding: 80 80 15
Width: 1320
Flags: HW
LayerCount: 2
Fore
SplineSet
289 1520 m 0
 487 1549 942 1520 1035 1478 c 0
 1153 1420 1217 1292 1217 1110 c 0
 1217 819 1038 650 692 618 c 2
 497 598 l 1
 497 374 l 2
 497 252 485 131 472 112 c 0
 446 70 251 55 216 90 c 0
 206 103 216 128 238 154 c 0
 267 180 279 253 273 349 c 0
 270 432 263 672 260 880 c 0
 257 1248 254 1258 177 1293 c 0
 27 1360 91 1494 289 1520 c 0
894 1334 m 0
 740 1414 404 1383 462 1293 c 0
 472 1277 481 1159 484 1034 c 2
 491 806 l 1
 590 806 l 2
 856 806 1025 922 1025 1098 c 0
 1025 1229 993 1283 894 1334 c 0
EndSplineSet
Validated: 33
EndChar

StartChar: Q
Encoding: 81 81 16
Width: 1406
Flags: HW
LayerCount: 2
Fore
SplineSet
540 1517 m 0
 831 1635 1033 1562 1183 1280 c 0
 1260 1136 1273 1079 1273 874 c 0
 1270 647 1196 345 1135 310 c 0
 1077 272 1109 211 1202 176 c 0
 1327 128 1327 51 1202 32 c 0
 1093 16 1065 29 1014 125 c 0
 995 167 962 198 946 198 c 0
 901 198 908 58 953 13 c 0
 982 -16 975 -26 924 -26 c 0
 889 -26 841 -7 822 19 c 0
 800 45 710 73 620 86 c 0
 492 105 428 138 319 237 c 0
 146 397 102 525 121 835 c 0
 143 1206 265 1405 540 1517 c 0
943 1331 m 0
 812 1497 469 1392 367 1152 c 0
 300 995 310 551 380 445 c 0
 466 311 600 256 786 282 c 0
 927 301 950 313 1001 419 c 0
 1068 560 1094 963 1046 1126 c 0
 1027 1193 981 1283 943 1331 c 0
EndSplineSet
Validated: 33
EndChar

StartChar: R
Encoding: 82 82 17
Width: 1368
Flags: HW
LayerCount: 2
Fore
SplineSet
349 1514 m 0
 448 1527 628 1533 746 1530 c 0
 989 1517 1104 1459 1184 1299 c 0
 1274 1123 1217 797 1079 682 c 0
 1041 650 1018 662 960 742 c 2
 890 838 l 1
 957 947 l 2
 1107 1187 983 1382 682 1382 c 0
 490 1382 464 1351 464 1114 c 2
 464 906 l 1
 602 883 l 2
 704 867 749 844 768 790 c 0
 784 752 852 656 919 576 c 0
 1034 442 1252 147 1274 96 c 0
 1280 80 1226 70 1156 70 c 0
 1041 70 1018 83 948 192 c 0
 820 397 544 710 496 710 c 0
 458 710 448 656 448 438 c 0
 448 288 449 157 452 147 c 0
 455 105 368 70 266 70 c 0
 167 70 122 115 196 141 c 0
 238 154 276 928 244 1139 c 0
 228 1241 202 1289 157 1302 c 0
 90 1324 74 1431 132 1466 c 0
 154 1479 250 1498 349 1514 c 0
EndSplineSet
Validated: 33
EndChar

StartChar: S
Encoding: 83 83 18
Width: 1230
Flags: HW
LayerCount: 2
Fore
SplineSet
475 1530 m 0
 709 1613 1093 1488 1093 1328 c 0
 1093 1245 1013 1126 959 1126 c 0
 946 1126 933 1155 933 1187 c 0
 933 1337 658 1430 469 1344 c 0
 303 1267 405 964 616 922 c 0
 917 864 1125 682 1125 480 c 0
 1125 339 1029 172 911 118 c 0
 537 -61 62 122 107 426 c 0
 123 538 184 531 258 406 c 0
 418 131 901 186 901 480 c 0
 901 598 850 640 645 694 c 0
 418 755 338 816 245 1002 c 0
 171 1143 165 1177 197 1270 c 0
 239 1398 315 1472 475 1530 c 0
EndSplineSet
Validated: 33
EndChar

StartChar: T
Encoding: 84 84 19
Width: 1265
Flags: HW
LayerCount: 2
Fore
SplineSet
626 1517 m 1
 1144 1526 l 1
 1154 1453 l 2
 1173 1315 1148 1296 940 1312 c 2
 744 1325 l 1
 744 749 l 2
 744 211 742 167 684 138 c 0
 562 71 540 167 527 762 c 2
 514 1318 l 1
 309 1318 l 1
 104 1318 l 1
 104 1414 l 1
 104 1510 l 1
 626 1517 l 1
EndSplineSet
Validated: 33
EndChar

StartChar: U
Encoding: 85 85 20
Width: 1355
Flags: HW
LayerCount: 2
Fore
SplineSet
1036 1462 m 0
 1084 1520 1139 1523 1190 1472 c 0
 1251 1411 1241 595 1180 419 c 0
 1094 179 946 70 700 64 c 0
 508 61 396 112 297 256 c 0
 179 419 143 579 137 934 c 0
 137 1100 134 1289 131 1350 c 0
 125 1440 137 1466 188 1472 c 0
 303 1488 364 1303 364 941 c 0
 364 557 403 419 531 310 c 0
 653 208 783 221 905 339 c 0
 966 400 985 468 1007 682 c 0
 1023 829 1027 1056 1017 1181 c 0
 1001 1347 1007 1427 1036 1462 c 0
EndSplineSet
Validated: 33
EndChar

StartChar: V
Encoding: 86 86 21
Width: 1415
Flags: HW
LayerCount: 2
Fore
SplineSet
93 1555 m 0
 112 1574 301 1543 333 1514 c 0
 365 1482 631 778 698 544 c 0
 730 422 765 326 778 326 c 0
 800 326 976 924 1030 1190 c 0
 1094 1491 1123 1542 1229 1542 c 0
 1312 1542 1325 1533 1312 1472 c 0
 1296 1408 1088 617 982 230 c 2
 944 86 l 1
 778 86 l 1
 614 86 l 1
 474 486 l 2
 400 707 278 1034 208 1213 c 0
 138 1392 87 1545 93 1555 c 0
EndSplineSet
Validated: 33
EndChar

StartChar: W
Encoding: 87 87 22
Width: 2009
Flags: HW
LayerCount: 2
Fore
SplineSet
99 1530 m 0
 121 1584 291 1590 336 1536 c 0
 371 1488 505 1040 595 662 c 2
 653 406 l 1
 688 534 l 2
 707 604 756 793 791 950 c 0
 868 1283 903 1382 951 1382 c 0
 999 1382 1229 873 1319 566 c 0
 1361 425 1395 349 1395 394 c 0
 1398 487 1645 1399 1690 1485 c 0
 1728 1552 1911 1565 1911 1501 c 0
 1911 1475 1876 1350 1831 1219 c 0
 1748 982 1552 323 1514 157 c 0
 1495 77 1479 67 1389 77 c 0
 1287 87 1283 92 1152 486 c 0
 1078 707 1018 918 1015 960 c 0
 1015 1110 960 1021 925 797 c 0
 903 669 852 468 810 346 c 0
 688 -16 576 -16 474 352 c 0
 320 886 173 1338 128 1408 c 0
 102 1450 89 1504 99 1530 c 0
EndSplineSet
Validated: 33
EndChar

StartChar: X
Encoding: 88 88 23
Width: 1536
Flags: HW
LayerCount: 2
Fore
SplineSet
281 1424 m 2
 185 1542 l 1
 339 1542 l 2
 509 1542 515 1533 723 1117 c 0
 765 1034 812 973 825 979 c 0
 841 989 921 1120 1004 1270 c 0
 1148 1526 1164 1542 1263 1542 c 0
 1385 1542 1401 1498 1311 1402 c 0
 1279 1364 1181 1216 1091 1072 c 0
 931 816 927 810 985 736 c 0
 1017 694 1097 569 1164 454 c 0
 1231 339 1324 208 1369 157 c 2
 1449 70 l 1
 1267 70 l 2
 1123 70 1084 80 1084 118 c 0
 1084 172 963 416 867 560 c 2
 809 646 l 1
 662 416 l 2
 582 288 509 157 499 128 c 0
 483 80 441 70 284 70 c 0
 89 70 28 112 169 147 c 0
 246 166 450 406 604 659 c 0
 668 768 674 790 636 851 c 0
 610 886 544 1004 486 1110 c 0
 425 1216 332 1357 281 1424 c 2
EndSplineSet
Validated: 33
EndChar

StartChar: Y
Encoding: 89 89 24
Width: 1462
Flags: HW
LayerCount: 2
Fore
SplineSet
97 1504 m 0
 81 1530 106 1542 186 1542 c 0
 247 1542 320 1533 349 1523 c 0
 410 1497 564 1280 705 1021 c 2
 804 835 l 1
 993 1181 l 2
 1140 1447 1204 1530 1258 1536 c 0
 1300 1542 1345 1536 1361 1520 c 0
 1390 1491 1169 1046 999 790 c 0
 929 684 913 615 897 394 c 0
 881 103 861 70 698 70 c 2
 596 70 l 1
 641 192 l 2
 743 483 659 732 285 1238 c 0
 192 1363 110 1482 97 1504 c 0
EndSplineSet
Validated: 33
EndChar

StartChar: Z
Encoding: 90 90 25
Width: 1427
Flags: HW
LayerCount: 2
Fore
SplineSet
403 1450 m 0
 419 1508 450 1510 863 1510 c 0
 1145 1510 1311 1497 1327 1475 c 0
 1337 1456 1312 1402 1270 1357 c 0
 1225 1309 1122 1155 1039 1014 c 0
 956 873 806 640 700 496 c 2
 511 230 l 1
 873 230 l 2
 1235 230 1238 230 1251 150 c 2
 1267 70 l 1
 681 70 l 2
 358 70 92 83 92 96 c 0
 92 112 124 141 166 163 c 0
 204 185 297 291 371 400 c 0
 445 509 614 758 745 950 c 0
 879 1145 988 1312 988 1328 c 0
 988 1341 861 1350 707 1350 c 0
 550 1350 416 1360 406 1370 c 0
 396 1380 393 1415 403 1450 c 0
EndSplineSet
Validated: 33
EndChar

StartChar: a
Encoding: 97 97 26
Width: 1191
Flags: HW
LayerCount: 2
Fore
SplineSet
374 1059 m 0
 604 1171 917 1130 978 976 c 0
 994 934 1007 787 1007 653 c 0
 1007 423 1033 256 1087 128 c 0
 1106 77 1090 70 927 70 c 0
 745 70 745 71 764 154 c 2
 786 240 l 1
 687 154 l 2
 492 -9 223 71 140 317 c 0
 95 458 118 762 188 893 c 0
 217 951 294 1021 374 1059 c 0
748 922 m 0
 678 1008 392 934 338 819 c 0
 280 691 294 409 361 326 c 0
 435 236 569 234 681 317 c 0
 761 375 767 403 777 627 c 0
 783 784 774 893 748 922 c 0
EndSplineSet
Validated: 33
EndChar

StartChar: b
Encoding: 98 98 27
Width: 1384
Flags: HW
LayerCount: 2
Fore
SplineSet
300 1558 m 0
 479 1619 550 1523 553 1219 c 2
 556 1008 l 1
 627 1082 l 2
 761 1226 1132 1155 1228 963 c 0
 1295 835 1289 499 1215 336 c 0
 1135 163 963 70 726 70 c 0
 400 70 351 169 351 867 c 0
 351 1120 345 1334 335 1344 c 0
 325 1354 272 1360 214 1363 c 0
 131 1366 105 1383 99 1437 c 0
 89 1491 109 1514 179 1530 c 0
 227 1540 284 1552 300 1558 c 0
1020 880 m 0
 953 963 822 992 707 944 c 0
 643 918 540 692 540 570 c 0
 540 320 653 211 851 272 c 0
 1008 320 1062 400 1078 608 c 0
 1088 758 1078 806 1020 880 c 0
EndSplineSet
Validated: 33
EndChar

StartChar: c
Encoding: 99 99 28
Width: 1150
Flags: HW
LayerCount: 2
Fore
SplineSet
406 1075 m 0
 588 1171 880 1126 998 982 c 0
 1033 940 1033 925 988 880 c 0
 943 835 928 835 822 902 c 0
 681 988 517 969 402 854 c 0
 338 790 326 745 326 598 c 0
 326 441 338 406 418 323 c 0
 527 214 652 205 882 282 c 0
 1055 343 1087 326 1036 214 c 0
 969 67 581 4 383 106 c 0
 290 154 159 348 130 486 c 0
 72 739 176 957 406 1075 c 0
EndSplineSet
Validated: 33
EndChar

StartChar: d
Encoding: 100 100 29
Width: 1206
Flags: HW
LayerCount: 2
Fore
SplineSet
959 1526 m 0
 1007 1571 1049 1606 1055 1606 c 0
 1081 1606 1061 316 1035 246 c 0
 993 134 827 70 584 70 c 0
 405 70 379 80 283 176 c 0
 14 445 78 966 392 1110 c 0
 514 1164 565 1165 789 1107 c 2
 875 1088 l 1
 875 1267 l 2
 875 1424 889 1462 959 1526 c 0
776 912 m 0
 674 995 475 982 379 886 c 0
 315 825 299 777 299 646 c 0
 299 441 363 316 491 262 c 0
 619 208 779 252 837 358 c 0
 901 483 862 838 776 912 c 0
EndSplineSet
Validated: 33
EndChar

StartChar: e
Encoding: 101 101 30
Width: 1155
Flags: HW
LayerCount: 2
Fore
SplineSet
344 1056 m 0
 702 1235 1045 1040 1045 659 c 2
 1045 550 l 1
 792 550 l 2
 450 550 341 525 341 448 c 0
 341 362 481 230 574 230 c 0
 616 230 728 263 818 301 c 0
 1004 375 1077 352 1016 237 c 0
 939 96 529 19 347 115 c 0
 213 185 117 384 117 595 c 0
 117 854 178 973 344 1056 c 0
686 947 m 0
 600 969 607 970 485 928 c 0
 379 890 341 848 341 771 c 0
 341 733 383 720 533 714 c 0
 642 711 757 716 789 726 c 0
 847 745 850 752 805 835 c 0
 779 886 724 934 686 947 c 0
EndSplineSet
Validated: 33
EndChar

StartChar: f
Encoding: 102 102 31
Width: 1148
Flags: HW
LayerCount: 2
Fore
SplineSet
607 1546 m 0
 681 1578 776 1606 821 1606 c 0
 936 1606 1045 1520 1045 1427 c 0
 1045 1341 997 1331 869 1389 c 0
 747 1443 629 1379 629 1254 c 0
 629 1164 635 1158 757 1158 c 0
 882 1158 882 1158 847 1075 c 0
 825 1027 773 989 725 976 c 0
 639 960 639 960 617 589 c 0
 588 87 585 70 447 70 c 0
 338 70 335 74 351 176 c 0
 393 403 412 713 393 790 c 0
 377 857 354 870 245 870 c 0
 130 870 117 880 114 950 c 0
 111 995 108 1050 105 1072 c 0
 102 1094 162 1116 261 1126 c 0
 370 1136 422 1158 428 1190 c 0
 463 1465 473 1482 607 1546 c 0
EndSplineSet
Validated: 33
EndChar

StartChar: g
Encoding: 103 103 32
Width: 1187
Flags: HW
LayerCount: 2
Fore
SplineSet
413 1091 m 0
 615 1155 723 1156 947 1082 c 0
 1072 1044 1098 951 1005 890 c 0
 963 864 925 870 855 912 c 0
 673 1018 358 947 320 790 c 0
 288 668 323 422 381 368 c 0
 410 339 503 311 589 301 c 0
 730 288 752 294 813 374 c 0
 864 438 883 509 883 618 c 0
 883 746 893 774 941 774 c 0
 1072 771 1085 733 1063 403 c 0
 1034 3 989 -198 922 -259 c 0
 768 -390 349 -451 218 -358 c 0
 138 -300 125 -180 195 -122 c 0
 237 -87 263 -92 343 -150 c 0
 423 -208 464 -221 557 -202 c 0
 707 -176 819 -102 819 -32 c 0
 822 -3 842 77 864 144 c 0
 909 269 893 301 832 205 c 0
 771 112 560 60 397 102 c 0
 192 156 135 256 122 570 c 0
 106 932 147 1008 413 1091 c 0
EndSplineSet
Validated: 33
EndChar

StartChar: h
Encoding: 104 104 33
Width: 1355
Flags: HW
LayerCount: 2
Fore
SplineSet
134 1520 m 0
 153 1530 240 1539 323 1539 c 0
 464 1542 477 1536 499 1456 c 0
 512 1405 521 1277 521 1168 c 0
 524 1056 528 966 531 966 c 0
 534 966 572 1001 617 1046 c 0
 703 1132 854 1152 1001 1094 c 0
 1145 1040 1187 931 1213 541 c 0
 1223 343 1238 160 1248 134 c 0
 1258 96 1232 86 1133 86 c 0
 992 86 1008 35 979 576 c 0
 953 973 887 1021 653 797 c 2
 509 656 l 1
 509 384 l 2
 509 80 502 70 297 70 c 0
 172 70 160 99 253 160 c 0
 314 195 317 233 317 691 c 0
 317 1312 307 1369 185 1395 c 0
 92 1414 57 1491 134 1520 c 0
EndSplineSet
Validated: 33
EndChar

StartChar: i
Encoding: 105 105 34
Width: 436
Flags: HW
LayerCount: 2
Fore
SplineSet
173 1430 m 0
 202 1510 294 1472 304 1373 c 0
 314 1306 301 1286 253 1286 c 0
 183 1286 144 1356 173 1430 c 0
199 922 m 0
 231 948 272 954 285 941 c 0
 301 925 307 736 304 515 c 0
 294 157 288 119 234 109 c 0
 138 90 121 157 131 528 c 0
 137 829 148 884 199 922 c 0
EndSplineSet
Validated: 33
EndChar

StartChar: j
Encoding: 106 106 35
Width: 882
Flags: HW
LayerCount: 2
Fore
SplineSet
647 1462 m 0
 714 1526 771 1482 739 1386 c 0
 717 1309 595 1293 595 1363 c 0
 595 1389 618 1433 647 1462 c 0
576 1059 m 0
 614 1120 701 1084 727 998 c 0
 769 848 759 266 711 154 c 0
 666 45 305 -282 231 -282 c 0
 177 -282 74 -54 90 42 c 0
 100 122 109 125 343 83 c 0
 525 54 548 105 551 598 c 0
 551 828 563 1037 576 1059 c 0
EndSplineSet
Validated: 33
EndChar

StartChar: k
Encoding: 107 107 36
Width: 1361
Flags: HW
LayerCount: 2
Fore
SplineSet
346 1542 m 0
 522 1580 529 1571 535 1206 c 0
 538 1120 545 976 548 890 c 2
 554 733 l 1
 647 861 l 2
 801 1075 890 1126 1095 1126 c 2
 1274 1123 l 1
 1044 909 l 2
 916 791 810 678 810 659 c 0
 810 640 840 598 878 563 c 0
 942 505 1226 115 1226 86 c 0
 1226 76 1168 70 1098 70 c 0
 996 70 961 87 900 170 c 0
 830 266 586 464 564 445 c 0
 561 439 548 365 538 282 c 0
 519 93 507 70 401 70 c 2
 314 70 l 1
 327 330 l 2
 333 474 327 743 314 925 c 2
 292 1261 l 1
 183 1306 l 2
 122 1332 84 1366 94 1392 c 0
 113 1446 231 1516 346 1542 c 0
EndSplineSet
Validated: 33
EndChar

StartChar: l
Encoding: 108 108 37
Width: 747
Flags: HW
LayerCount: 2
Fore
SplineSet
125 1514 m 0
 154 1559 209 1549 276 1488 c 0
 327 1443 333 1376 333 829 c 2
 333 221 l 1
 500 240 l 1
 663 259 l 1
 573 166 l 2
 503 92 452 70 362 70 c 0
 298 70 227 92 205 118 c 0
 179 150 167 311 167 621 c 0
 167 874 154 1168 138 1280 c 0
 122 1392 115 1495 125 1514 c 0
EndSplineSet
Validated: 33
EndChar

StartChar: m
Encoding: 109 109 38
Width: 1640
Flags: HW
LayerCount: 2
Fore
SplineSet
232 1050 m 0
 306 1104 379 1107 488 1056 c 0
 555 1027 587 1027 638 1059 c 0
 702 1101 872 1082 942 1024 c 0
 964 1005 1013 1011 1077 1043 c 0
 1211 1113 1327 1107 1413 1021 c 0
 1480 954 1490 906 1512 538 c 0
 1525 314 1528 124 1525 118 c 0
 1519 112 1474 99 1429 86 c 0
 1349 67 1345 74 1323 218 c 0
 1313 301 1304 454 1301 563 c 0
 1295 915 1217 1015 1067 874 c 0
 1003 813 990 758 971 502 c 0
 949 163 936 116 866 90 c 0
 780 55 763 103 779 362 c 0
 792 583 786 633 728 726 c 0
 661 835 607 870 501 870 c 0
 411 870 385 768 382 432 c 0
 382 269 373 121 360 102 c 0
 341 70 146 58 114 90 c 0
 101 100 113 144 139 192 c 0
 174 256 184 371 178 640 c 0
 172 970 174 1008 232 1050 c 0
EndSplineSet
Validated: 33
EndChar

StartChar: n
Encoding: 110 110 39
Width: 1226
Flags: HW
LayerCount: 2
Fore
SplineSet
179 1062 m 0
 291 1107 323 1101 345 1027 c 2
 367 960 l 1
 431 1030 l 2
 489 1091 524 1101 687 1088 c 0
 818 1078 895 1056 937 1011 c 0
 1004 944 1065 637 1065 352 c 0
 1065 253 1081 160 1097 150 c 0
 1116 140 1129 118 1129 99 c 0
 1129 61 915 60 889 102 c 0
 879 118 857 288 841 474 c 0
 809 887 786 918 559 886 c 0
 469 873 393 848 383 829 c 0
 377 807 390 697 412 582 c 0
 460 348 428 157 335 109 c 0
 258 67 204 96 223 163 c 0
 229 195 207 387 172 592 c 0
 89 1046 89 1027 179 1062 c 0
EndSplineSet
Validated: 33
EndChar

StartChar: o
Encoding: 111 111 40
Width: 1218
Flags: HW
VStem: 122 186<371 804>
LayerCount: 2
Fore
SplineSet
388 1082 m 0
 618 1184 961 1091 1060 902 c 0
 1134 761 1120 492 1037 326 c 0
 941 144 829 64 634 45 c 0
 436 29 304 92 192 262 c 0
 115 374 109 413 122 627 c 0
 135 889 196 996 388 1082 c 0
829 867 m 0
 752 966 624 985 474 918 c 0
 359 867 308 765 308 579 c 0
 308 313 471 169 692 243 c 0
 906 310 983 659 829 867 c 0
EndSplineSet
Validated: 33
EndChar

StartChar: p
Encoding: 112 112 41
Width: 1251
Flags: HW
LayerCount: 2
Fore
SplineSet
548 1094 m 0
 641 1136 695 1132 877 1078 c 0
 1082 1017 1140 922 1140 656 c 0
 1140 422 1038 204 900 134 c 0
 846 108 718 90 612 90 c 2
 420 90 l 1
 420 -83 l 2
 420 -272 369 -343 260 -301 c 0
 206 -282 202 -240 221 288 c 2
 241 854 l 1
 157 922 l 2
 39 1015 87 1063 301 1066 c 0
 400 1066 513 1078 548 1094 c 0
807 915 m 0
 705 944 654 938 564 893 c 0
 474 848 445 752 439 493 c 0
 436 346 445 320 509 291 c 0
 611 246 833 307 900 400 c 0
 958 480 964 704 913 819 c 0
 894 861 845 905 807 915 c 0
EndSplineSet
Validated: 33
EndChar

StartChar: q
Encoding: 113 113 42
Width: 1239
Flags: HW
LayerCount: 2
Fore
SplineSet
369 1053 m 0
 503 1117 568 1127 731 1117 c 0
 846 1107 968 1078 1016 1046 c 2
 1102 992 l 1
 1076 586 l 2
 1038 -48 1038 -76 1108 -150 c 0
 1175 -227 1153 -266 1022 -298 c 0
 910 -327 836 -214 830 -16 c 2
 827 131 l 1
 737 86 l 2
 628 28 494 26 398 80 c 0
 228 176 78 490 120 669 c 0
 178 938 199 970 369 1053 c 0
849 896 m 0
 795 976 698 983 500 922 c 0
 337 874 283 778 305 570 c 0
 324 394 388 307 542 240 c 0
 632 205 657 204 737 246 c 0
 788 272 846 336 865 394 c 0
 916 544 910 813 849 896 c 0
EndSplineSet
Validated: 33
EndChar

StartChar: r
Encoding: 114 114 43
Width: 1093
Flags: HW
LayerCount: 2
Fore
SplineSet
178 1098 m 0
 284 1162 383 1139 383 1056 c 0
 383 995 389 995 456 1040 c 0
 494 1066 603 1097 696 1110 c 0
 837 1129 879 1123 930 1075 c 0
 997 1014 1010 903 952 845 c 0
 901 794 799 797 799 848 c 0
 796 950 747 976 619 931 c 0
 417 864 414 858 411 538 c 0
 408 196 386 90 306 77 c 0
 216 58 142 99 184 141 c 0
 210 167 223 301 223 509 c 0
 223 797 213 848 159 902 c 0
 73 988 79 1037 178 1098 c 0
EndSplineSet
Validated: 33
EndChar

StartChar: s
Encoding: 115 115 44
Width: 1044
Flags: HW
LayerCount: 2
Fore
SplineSet
242 1053 m 0
 431 1181 850 1139 879 992 c 0
 885 960 873 915 847 893 c 0
 812 855 792 858 722 909 c 0
 655 960 607 970 511 954 c 0
 220 903 249 787 572 707 c 0
 825 646 841 637 905 512 c 0
 966 397 943 230 860 160 c 0
 719 35 453 7 245 90 c 0
 120 141 114 150 124 259 c 0
 137 400 242 438 293 320 c 0
 319 256 354 247 508 237 c 0
 681 227 697 233 729 307 c 0
 783 422 728 474 533 496 c 0
 309 522 194 592 149 726 c 0
 95 886 120 970 242 1053 c 0
EndSplineSet
Validated: 33
EndChar

StartChar: t
Encoding: 116 116 45
Width: 954
Flags: HW
LayerCount: 2
Fore
SplineSet
447 1414 m 0
 553 1443 559 1434 559 1277 c 2
 559 1142 l 1
 697 1139 l 2
 854 1136 876 1124 847 1034 c 0
 831 980 799 966 684 966 c 2
 540 966 l 1
 550 624 l 1
 559 278 l 1
 697 285 l 2
 771 288 831 278 831 262 c 0
 831 220 639 70 588 70 c 0
 505 70 418 134 367 230 c 0
 335 294 319 419 319 643 c 2
 319 963 l 1
 217 973 l 2
 127 983 108 995 102 1072 c 0
 92 1162 95 1165 201 1149 c 0
 345 1130 367 1148 367 1286 c 0
 367 1376 380 1398 447 1414 c 0
EndSplineSet
Validated: 33
EndChar

StartChar: u
Encoding: 117 117 46
Width: 1214
Flags: HW
LayerCount: 2
Fore
SplineSet
884 1043 m 0
 897 1075 941 1094 1002 1094 c 2
 1098 1094 l 1
 1076 675 l 2
 1066 445 1040 230 1024 195 c 0
 979 112 673 28 516 54 c 0
 260 96 154 282 135 736 c 2
 119 1066 l 1
 244 1056 l 1
 368 1046 l 1
 359 790 l 2
 343 358 461 167 695 250 c 0
 823 295 864 403 864 717 c 0
 864 867 874 1014 884 1043 c 0
EndSplineSet
Validated: 33
EndChar

StartChar: v
Encoding: 118 118 47
Width: 1196
Flags: HW
LayerCount: 2
Fore
SplineSet
100 1126 m 0
 116 1155 203 1148 328 1110 c 0
 366 1100 462 848 555 528 c 2
 609 330 l 1
 651 426 l 2
 673 477 728 637 776 778 c 0
 869 1063 916 1126 1028 1126 c 2
 1102 1126 l 1
 993 832 l 2
 935 669 852 429 814 304 c 2
 740 70 l 1
 609 70 l 1
 481 70 l 1
 360 432 l 2
 293 627 203 861 158 944 c 0
 116 1027 90 1110 100 1126 c 0
EndSplineSet
Validated: 33
EndChar

StartChar: w
Encoding: 119 119 48
Width: 1716
Flags: HW
LayerCount: 2
Fore
SplineSet
94 1146 m 0
 94 1175 350 1139 385 1104 c 0
 398 1091 459 925 520 736 c 0
 578 547 635 384 641 374 c 0
 651 364 686 496 718 666 c 0
 776 980 823 1050 913 960 c 0
 967 909 1150 435 1150 352 c 0
 1150 320 1160 294 1176 294 c 0
 1189 294 1233 473 1275 694 c 0
 1345 1052 1358 1094 1419 1094 c 0
 1457 1094 1521 1104 1563 1117 c 0
 1630 1133 1633 1130 1601 1066 c 0
 1579 1028 1512 816 1454 595 c 0
 1313 89 1303 70 1169 70 c 2
 1061 70 l 1
 971 358 l 2
 923 518 875 646 862 646 c 0
 849 646 817 522 795 368 c 2
 750 86 l 1
 622 86 l 1
 494 86 l 1
 347 502 l 2
 267 732 178 963 149 1021 c 0
 120 1079 94 1133 94 1146 c 0
EndSplineSet
Validated: 33
EndChar

StartChar: x
Encoding: 120 120 49
Width: 1275
Flags: HW
HStem: 1117 41G<982 1068>
VStem: 515 288<547 712>
LayerCount: 2
Fore
SplineSet
268 1165 m 0
 306 1171 361 1168 390 1152 c 0
 460 1120 601 950 627 870 c 0
 637 835 655 806 668 806 c 0
 681 806 745 886 812 982 c 0
 902 1113 953 1158 1011 1158 c 0
 1126 1158 1139 1101 1049 1005 c 0
 953 899 803 662 803 611 c 0
 803 589 889 461 995 320 c 2
 1187 70 l 1
 1043 70 l 2
 912 70 896 80 835 189 c 0
 768 317 646 473 633 451 c 0
 627 445 563 355 486 253 c 0
 358 83 339 70 217 70 c 2
 86 70 l 1
 201 189 l 2
 307 304 515 592 515 627 c 0
 515 659 285 1031 240 1066 c 0
 176 1120 185 1152 268 1165 c 0
EndSplineSet
Validated: 33
EndChar

StartChar: y
Encoding: 121 121 50
Width: 1153
Flags: HW
LayerCount: 2
Fore
SplineSet
94 1130 m 0
 94 1146 136 1158 187 1158 c 0
 325 1158 418 1014 536 630 c 0
 587 454 641 332 651 358 c 0
 661 384 705 544 753 710 c 0
 798 876 853 1040 869 1072 c 0
 895 1126 1054 1152 1054 1101 c 0
 1054 1034 817 269 766 170 c 0
 683 10 430 -301 337 -365 c 0
 228 -432 126 -397 126 -291 c 0
 126 -243 142 -217 168 -227 c 0
 235 -253 318 -185 414 -35 c 2
 507 109 l 1
 382 461 l 2
 312 656 219 880 174 960 c 0
 129 1037 94 1114 94 1130 c 0
EndSplineSet
Validated: 33
EndChar

StartChar: z
Encoding: 122 122 51
Width: 1153
Flags: HW
LayerCount: 2
Fore
SplineSet
287 1043 m 0
 316 1126 322 1126 655 1126 c 0
 914 1126 997 1117 1010 1082 c 0
 1026 1044 651 470 501 304 c 0
 443 237 441 230 492 211 c 0
 524 198 664 198 802 211 c 2
 1058 234 l 1
 1048 144 l 1
 1039 54 l 1
 568 45 l 2
 130 39 24 54 130 118 c 0
 146 131 239 259 335 400 c 0
 431 544 562 733 626 819 c 2
 748 973 l 1
 501 960 l 2
 367 954 255 954 255 957 c 0
 255 960 268 998 287 1043 c 0
EndSplineSet
Validated: 33
EndChar

StartChar: zero
Encoding: 48 48 52
Width: 1265
Flags: HW
LayerCount: 2
Fore
SplineSet
455 1450 m 0
 615 1549 849 1520 964 1382 c 0
 1086 1232 1149 1024 1149 765 c 0
 1149 477 1098 307 967 179 c 0
 759 -29 442 9 256 262 c 0
 19 592 129 1245 455 1450 c 0
810 1277 m 0
 596 1491 330 1200 336 758 c 0
 342 400 446 230 660 230 c 0
 791 230 877 314 922 477 c 0
 992 720 928 1159 810 1277 c 0
EndSplineSet
Validated: 33
EndChar

StartChar: one
Encoding: 49 49 53
Width: 665
Flags: HW
LayerCount: 2
Fore
SplineSet
223 1357 m 0
 297 1424 367 1478 380 1478 c 0
 393 1478 427 1446 453 1408 c 0
 495 1350 504 1229 504 752 c 0
 504 400 517 163 536 150 c 0
 610 105 559 67 434 77 c 2
 296 86 l 1
 280 659 l 2
 267 1152 258 1226 220 1181 c 0
 198 1149 155 1126 133 1126 c 0
 47 1126 89 1232 223 1357 c 0
EndSplineSet
Validated: 33
EndChar

StartChar: two
Encoding: 50 50 54
Width: 1183
Flags: HW
LayerCount: 2
Fore
SplineSet
437 1498 m 0
 491 1520 593 1539 667 1542 c 0
 837 1542 1010 1401 1064 1222 c 0
 1115 1052 1035 896 709 531 c 2
 449 246 l 1
 750 237 l 2
 1044 227 1054 227 1070 150 c 2
 1083 70 l 1
 571 70 l 2
 168 70 69 80 91 112 c 0
 110 131 194 243 277 352 c 0
 360 464 530 663 648 794 c 0
 894 1060 926 1171 798 1309 c 0
 686 1427 545 1408 401 1254 c 0
 241 1084 171 1084 197 1254 c 0
 207 1324 328 1450 437 1498 c 0
EndSplineSet
Validated: 33
EndChar

StartChar: three
Encoding: 51 51 55
Width: 1116
Flags: HW
LayerCount: 2
Fore
SplineSet
376 1504 m 0
 536 1549 619 1549 741 1498 c 0
 879 1440 952 1334 952 1190 c 0
 952 1014 917 931 837 899 c 0
 738 864 740 819 846 768 c 0
 1105 643 1035 205 741 83 c 0
 485 -26 113 93 94 288 c 0
 81 416 123 419 286 307 c 0
 526 137 792 224 792 470 c 0
 792 598 750 633 542 694 c 0
 299 768 277 902 507 902 c 0
 673 902 760 989 760 1155 c 0
 760 1229 741 1296 712 1318 c 0
 642 1379 418 1360 293 1290 c 0
 184 1226 152 1232 152 1318 c 0
 152 1392 242 1466 376 1504 c 0
EndSplineSet
Validated: 33
EndChar

StartChar: four
Encoding: 52 52 56
Width: 1343
Flags: HW
LayerCount: 2
Fore
SplineSet
690 1408 m 0
 792 1530 851 1574 902 1568 c 0
 963 1558 972 1529 994 1302 c 0
 1007 1161 1014 963 1004 864 c 2
 991 678 l 1
 1116 678 l 2
 1244 678 1270 643 1209 550 c 0
 1190 518 1136 509 1030 515 c 0
 896 521 883 519 918 474 c 0
 940 448 985 416 1017 406 c 0
 1065 390 1077 355 1074 230 c 2
 1074 70 l 1
 934 70 l 2
 764 70 722 128 735 349 c 2
 745 502 l 1
 434 512 l 2
 127 522 121 521 121 598 c 0
 121 672 376 1034 690 1408 c 0
825 966 m 2
 825 1126 812 1254 793 1254 c 0
 777 1254 700 1158 620 1040 c 0
 540 918 451 790 422 752 c 2
 370 678 l 1
 598 678 l 1
 825 678 l 1
 825 966 l 2
EndSplineSet
Validated: 33
EndChar

StartChar: five
Encoding: 53 53 57
Width: 1173
Flags: HW
LayerCount: 2
Fore
SplineSet
92 1501 m 0
 92 1536 112 1539 166 1520 c 0
 240 1494 613 1498 863 1530 c 0
 1023 1549 1074 1504 1036 1379 c 0
 1020 1328 982 1318 780 1318 c 0
 450 1318 390 1290 374 1130 c 0
 364 1008 368 1005 419 1053 c 0
 461 1091 511 1098 623 1082 c 0
 917 1044 1072 835 1043 518 c 0
 1017 233 918 118 652 67 c 0
 406 19 102 164 131 314 c 0
 144 391 230 407 294 346 c 0
 425 215 697 211 780 339 c 0
 857 454 870 592 819 720 c 0
 755 867 659 896 422 826 c 0
 172 756 157 778 179 1104 c 0
 195 1325 188 1376 143 1411 c 0
 114 1433 92 1475 92 1501 c 0
EndSplineSet
Validated: 33
EndChar

StartChar: six
Encoding: 54 54 58
Width: 1218
Flags: HW
LayerCount: 2
Fore
SplineSet
546 1478 m 0
 693 1558 885 1552 885 1469 c 0
 885 1431 827 1383 709 1325 c 0
 533 1239 389 1075 338 902 c 0
 319 828 319 829 370 880 c 0
 504 1014 815 986 991 826 c 0
 1093 730 1106 704 1103 560 c 0
 1100 333 1000 157 837 90 c 0
 578 -12 376 52 229 282 c 0
 143 420 133 461 133 675 c 0
 136 1030 296 1347 546 1478 c 0
818 707 m 0
 652 838 376 755 357 566 c 0
 335 352 444 230 658 230 c 0
 786 230 808 240 853 326 c 0
 930 473 917 630 818 707 c 0
EndSplineSet
Validated: 33
EndChar

StartChar: seven
Encoding: 55 55 59
Width: 1021
Flags: HW
LayerCount: 2
Fore
SplineSet
96 1414 m 2
 96 1510 l 1
 512 1510 l 2
 848 1510 928 1501 928 1466 c 0
 928 1440 822 1142 691 800 c 0
 563 461 449 157 439 128 c 0
 426 90 384 70 317 70 c 0
 218 70 215 71 237 202 c 0
 250 272 295 422 343 528 c 0
 570 1062 640 1239 640 1277 c 0
 640 1303 605 1315 554 1312 c 0
 503 1309 381 1309 282 1312 c 0
 100 1318 96 1318 96 1414 c 2
EndSplineSet
Validated: 33
EndChar

StartChar: eight
Encoding: 56 56 60
Width: 1214
Flags: HW
LayerCount: 2
Fore
SplineSet
424 1491 m 0
 539 1555 814 1555 904 1491 c 0
 1102 1353 1124 1021 945 880 c 0
 900 842 900 835 942 800 c 0
 1169 614 1150 243 907 115 c 0
 853 89 734 57 641 51 c 0
 417 29 279 102 177 304 c 0
 107 445 104 470 139 576 c 0
 165 640 225 739 276 797 c 2
 376 899 l 1
 305 986 l 2
 183 1140 245 1395 424 1491 c 0
824 1325 m 0
 741 1395 682 1408 564 1376 c 0
 414 1334 372 1226 452 1088 c 0
 497 1011 549 972 635 950 c 0
 744 924 766 928 817 995 c 0
 894 1088 898 1261 824 1325 c 0
785 701 m 0
 734 739 545 752 468 720 c 0
 446 710 398 646 363 576 c 0
 280 413 315 313 475 246 c 0
 619 185 766 214 846 320 c 0
 942 442 916 602 785 701 c 0
EndSplineSet
Validated: 33
EndChar

StartChar: nine
Encoding: 57 57 61
Width: 1177
Flags: HW
LayerCount: 2
Fore
SplineSet
367 1472 m 0
 473 1530 543 1543 661 1533 c 0
 965 1507 1090 1258 1055 746 c 0
 1023 269 907 89 613 51 c 0
 459 35 322 90 306 176 c 0
 296 221 319 230 441 230 c 0
 710 230 770 288 837 602 c 2
 866 736 l 1
 754 659 l 2
 559 525 351 567 197 765 c 0
 21 992 105 1334 367 1472 c 0
764 1302 m 0
 543 1526 182 1216 332 931 c 0
 377 851 530 774 645 774 c 0
 783 774 844 861 844 1059 c 0
 844 1193 828 1241 764 1302 c 0
EndSplineSet
Validated: 33
EndChar

StartChar: .notdef
Encoding: 256 -1 62
Width: 1024
GlyphClass: 1
Flags: W
LayerCount: 2
Fore
SplineSet
102 0 m 1
 102 1536 l 1
 922 1536 l 1
 922 0 l 1
 102 0 l 1
819 102 m 1
 819 1434 l 1
 205 1434 l 1
 205 102 l 1
 819 102 l 1
EndSplineSet
Validated: 1
EndChar

StartChar: exclam
Encoding: 33 33 66
Width: 565
GlyphClass: 1
Flags: W
LayerCount: 2
Fore
SplineSet
385 1034 m 2
 385 919.333333333 380.833333333 815.333333333 372.5 722 c 128
 364.166666667 628.666666667 354 535.333333333 342 442 c 1
 223 442 l 1
 211 534.666666667 200.833333333 627.833333333 192.5 721.5 c 128
 184.166666667 815.166666667 180 919.333333333 180 1034 c 2
 180 1419 l 1
 385 1419 l 1
 385 1034 l 2
420 111 m 256
 420 74.3333333333 407.666666667 42.1666666667 383 14.5 c 128
 358.333333333 -13.1666666667 325 -27 283 -27 c 256
 241 -27 207.5 -13.3333333333 182.5 14 c 128
 157.5 41.3333333333 145 73.6666666667 145 111 c 0
 145 147.666666667 157.333333333 179.666666667 182 207 c 128
 206.666666667 234.333333333 240.333333333 248 283 248 c 0
 325 248 358.333333333 234.333333333 383 207 c 128
 407.666666667 179.666666667 420 147.666666667 420 111 c 256
EndSplineSet
Validated: 524289
EndChar

StartChar: numbersign
Encoding: 35 35 68
Width: 1366
GlyphClass: 1
Flags: W
LayerCount: 2
Fore
SplineSet
582 1044 m 1
 913 1044 l 1
 985 1419 l 1
 1157 1419 l 1
 1085 1044 l 1
 1266 1044 l 1
 1266 893 l 1
 1055 893 l 1
 985 526 l 1
 1266 526 l 1
 1266 375 l 1
 956 375 l 1
 885 0 l 1
 713 0 l 1
 784 375 l 1
 453 375 l 1
 381 0 l 1
 209 0 l 1
 281 375 l 1
 100 375 l 1
 100 526 l 1
 309 526 l 1
 379 893 l 1
 100 893 l 1
 100 1044 l 1
 410 1044 l 1
 481 1419 l 1
 653 1419 l 1
 582 1044 l 1
481 526 m 1
 813 526 l 1
 885 893 l 1
 553 893 l 1
 481 526 l 1
EndSplineSet
Validated: 1
EndChar

StartChar: dollar
Encoding: 36 36 69
Width: 1155
GlyphClass: 1
Flags: W
LayerCount: 2
Fore
SplineSet
537 195 m 0
 642.333333333 195 716 211.666666667 758 245 c 128
 800 278.333333333 821 321 821 373 c 0
 821 411 811.833333333 443.666666667 793.5 471 c 128
 775.166666667 498.333333333 750.666666667 522.166666667 720 542.5 c 128
 689.333333333 562.833333333 653.833333333 581.333333333 613.5 598 c 128
 573.166666667 614.666666667 531.666666667 630.333333333 489 645 c 0
 448.333333333 660.333333333 407.833333333 677.166666667 367.5 695.5 c 128
 327.166666667 713.833333333 291.333333333 736.333333333 260 763 c 128
 228.666666667 789.666666667 203.166666667 821.666666667 183.5 859 c 128
 163.833333333 896.333333333 154 942.333333333 154 997 c 0
 154 1093.66666667 183 1173.16666667 241 1235.5 c 128
 299 1297.83333333 383.333333333 1337.33333333 494 1354 c 1
 494 1589 l 1
 664 1589 l 1
 664 1360 l 1
 724 1357.33333333 779.833333333 1349.83333333 831.5 1337.5 c 128
 883.166666667 1325.16666667 924 1313.66666667 954 1303 c 1
 915 1143 l 1
 882.333333333 1155 841.5 1167.5 792.5 1180.5 c 128
 743.5 1193.5 682 1200 608 1200 c 0
 526 1200 462.833333333 1184.33333333 418.5 1153 c 128
 374.166666667 1121.66666667 352 1077.33333333 352 1020 c 0
 352 988.666666667 358.5 962 371.5 940 c 128
 384.5 918 403.333333333 898.5 428 881.5 c 128
 452.666666667 864.5 481.666666667 849.166666667 515 835.5 c 128
 548.333333333 821.833333333 585.666666667 807.666666667 627 793 c 0
 680.333333333 772.333333333 730.833333333 751 778.5 729 c 128
 826.166666667 707 868 680.666666667 904 650 c 128
 940 619.333333333 969 582.833333333 991 540.5 c 128
 1013 498.166666667 1024 447 1024 387 c 0
 1024 290.333333333 994.666666667 212.166666667 936 152.5 c 128
 877.333333333 92.8333333333 786.666666667 55.6666666667 664 41 c 1
 664 -223 l 1
 494 -223 l 1
 494 35 l 1
 398.666666667 37.6666666667 320.833333333 48.1666666667 260.5 66.5 c 128
 200.166666667 84.8333333333 155 102.333333333 125 119 c 1
 176 272 l 1
 216.666666667 252.666666667 265.833333333 235 323.5 219 c 128
 381.166666667 203 452.333333333 195 537 195 c 0
EndSplineSet
Validated: 524289
EndChar

StartChar: percent
Encoding: 37 37 70
Width: 1757
GlyphClass: 1
Flags: W
LayerCount: 2
Fore
SplineSet
102 1073 m 256
 102 1134.33333333 110.333333333 1188.33333333 127 1235 c 128
 143.666666667 1281.66666667 166.666666667 1321 196 1353 c 128
 225.333333333 1385 259.666666667 1409.16666667 299 1425.5 c 128
 338.333333333 1441.83333333 381.333333333 1450 428 1450 c 256
 474.666666667 1450 517.666666667 1441.83333333 557 1425.5 c 128
 596.333333333 1409.16666667 630.833333333 1385 660.5 1353 c 128
 690.166666667 1321 713.166666667 1281.66666667 729.5 1235 c 128
 745.833333333 1188.33333333 754 1134.33333333 754 1073 c 256
 754 1011.66666667 745.833333333 957.833333333 729.5 911.5 c 128
 713.166666667 865.166666667 690.166666667 825.833333333 660.5 793.5 c 128
 630.833333333 761.166666667 596.333333333 736.833333333 557 720.5 c 128
 517.666666667 704.166666667 474.666666667 696 428 696 c 256
 381.333333333 696 338.333333333 704.166666667 299 720.5 c 128
 259.666666667 736.833333333 225.333333333 761.166666667 196 793.5 c 128
 166.666666667 825.833333333 143.666666667 865.166666667 127 911.5 c 128
 110.333333333 957.833333333 102 1011.66666667 102 1073 c 256
594 1073 m 256
 594 1147 579.666666667 1204.83333333 551 1246.5 c 128
 522.333333333 1288.16666667 481.333333333 1309 428 1309 c 256
 374.666666667 1309 333.666666667 1288.16666667 305 1246.5 c 128
 276.333333333 1204.83333333 262 1147 262 1073 c 256
 262 999 276.333333333 941.333333333 305 900 c 128
 333.666666667 858.666666667 374.666666667 838 428 838 c 256
 481.333333333 838 522.333333333 858.666666667 551 900 c 128
 579.666666667 941.333333333 594 999 594 1073 c 256
1004 346 m 256
 1004 407.333333333 1012.16666667 461.333333333 1028.5 508 c 128
 1044.83333333 554.666666667 1067.66666667 594 1097 626 c 128
 1126.33333333 658 1160.83333333 682.166666667 1200.5 698.5 c 128
 1240.16666667 714.833333333 1283 723 1329 723 c 0
 1375.66666667 723 1418.83333333 714.833333333 1458.5 698.5 c 128
 1498.16666667 682.166666667 1532.66666667 658 1562 626 c 128
 1591.33333333 594 1614.16666667 554.666666667 1630.5 508 c 128
 1646.83333333 461.333333333 1655 407.333333333 1655 346 c 256
 1655 284.666666667 1646.83333333 230.833333333 1630.5 184.5 c 128
 1614.16666667 138.166666667 1591.33333333 98.8333333333 1562 66.5 c 128
 1532.66666667 34.1666666667 1498.16666667 9.83333333333 1458.5 -6.5 c 128
 1418.83333333 -22.8333333333 1375.66666667 -31 1329 -31 c 256
 1282.33333333 -31 1239.33333333 -22.8333333333 1200 -6.5 c 128
 1160.66666667 9.83333333333 1126.33333333 34.1666666667 1097 66.5 c 128
 1067.66666667 98.8333333333 1044.83333333 138.166666667 1028.5 184.5 c 128
 1012.16666667 230.833333333 1004 284.666666667 1004 346 c 256
1495 346 m 256
 1495 420 1480.66666667 477.833333333 1452 519.5 c 128
 1423.33333333 561.166666667 1382.33333333 582 1329 582 c 256
 1275.66666667 582 1234.66666667 561.166666667 1206 519.5 c 128
 1177.33333333 477.833333333 1163 420 1163 346 c 256
 1163 272 1177.33333333 214.333333333 1206 173 c 128
 1234.66666667 131.666666667 1275.66666667 111 1329 111 c 256
 1382.33333333 111 1423.33333333 131.666666667 1452 173 c 128
 1480.66666667 214.333333333 1495 272 1495 346 c 256
1372 1419 m 1
 571 0 l 1
 385 0 l 1
 1186 1419 l 1
 1372 1419 l 1
EndSplineSet
Validated: 524289
EndChar

StartChar: ampersand
Encoding: 38 38 71
Width: 1363
GlyphClass: 1
Flags: W
LayerCount: 2
Fore
SplineSet
94 377 m 0
 94 430.333333333 102.166666667 477.833333333 118.5 519.5 c 128
 134.833333333 561.166666667 157 598.666666667 185 632 c 128
 213 665.333333333 245.5 694.666666667 282.5 720 c 128
 319.5 745.333333333 357.666666667 767.333333333 397 786 c 1
 295.666666667 887.333333333 245.333333333 992 246 1100 c 0
 246 1154.66666667 255.166666667 1203.83333333 273.5 1247.5 c 128
 291.833333333 1291.16666667 317 1328 349 1358 c 128
 381 1388 419.166666667 1411.16666667 463.5 1427.5 c 128
 507.833333333 1443.83333333 556.666666667 1452 610 1452 c 0
 664.666666667 1452 713.5 1443.83333333 756.5 1427.5 c 128
 799.5 1411.16666667 835.666666667 1389.33333333 865 1362 c 128
 894.333333333 1334.66666667 916.5 1301.83333333 931.5 1263.5 c 128
 946.5 1225.16666667 954 1185 954 1143 c 0
 954 1095 946.166666667 1051.83333333 930.5 1013.5 c 128
 914.833333333 975.166666667 893.666666667 940.333333333 867 909 c 128
 840.333333333 877.666666667 810 849 776 823 c 128
 742 797 706 774 668 754 c 1
 999 416 l 1
 1045.66666667 502 1076 597.333333333 1090 702 c 1
 1247 682 l 1
 1241.66666667 626 1227.66666667 564.833333333 1205 498.5 c 128
 1182.33333333 432.166666667 1150.66666667 366.333333333 1110 301 c 1
 1158 249 1202.16666667 197.833333333 1242.5 147.5 c 128
 1282.83333333 97.1666666667 1315.66666667 48 1341 0 c 1
 1141 0 l 1
 1124.33333333 27.3333333333 1104 55.3333333333 1080 84 c 128
 1056 112.666666667 1031.33333333 141.333333333 1006 170 c 1
 950 114 885 68.6666666667 811 34 c 128
 737 -0.666666666667 652.333333333 -18 557 -18 c 0
 468.333333333 -18 394.666666667 -5.5 336 19.5 c 128
 277.333333333 44.5 229.833333333 76.5 193.5 115.5 c 128
 157.166666667 154.5 131.5 197.333333333 116.5 244 c 128
 101.5 290.666666667 94 335 94 377 c 0
285 381 m 0
 285 356.333333333 289.666666667 329.666666667 299 301 c 128
 308.333333333 272.333333333 324 246 346 222 c 128
 368 198 396.333333333 178.166666667 431 162.5 c 128
 465.666666667 146.833333333 509 139 561 139 c 0
 627.666666667 139 689.333333333 151.333333333 746 176 c 128
 802.666666667 200.666666667 853 235.666666667 897 281 c 1
 498 684 l 1
 473.333333333 672 448.333333333 657.666666667 423 641 c 128
 397.666666667 624.333333333 374.833333333 604.166666667 354.5 580.5 c 128
 334.166666667 556.833333333 317.5 528.666666667 304.5 496 c 128
 291.5 463.333333333 285 425 285 381 c 0
782 1137 m 0
 782 1183.66666667 766.666666667 1223 736 1255 c 128
 705.333333333 1287 663.333333333 1303 610 1303 c 0
 550 1303 504 1284.83333333 472 1248.5 c 128
 440 1212.16666667 424 1167.33333333 424 1114 c 0
 424 1025.33333333 470.333333333 938.666666667 563 854 c 1
 593 869.333333333 621.333333333 885.833333333 648 903.5 c 128
 674.666666667 921.166666667 698 941.5 718 964.5 c 128
 738 987.5 753.666666667 1013.16666667 765 1041.5 c 128
 776.333333333 1069.83333333 782 1101.66666667 782 1137 c 0
EndSplineSet
Validated: 524321
EndChar

StartChar: quotesingle
Encoding: 39 39 72
Width: 493
GlyphClass: 1
Flags: W
LayerCount: 2
Fore
SplineSet
346 1556 m 1
 346 1454 l 2
 346 1387.33333333 342 1317.5 334 1244.5 c 128
 326 1171.5 315.666666667 1098.66666667 303 1026 c 1
 190 1026 l 1
 178 1098.66666667 167.833333333 1171.5 159.5 1244.5 c 128
 151.166666667 1317.5 147 1388 147 1456 c 2
 147 1556 l 1
 346 1556 l 1
EndSplineSet
Validated: 524289
EndChar

StartChar: parenleft
Encoding: 40 40 73
Width: 663
GlyphClass: 1
Flags: W
LayerCount: 2
Fore
SplineSet
350 612 m 256
 350 437.333333333 375.333333333 275.666666667 426 127 c 128
 476.666666667 -21.6666666667 551 -159.666666667 649 -287 c 1
 514 -379 l 1
 407.333333333 -249 321.666666667 -99.6666666667 257 69 c 128
 192.333333333 237.666666667 160 418.666666667 160 612 c 0
 160 806 192.333333333 987.333333333 257 1156 c 128
 321.666666667 1324.66666667 407.333333333 1474 514 1604 c 1
 649 1511 l 1
 551 1384.33333333 476.666666667 1246.5 426 1097.5 c 128
 375.333333333 948.5 350 786.666666667 350 612 c 256
EndSplineSet
Validated: 524289
Substitution2: "Ubuntu-Regular-'case' Case-Sensitive Forms lookup 18 subtable" Parenleft
EndChar

StartChar: parenright
Encoding: 41 41 74
Width: 663
GlyphClass: 1
Flags: W
LayerCount: 2
Fore
SplineSet
313 612 m 256
 313 786.666666667 287.833333333 948.5 237.5 1097.5 c 128
 187.166666667 1246.5 112.666666667 1384.33333333 14 1511 c 1
 150 1604 l 1
 256.666666667 1474 342.333333333 1324.66666667 407 1156 c 128
 471.666666667 987.333333333 504 806 504 612 c 256
 504 418 471.5 236.833333333 406.5 68.5 c 128
 341.5 -99.8333333333 256 -249 150 -379 c 1
 14 -287 l 1
 112 -160.333333333 186.333333333 -22.5 237 126.5 c 128
 287.666666667 275.5 313 437.333333333 313 612 c 256
EndSplineSet
Validated: 524289
Substitution2: "Ubuntu-Regular-'case' Case-Sensitive Forms lookup 18 subtable" Parenright
EndChar

StartChar: asterisk
Encoding: 42 42 75
Width: 983
GlyphClass: 1
Flags: W
LayerCount: 2
Fore
SplineSet
584 1403 m 2
 584 1345.66666667 578.833333333 1290.66666667 568.5 1238 c 128
 558.166666667 1185.33333333 547.666666667 1131 537 1075 c 1
 586.333333333 1102.33333333 634.833333333 1129 682.5 1155 c 128
 730.166666667 1181 782 1203.66666667 838 1223 c 2
 850 1227 l 1
 907 1055 l 1
 891 1049 l 2
 836.333333333 1028.33333333 781.666666667 1014.83333333 727 1008.5 c 128
 672.333333333 1002.16666667 616.333333333 997 559 993 c 1
 604.333333333 955 646.666666667 917.833333333 686 881.5 c 128
 725.333333333 845.166666667 762.333333333 803.333333333 797 756 c 2
 807 741 l 1
 657 637 l 1
 649 649 l 2
 616.333333333 698.333333333 588 747.166666667 564 795.5 c 128
 540 843.833333333 516 894 492 946 c 1
 467.333333333 894 443 843.833333333 419 795.5 c 128
 395 747.166666667 366.666666667 698.333333333 334 649 c 2
 326 637 l 1
 176 741 l 1
 186 756 l 2
 220 804 256.833333333 846 296.5 882 c 128
 336.166666667 918 378.666666667 955 424 993 c 1
 366.666666667 997 310.666666667 1002.16666667 256 1008.5 c 128
 201.333333333 1014.83333333 146.666666667 1028.33333333 92 1049 c 2
 76 1055 l 1
 133 1227 l 1
 145 1223 l 2
 201 1203.66666667 253 1181 301 1155 c 128
 349 1129 397.333333333 1102.33333333 446 1075 c 1
 435.333333333 1131 424.833333333 1185.33333333 414.5 1238 c 128
 404.166666667 1290.66666667 399 1345.66666667 399 1403 c 2
 399 1419 l 1
 584 1419 l 1
 584 1403 l 2
EndSplineSet
Validated: 524289
EndChar

StartChar: plus
Encoding: 43 43 76
Width: 1155
GlyphClass: 1
Flags: W
LayerCount: 2
Fore
SplineSet
109 694 m 1
 496 694 l 1
 496 1116 l 1
 659 1116 l 1
 659 694 l 1
 1047 694 l 1
 1047 532 l 1
 659 532 l 1
 659 109 l 1
 496 109 l 1
 496 532 l 1
 109 532 l 1
 109 694 l 1
EndSplineSet
Validated: 1
EndChar

StartChar: comma
Encoding: 44 44 77
Width: 503
GlyphClass: 1
Flags: W
LayerCount: 2
Fore
SplineSet
365 233 m 1
 366.333333333 222.333333333 367 211.833333333 367 201.5 c 128
 367 186 367 186 367 170 c 0
 367 84 354.333333333 -1 329 -85 c 128
 303.666666667 -169 269 -249.333333333 225 -326 c 1
 78 -279 l 1
 112 -209.666666667 134.5 -139 145.5 -67 c 128
 156.5 5 162 72.3333333333 162 135 c 0
 162 153 161.666666667 170.166666667 161 186.5 c 128
 160.333333333 202.833333333 159.333333333 218.333333333 158 233 c 1
 365 233 l 1
EndSplineSet
Validated: 524289
EndChar

StartChar: hyphen
Encoding: 45 45 78
Width: 612
GlyphClass: 1
Flags: W
LayerCount: 2
Fore
SplineSet
53 702 m 1
 559 702 l 1
 559 524 l 1
 53 524 l 1
 53 702 l 1
EndSplineSet
Validated: 1
Substitution2: "Ubuntu-Regular-'case' Case-Sensitive Forms lookup 18 subtable" Hyphen
EndChar

StartChar: period
Encoding: 46 46 79
Width: 503
GlyphClass: 1
Flags: W
LayerCount: 2
Fore
SplineSet
389 111 m 256
 389 74.3333333333 376.666666667 42.1666666667 352 14.5 c 128
 327.333333333 -13.1666666667 294 -27 252 -27 c 256
 210 -27 176.666666667 -13.3333333333 152 14 c 128
 127.333333333 41.3333333333 115 73.6666666667 115 111 c 0
 115 147.666666667 127.166666667 179.666666667 151.5 207 c 128
 175.833333333 234.333333333 209.333333333 248 252 248 c 0
 294 248 327.333333333 234.333333333 352 207 c 128
 376.666666667 179.666666667 389 147.666666667 389 111 c 256
EndSplineSet
Validated: 524289
EndChar

StartChar: slash
Encoding: 47 47 80
Width: 786
GlyphClass: 1
Flags: W
LayerCount: 2
Fore
SplineSet
145 -379 m 1
 -49 -379 l 1
 645 1604 l 1
 836 1604 l 1
 145 -379 l 1
EndSplineSet
Validated: 1
Substitution2: "Ubuntu-Regular-'case' Case-Sensitive Forms lookup 18 subtable" Slash
Substitution2: "Ubuntu-Regular-'frac' Diagonal Fractions lookup 14 subtable" fraction
EndChar

StartChar: less
Encoding: 60 60 83
Width: 1155
GlyphClass: 1
Flags: W
LayerCount: 2
Fore
SplineSet
319 612 m 1
 1047 313 l 1
 993 156 l 1
 109 530 l 1
 109 694 l 1
 993 1069 l 1
 1047 911 l 1
 319 612 l 1
EndSplineSet
Validated: 1
EndChar

StartChar: equal
Encoding: 61 61 84
Width: 1155
GlyphClass: 1
Flags: W
LayerCount: 2
Fore
SplineSet
109 475 m 1
 1047 475 l 1
 1047 313 l 1
 109 313 l 1
 109 475 l 1
109 911 m 1
 1047 911 l 1
 1047 750 l 1
 109 750 l 1
 109 911 l 1
EndSplineSet
Validated: 1
EndChar

StartChar: greater
Encoding: 62 62 85
Width: 1155
GlyphClass: 1
Flags: W
LayerCount: 2
Fore
SplineSet
109 911 m 1
 162 1069 l 1
 1047 694 l 1
 1047 530 l 1
 162 156 l 1
 109 313 l 1
 836 612 l 1
 109 911 l 1
EndSplineSet
Validated: 1
EndChar

StartChar: question
Encoding: 63 63 86
Width: 827
GlyphClass: 1
Flags: W
LayerCount: 2
Fore
SplineSet
356 1292 m 0
 266 1292 178 1269 92 1223 c 1
 39 1370 l 1
 85.6666666667 1394.66666667 138 1414.5 196 1429.5 c 128
 254 1444.5 315.666666667 1452 381 1452 c 0
 459 1452 522.833333333 1441.5 572.5 1420.5 c 128
 622.166666667 1399.5 662 1372.5 692 1339.5 c 128
 722 1306.5 742.833333333 1269.83333333 754.5 1229.5 c 128
 766.166666667 1189.16666667 772 1150.66666667 772 1114 c 0
 772 1067.33333333 763.166666667 1026 745.5 990 c 128
 727.833333333 954 706 920.333333333 680 889 c 128
 654 857.666666667 625.333333333 827.666666667 594 799 c 128
 562.666666667 770.333333333 534 740.666666667 508 710 c 128
 482 679.333333333 460.166666667 645.833333333 442.5 609.5 c 128
 424.833333333 573.166666667 416 532.333333333 416 487 c 0
 416 477 416 477 416 465 c 128
 416 457 416.666666667 449.333333333 418 442 c 1
 258 442 l 1
 252.666666667 469.333333333 250 498 250 528 c 0
 250 572 257.833333333 611.666666667 273.5 647 c 128
 289.166666667 682.333333333 309.333333333 715.5 334 746.5 c 128
 358.666666667 777.5 384.666666667 806.166666667 412 832.5 c 128
 439.333333333 858.833333333 465.166666667 885.666666667 489.5 913 c 128
 513.833333333 940.333333333 533.833333333 969 549.5 999 c 128
 565.166666667 1029 573 1062 573 1098 c 0
 573 1155.33333333 554.5 1202 517.5 1238 c 128
 480.5 1274 426.666666667 1292 356 1292 c 0
485 111 m 256
 485 74.3333333333 472.833333333 42.1666666667 448.5 14.5 c 128
 424.166666667 -13.1666666667 390.666666667 -27 348 -27 c 0
 306 -27 272.666666667 -13.3333333333 248 14 c 128
 223.333333333 41.3333333333 211 73.6666666667 211 111 c 0
 211 147.666666667 223.333333333 179.666666667 248 207 c 128
 272.666666667 234.333333333 306 248 348 248 c 256
 390 248 423.333333333 234.333333333 448 207 c 128
 472.666666667 179.666666667 485 147.666666667 485 111 c 256
EndSplineSet
Validated: 524289
EndChar

StartChar: at
Encoding: 64 64 87
Width: 1945
GlyphClass: 1
Flags: W
LayerCount: 2
Fore
SplineSet
1413 88 m 0
 1369 88 1332.83333333 94.1666666667 1304.5 106.5 c 128
 1276.16666667 118.833333333 1252.33333333 135.333333333 1233 156 c 1
 1203 139.333333333 1166.83333333 125.166666667 1124.5 113.5 c 128
 1082.16666667 101.833333333 1039.66666667 96 997 96 c 0
 931.666666667 96 872 106.333333333 818 127 c 128
 764 147.666666667 717.166666667 178.166666667 677.5 218.5 c 128
 637.833333333 258.833333333 607.166666667 308.333333333 585.5 367 c 128
 563.833333333 425.666666667 553 493.666666667 553 571 c 0
 553 636.333333333 563.166666667 698.166666667 583.5 756.5 c 128
 603.833333333 814.833333333 634.166666667 865.5 674.5 908.5 c 128
 714.833333333 951.5 764 985.333333333 822 1010 c 128
 880 1034.66666667 946 1047 1020 1047 c 0
 1089.33333333 1047 1153 1041.5 1211 1030.5 c 128
 1269 1019.5 1314 1008.33333333 1346 997 c 1
 1346 371 l 2
 1346 327 1353.5 296.166666667 1368.5 278.5 c 128
 1383.5 260.833333333 1403 252 1427 252 c 0
 1462.33333333 252 1493.5 264.333333333 1520.5 289 c 128
 1547.5 313.666666667 1569.5 345.666666667 1586.5 385 c 128
 1603.5 424.333333333 1616 469 1624 519 c 128
 1632 569 1636 620 1636 672 c 0
 1636 758 1621 838.833333333 1591 914.5 c 128
 1561 990.166666667 1518 1056.66666667 1462 1114 c 128
 1406 1171.33333333 1338.16666667 1216.33333333 1258.5 1249 c 128
 1178.83333333 1281.66666667 1089 1298 989 1298 c 256
 889 1298 797.5 1281.33333333 714.5 1248 c 128
 631.5 1214.66666667 560 1167 500 1105 c 128
 440 1043 393.166666667 966.833333333 359.5 876.5 c 128
 325.833333333 786.166666667 309 683.666666667 309 569 c 0
 309 449 326.833333333 343.666666667 362.5 253 c 128
 398.166666667 162.333333333 447.666666667 86.5 511 25.5 c 128
 574.333333333 -35.5 649.333333333 -81.3333333333 736 -112 c 128
 822.666666667 -142.666666667 918 -158 1022 -158 c 0
 1102.66666667 -158 1169.16666667 -153.166666667 1221.5 -143.5 c 128
 1273.83333333 -133.833333333 1307.66666667 -126.333333333 1323 -121 c 1
 1343 -272 l 1
 1319.66666667 -280 1277.66666667 -288.833333333 1217 -298.5 c 128
 1156.33333333 -308.166666667 1091.33333333 -313 1022 -313 c 0
 900.666666667 -313 786 -295.666666667 678 -261 c 128
 570 -226.333333333 475.666666667 -173.166666667 395 -101.5 c 128
 314.333333333 -29.8333333333 250.5 61.6666666667 203.5 173 c 128
 156.5 284.333333333 133 416.333333333 133 569 c 0
 133 716.333333333 156.166666667 845.333333333 202.5 956 c 128
 248.833333333 1066.66666667 311.333333333 1158.5 390 1231.5 c 128
 468.666666667 1304.5 559.5 1359.5 662.5 1396.5 c 128
 765.5 1433.5 874.333333333 1452 989 1452 c 0
 1101 1452 1206.83333333 1433.83333333 1306.5 1397.5 c 128
 1406.16666667 1361.16666667 1493.5 1308.66666667 1568.5 1240 c 128
 1643.5 1171.33333333 1702.83333333 1088.16666667 1746.5 990.5 c 128
 1790.16666667 892.833333333 1812 782.333333333 1812 659 c 0
 1812 566.333333333 1801.5 484.5 1780.5 413.5 c 128
 1759.5 342.5 1731.16666667 282.833333333 1695.5 234.5 c 128
 1659.83333333 186.166666667 1617.5 149.666666667 1568.5 125 c 128
 1519.5 100.333333333 1467.66666667 88 1413 88 c 0
1004 254 m 0
 1032.66666667 254 1061.66666667 257 1091 263 c 128
 1120.33333333 269 1146.33333333 278.333333333 1169 291 c 1
 1165 309 1162.33333333 326.833333333 1161 344.5 c 128
 1159.66666667 362.166666667 1159 379 1159 395 c 2
 1159 877 l 1
 1151 879.666666667 1135.33333333 882.333333333 1112 885 c 128
 1088.66666667 887.666666667 1062.66666667 889 1034 889 c 0
 937.333333333 889 865 859 817 799 c 128
 769 739 745 663 745 571 c 0
 745 474.333333333 768.333333333 397.333333333 815 340 c 128
 861.666666667 282.666666667 924.666666667 254 1004 254 c 0
EndSplineSet
Validated: 524289
Substitution2: "Ubuntu-Regular-'case' Case-Sensitive Forms lookup 18 subtable" At
EndChar

StartChar: bracketleft
Encoding: 91 91 88
Width: 673
GlyphClass: 1
Flags: W
LayerCount: 2
Fore
SplineSet
197 1604 m 1
 657 1604 l 1
 657 1454 l 1
 375 1454 l 1
 375 -229 l 1
 657 -229 l 1
 657 -379 l 1
 197 -379 l 1
 197 1604 l 1
EndSplineSet
Validated: 1
Substitution2: "Ubuntu-Regular-'case' Case-Sensitive Forms lookup 18 subtable" Bracketleft
EndChar

StartChar: backslash
Encoding: 92 92 89
Width: 786
GlyphClass: 1
Flags: W
LayerCount: 2
Fore
SplineSet
-49 1604 m 1
 141 1604 l 1
 836 -379 l 1
 641 -379 l 1
 -49 1604 l 1
EndSplineSet
Validated: 1
Substitution2: "Ubuntu-Regular-'case' Case-Sensitive Forms lookup 18 subtable" Backslash
EndChar

StartChar: bracketright
Encoding: 93 93 90
Width: 673
GlyphClass: 1
Flags: W
LayerCount: 2
Fore
SplineSet
477 -379 m 1
 16 -379 l 1
 16 -229 l 1
 299 -229 l 1
 299 1454 l 1
 16 1454 l 1
 16 1604 l 1
 477 1604 l 1
 477 -379 l 1
EndSplineSet
Validated: 1
Substitution2: "Ubuntu-Regular-'case' Case-Sensitive Forms lookup 18 subtable" Bracketright
EndChar

StartChar: asciicircum
Encoding: 94 94 91
Width: 1155
GlyphClass: 1
Flags: W
LayerCount: 2
Fore
SplineSet
662 1419 m 1
 1059 723 l 1
 907 645 l 1
 578 1223 l 1
 248 645 l 1
 96 723 l 1
 494 1419 l 1
 662 1419 l 1
EndSplineSet
Validated: 1
EndChar

StartChar: underscore
Encoding: 95 95 92
Width: 1007
GlyphClass: 1
Flags: W
LayerCount: 2
Fore
SplineSet
-8 -217 m 1
 1016 -217 l 1
 1016 -379 l 1
 -8 -379 l 1
 -8 -217 l 1
EndSplineSet
Validated: 1
EndChar

StartChar: grave
Encoding: 96 96 93
Width: 770
GlyphClass: 1
Flags: W
LayerCount: 2
Fore
SplineSet
248 1589 m 1
 510 1274 l 1
 414 1188 l 1
 125 1468 l 1
 248 1589 l 1
EndSplineSet
Validated: 1
EndChar

StartChar: braceleft
Encoding: 123 123 94
Width: 681
GlyphClass: 1
Flags: W
LayerCount: 2
Fore
SplineSet
82 686 m 1
 114.666666667 686 142.666666667 691.833333333 166 703.5 c 128
 189.333333333 715.166666667 208.833333333 730.166666667 224.5 748.5 c 128
 240.166666667 766.833333333 251.666666667 788 259 812 c 128
 266.333333333 836 270 860.333333333 270 885 c 2
 270 1253 l 2
 270 1309 276.166666667 1358.83333333 288.5 1402.5 c 128
 300.833333333 1446.16666667 322 1482.66666667 352 1512 c 128
 382 1541.33333333 422 1564 472 1580 c 128
 522 1596 583.666666667 1604 657 1604 c 2
 666 1604 l 1
 666 1454 l 1
 588 1454 532.333333333 1440 499 1412 c 128
 465.666666667 1384 449 1330.33333333 449 1251 c 2
 449 936 l 2
 449 846 437 776.333333333 413 727 c 128
 389 677.666666667 355 639.333333333 311 612 c 1
 355 584.666666667 389 546.5 413 497.5 c 128
 437 448.5 449 379 449 289 c 2
 449 -27 l 2
 449 -106.333333333 465.666666667 -159.833333333 499 -187.5 c 128
 532.333333333 -215.166666667 588 -229 666 -229 c 1
 666 -379 l 1
 657 -379 l 2
 583 -379 521.166666667 -371.5 471.5 -356.5 c 128
 421.833333333 -341.5 382 -319 352 -289 c 128
 322 -259 300.833333333 -222.166666667 288.5 -178.5 c 128
 276.166666667 -134.833333333 270 -85 270 -29 c 2
 270 340 l 2
 270 364.666666667 266.333333333 389 259 413 c 128
 251.666666667 437 240.166666667 458.166666667 224.5 476.5 c 128
 208.833333333 494.833333333 189.333333333 509.833333333 166 521.5 c 128
 142.666666667 533.166666667 114.666666667 539 82 539 c 1
 82 686 l 1
EndSplineSet
Validated: 524289
Substitution2: "Ubuntu-Regular-'case' Case-Sensitive Forms lookup 18 subtable" Braceleft
EndChar

StartChar: bar
Encoding: 124 124 95
Width: 571
GlyphClass: 1
Flags: W
LayerCount: 2
Fore
SplineSet
197 1604 m 1
 375 1604 l 1
 375 -379 l 1
 197 -379 l 1
 197 1604 l 1
EndSplineSet
Validated: 1
EndChar

StartChar: braceright
Encoding: 125 125 96
Width: 681
GlyphClass: 1
Flags: W
LayerCount: 2
Fore
SplineSet
600 539 m 1
 567.333333333 539 539.333333333 533.166666667 516 521.5 c 128
 492.666666667 509.833333333 473.166666667 494.833333333 457.5 476.5 c 128
 441.833333333 458.166666667 430.333333333 437 423 413 c 128
 415.666666667 389 412 364.666666667 412 340 c 2
 412 -29 l 2
 412 -85 405.833333333 -134.833333333 393.5 -178.5 c 128
 381.166666667 -222.166666667 360 -259 330 -289 c 128
 300 -319 260 -341.5 210 -356.5 c 128
 160 -371.5 98.3333333333 -379 25 -379 c 2
 16 -379 l 1
 16 -229 l 1
 94 -229 149.666666667 -215 183 -187 c 128
 216.333333333 -159 233 -105.666666667 233 -27 c 2
 233 289 l 2
 233 379 245 448.5 269 497.5 c 128
 293 546.5 327 584.666666667 371 612 c 1
 327 639.333333333 293 677.666666667 269 727 c 128
 245 776.333333333 233 846 233 936 c 2
 233 1251 l 2
 233 1330.33333333 216.333333333 1384 183 1412 c 128
 149.666666667 1440 94 1454 16 1454 c 1
 16 1604 l 1
 25 1604 l 2
 99 1604 160.833333333 1596 210.5 1580 c 128
 260.166666667 1564 300 1541.33333333 330 1512 c 128
 360 1482.66666667 381.166666667 1446.16666667 393.5 1402.5 c 128
 405.833333333 1358.83333333 412 1309 412 1253 c 2
 412 885 l 2
 412 860.333333333 415.666666667 836 423 812 c 128
 430.333333333 788 441.833333333 766.833333333 457.5 748.5 c 128
 473.166666667 730.166666667 492.666666667 715.166666667 516 703.5 c 128
 539.333333333 691.833333333 567.333333333 686 600 686 c 1
 600 539 l 1
EndSplineSet
Validated: 524289
Substitution2: "Ubuntu-Regular-'case' Case-Sensitive Forms lookup 18 subtable" Braceright
EndChar

StartChar: asciitilde
Encoding: 126 126 97
Width: 1155
GlyphClass: 1
Flags: W
LayerCount: 2
Fore
SplineSet
1065 731 m 1
 1059.66666667 703.666666667 1051.16666667 673.666666667 1039.5 641 c 128
 1027.83333333 608.333333333 1011 577.333333333 989 548 c 128
 967 518.666666667 939.333333333 494 906 474 c 128
 872.666666667 454 832 444 784 444 c 0
 743.333333333 444 705.5 452.333333333 670.5 469 c 128
 635.5 485.666666667 602.333333333 503.333333333 571 522 c 0
 534.333333333 544 499 565.5 465 586.5 c 128
 431 607.5 394.666666667 618 356 618 c 0
 334 618 315.666666667 613 301 603 c 128
 286.333333333 593 273.5 580.166666667 262.5 564.5 c 128
 251.5 548.833333333 242.5 531.666666667 235.5 513 c 128
 228.5 494.333333333 222.333333333 476.333333333 217 459 c 1
 86 496 l 1
 91.3333333333 522 100.166666667 551.666666667 112.5 585 c 128
 124.833333333 618.333333333 141.666666667 649.666666667 163 679 c 128
 184.333333333 708.333333333 211.666666667 732.833333333 245 752.5 c 128
 278.333333333 772.166666667 319 782 367 782 c 0
 407.666666667 782 445.333333333 773.833333333 480 757.5 c 128
 514.666666667 741.166666667 548 723.666666667 580 705 c 0
 616.666666667 683 652 661.333333333 686 640 c 128
 720 618.666666667 756.333333333 608 795 608 c 0
 817 608 835.333333333 613.166666667 850 623.5 c 128
 864.666666667 633.833333333 877.5 646.833333333 888.5 662.5 c 128
 899.5 678.166666667 908.5 695.166666667 915.5 713.5 c 128
 922.5 731.833333333 928.666666667 750 934 768 c 1
 1065 731 l 1
EndSplineSet
Validated: 524289
EndChar

StartChar: exclamdown
Encoding: 161 161 99
Width: 565
GlyphClass: 1
Flags: W
LayerCount: 2
Fore
SplineSet
180 4 m 2
 180 118.666666667 184.166666667 222.833333333 192.5 316.5 c 128
 200.833333333 410.166666667 211 503.333333333 223 596 c 1
 342 596 l 1
 354 503.333333333 364.166666667 410.166666667 372.5 316.5 c 128
 380.833333333 222.833333333 385 118.666666667 385 4 c 2
 385 -379 l 1
 180 -379 l 1
 180 4 l 2
145 928 m 256
 145 964.666666667 157.333333333 996.666666667 182 1024 c 128
 206.666666667 1051.33333333 240.333333333 1065 283 1065 c 0
 325 1065 358.333333333 1051.33333333 383 1024 c 128
 407.666666667 996.666666667 420 964.666666667 420 928 c 256
 420 891.333333333 407.666666667 859.333333333 383 832 c 128
 358.333333333 804.666666667 325 791 283 791 c 256
 241 791 207.5 804.666666667 182.5 832 c 128
 157.5 859.333333333 145 891.333333333 145 928 c 256
EndSplineSet
Validated: 524289
Substitution2: "Ubuntu-Regular-'case' Case-Sensitive Forms lookup 18 subtable" Exclamdown
EndChar

StartChar: cent
Encoding: 162 162 100
Width: 1155
GlyphClass: 1
Flags: W
LayerCount: 2
Fore
SplineSet
176 596 m 256
 176 662.666666667 185.166666667 725.333333333 203.5 784 c 128
 221.833333333 842.666666667 247.833333333 895.333333333 281.5 942 c 128
 315.166666667 988.666666667 356.5 1027.66666667 405.5 1059 c 128
 454.5 1090.33333333 509.666666667 1112 571 1124 c 1
 571 1419 l 1
 741 1419 l 1
 741 1135 l 1
 820.333333333 1131 895.666666667 1115 967 1087 c 1
 924 930 l 1
 895.333333333 942 862.166666667 952.166666667 824.5 960.5 c 128
 786.833333333 968.833333333 747 973 705 973 c 0
 598.333333333 973 516.666666667 940.833333333 460 876.5 c 128
 403.333333333 812.166666667 375 718.666666667 375 596 c 0
 375 541.333333333 381.5 491.166666667 394.5 445.5 c 128
 407.5 399.833333333 428 360.666666667 456 328 c 128
 484 295.333333333 519.833333333 270 563.5 252 c 128
 607.166666667 234 660.333333333 225 723 225 c 0
 773.666666667 225 819.5 229.833333333 860.5 239.5 c 128
 901.5 249.166666667 933.333333333 258.666666667 956 268 c 1
 983 113 l 1
 963.666666667 102.333333333 930.833333333 91.8333333333 884.5 81.5 c 128
 838.166666667 71.1666666667 790.333333333 64.3333333333 741 61 c 1
 741 -223 l 1
 571 -223 l 1
 571 72 l 1
 505.666666667 84 448.5 105.333333333 399.5 136 c 128
 350.5 166.666666667 309.5 204.833333333 276.5 250.5 c 128
 243.5 296.166666667 218.5 348.5 201.5 407.5 c 128
 184.5 466.5 176 529.333333333 176 596 c 256
EndSplineSet
Validated: 524289
EndChar

StartChar: sterling
Encoding: 163 163 101
Width: 1155
GlyphClass: 1
Flags: W
LayerCount: 2
Fore
SplineSet
504 764 m 1
 891 764 l 1
 891 610 l 1
 504 610 l 1
 504 594 l 2
 504 526 501.166666667 454.333333333 495.5 379 c 128
 489.833333333 303.666666667 481.666666667 232 471 164 c 1
 1063 164 l 1
 1063 0 l 1
 256 0 l 1
 271.333333333 96.6666666667 284.666666667 193.166666667 296 289.5 c 128
 307.333333333 385.833333333 313 482.666666667 313 580 c 2
 313 610 l 1
 123 610 l 1
 123 764 l 1
 313 764 l 1
 313 934 l 2
 313 1035.33333333 323.666666667 1119 345 1185 c 128
 366.333333333 1251 396.5 1303.5 435.5 1342.5 c 128
 474.5 1381.5 521.166666667 1408.5 575.5 1423.5 c 128
 629.833333333 1438.5 690 1446 756 1446 c 0
 816 1446 866.5 1440.5 907.5 1429.5 c 128
 948.5 1418.5 988 1405.66666667 1026 1391 c 1
 979 1227 l 1
 906.333333333 1261 829.333333333 1278 748 1278 c 0
 711.333333333 1278 677.833333333 1272.5 647.5 1261.5 c 128
 617.166666667 1250.5 591.5 1232 570.5 1206 c 128
 549.5 1180 533.166666667 1145.16666667 521.5 1101.5 c 128
 509.833333333 1057.83333333 504 1003.33333333 504 938 c 2
 504 764 l 1
EndSplineSet
Validated: 524289
EndChar

StartChar: currency
Encoding: 164 164 102
Width: 1155
GlyphClass: 1
Flags: W
LayerCount: 2
Fore
SplineSet
182 711 m 0
 182 794.333333333 201.333333333 866.666666667 240 928 c 1
 90 1079 l 1
 209 1198 l 1
 360 1044 l 1
 424 1083.33333333 496.666666667 1103.33333333 578 1104 c 0
 658.666666667 1104 730.333333333 1084 793 1044 c 1
 946 1198 l 1
 1065 1079 l 1
 913 928 l 1
 932.333333333 898 947.166666667 864.833333333 957.5 828.5 c 128
 967.833333333 792.166666667 973 753 973 711 c 0
 973 667 967.833333333 627.333333333 957.5 592 c 128
 947.166666667 556.666666667 932.333333333 524 913 494 c 1
 1065 342 l 1
 946 223 l 1
 793 375 l 1
 727.666666667 337 656 317.666666667 578 317 c 0
 538.666666667 317 500.5 321.833333333 463.5 331.5 c 128
 426.5 341.166666667 392 355.666666667 360 375 c 1
 209 223 l 1
 90 342 l 1
 240 492 l 1
 201.333333333 553.333333333 182 626.333333333 182 711 c 0
819 711 m 0
 819 749 812.5 783.666666667 799.5 815 c 128
 786.5 846.333333333 769.166666667 873.333333333 747.5 896 c 128
 725.833333333 918.666666667 700.333333333 935.833333333 671 947.5 c 128
 641.666666667 959.166666667 610.666666667 965 578 965 c 256
 545.333333333 965 514.166666667 959.166666667 484.5 947.5 c 128
 454.833333333 935.833333333 429.166666667 918.666666667 407.5 896 c 128
 385.833333333 873.333333333 368.5 846.333333333 355.5 815 c 128
 342.5 783.666666667 336 749 336 711 c 0
 336 671.666666667 342.5 636.5 355.5 605.5 c 128
 368.5 574.5 385.833333333 547.833333333 407.5 525.5 c 128
 429.166666667 503.166666667 454.666666667 486.166666667 484 474.5 c 128
 513.333333333 462.833333333 544.666666667 457 578 457 c 0
 610.666666667 457 641.666666667 462.833333333 671 474.5 c 128
 700.333333333 486.166666667 725.833333333 503.166666667 747.5 525.5 c 128
 769.166666667 547.833333333 786.5 574.5 799.5 605.5 c 128
 812.5 636.5 819 671.666666667 819 711 c 0
EndSplineSet
Validated: 524289
EndChar

StartChar: yen
Encoding: 165 165 103
Width: 1155
GlyphClass: 1
Flags: W
LayerCount: 2
Fore
SplineSet
485 0 m 1
 485 217 l 1
 154 217 l 1
 154 362 l 1
 485 362 l 1
 485 571 l 1
 154 571 l 1
 154 717 l 1
 432 717 l 1
 358 837 288 956 222 1074 c 128
 156 1192 93.6666666667 1307 35 1419 c 1
 246 1419 l 1
 295.333333333 1312.33333333 348.666666667 1205.83333333 406 1099.5 c 128
 463.333333333 993.166666667 522.666666667 891 584 793 c 1
 644 891 701.666666667 993.333333333 757 1100 c 128
 812.333333333 1206.66666667 865 1313 915 1419 c 1
 1122 1419 l 1
 1062 1305.66666667 999 1190 933 1072 c 128
 867 954 797 835.666666667 723 717 c 1
 1004 717 l 1
 1004 571 l 1
 672 571 l 1
 672 362 l 1
 1004 362 l 1
 1004 217 l 1
 672 217 l 1
 672 0 l 1
 485 0 l 1
EndSplineSet
Validated: 524289
EndChar

StartChar: brokenbar
Encoding: 166 166 104
Width: 571
GlyphClass: 1
Flags: W
LayerCount: 2
Fore
SplineSet
197 406 m 1
 375 406 l 1
 375 -379 l 1
 197 -379 l 1
 197 406 l 1
197 1604 m 1
 375 1604 l 1
 375 819 l 1
 197 819 l 1
 197 1604 l 1
EndSplineSet
Validated: 1
EndChar

StartChar: section
Encoding: 167 167 105
Width: 1007
GlyphClass: 1
Flags: W
LayerCount: 2
Fore
SplineSet
139 -2 m 1
 179.666666667 -20 224.666666667 -35.1666666667 274 -47.5 c 128
 323.333333333 -59.8333333333 386.333333333 -66 463 -66 c 256
 539.666666667 -66 597.333333333 -54.6666666667 636 -32 c 128
 674.666666667 -9.33333333333 694 26.6666666667 694 76 c 0
 694 124 675.666666667 161.166666667 639 187.5 c 128
 602.333333333 213.833333333 540.333333333 242 453 272 c 0
 403.666666667 288.666666667 356.833333333 306.5 312.5 325.5 c 128
 268.166666667 344.5 229.166666667 367.666666667 195.5 395 c 128
 161.833333333 422.333333333 135.5 455.166666667 116.5 493.5 c 128
 97.5 531.833333333 88 578.333333333 88 633 c 0
 88 668.333333333 93.8333333333 701.333333333 105.5 732 c 128
 117.166666667 762.666666667 131.5 790.666666667 148.5 816 c 128
 165.5 841.333333333 185 863.166666667 207 881.5 c 128
 229 899.833333333 250 915.333333333 270 928 c 1
 236 955.333333333 209.166666667 986.666666667 189.5 1022 c 128
 169.833333333 1057.33333333 160 1098.33333333 160 1145 c 0
 160 1239 193 1313.66666667 259 1369 c 128
 325 1424.33333333 418.333333333 1452 539 1452 c 0
 608.333333333 1452 673 1445.16666667 733 1431.5 c 128
 793 1417.83333333 841 1405.66666667 877 1395 c 1
 834 1237 l 1
 801.333333333 1249 761.333333333 1261.83333333 714 1275.5 c 128
 666.666666667 1289.16666667 607.666666667 1296 537 1296 c 0
 483.666666667 1296 437.5 1284.83333333 398.5 1262.5 c 128
 359.5 1240.16666667 340 1206.33333333 340 1161 c 0
 340 1136.33333333 344.166666667 1115.5 352.5 1098.5 c 128
 360.833333333 1081.5 373.833333333 1065.83333333 391.5 1051.5 c 128
 409.166666667 1037.16666667 431.666666667 1023.83333333 459 1011.5 c 128
 486.333333333 999.166666667 519 987 557 975 c 0
 606.333333333 958.333333333 653.166666667 940.5 697.5 921.5 c 128
 741.833333333 902.5 780.666666667 879.333333333 814 852 c 128
 847.333333333 824.666666667 873.666666667 791.833333333 893 753.5 c 128
 912.333333333 715.166666667 922 668.666666667 922 614 c 0
 922 580 916.5 548 905.5 518 c 128
 894.5 488 880.833333333 460.666666667 864.5 436 c 128
 848.166666667 411.333333333 829.333333333 389.166666667 808 369.5 c 128
 786.666666667 349.833333333 765.666666667 334 745 322 c 1
 784.333333333 293.333333333 816.5 259.833333333 841.5 221.5 c 128
 866.5 183.166666667 879 138.666666667 879 88 c 0
 879 -14.6666666667 842.833333333 -92.1666666667 770.5 -144.5 c 128
 698.166666667 -196.833333333 595 -223 461 -223 c 0
 369.666666667 -223 294.166666667 -215.833333333 234.5 -201.5 c 128
 174.833333333 -187.166666667 127.333333333 -171.333333333 92 -154 c 1
 139 -2 l 1
451 836 m 0
 441.666666667 838.666666667 432.5 841.666666667 423.5 845 c 128
 414.5 848.333333333 405 852 395 856 c 1
 355.666666667 830 323.666666667 799.666666667 299 765 c 128
 274.333333333 730.333333333 262 692.333333333 262 651 c 0
 262 615.666666667 269.833333333 586 285.5 562 c 128
 301.166666667 538 323 516.833333333 351 498.5 c 128
 379 480.166666667 412.166666667 463.833333333 450.5 449.5 c 128
 488.833333333 435.166666667 530.333333333 420.666666667 575 406 c 0
 581.666666667 403.333333333 588.166666667 400.833333333 594.5 398.5 c 128
 600.833333333 396.166666667 607.333333333 393.666666667 614 391 c 1
 653.333333333 417 685.5 447 710.5 481 c 128
 735.5 515 748 553.333333333 748 596 c 0
 748 631.333333333 740 661 724 685 c 128
 708 709 686.333333333 729.833333333 659 747.5 c 128
 631.666666667 765.166666667 600.333333333 781 565 795 c 128
 529.666666667 809 491.666666667 822.666666667 451 836 c 0
EndSplineSet
Validated: 524289
EndChar

StartChar: dieresis
Encoding: 168 168 106
Width: 770
GlyphClass: 1
Flags: W
LayerCount: 2
Fore
SplineSet
190 1262 m 256
 158.666666667 1262 131.166666667 1273.16666667 107.5 1295.5 c 128
 83.8333333333 1317.83333333 72 1346.66666667 72 1382 c 256
 72 1417.33333333 83.8333333333 1446.33333333 107.5 1469 c 128
 131.166666667 1491.66666667 158.666666667 1503 190 1503 c 256
 221.333333333 1503 249 1491.83333333 273 1469.5 c 128
 297 1447.16666667 309 1418 309 1382 c 0
 309 1346.66666667 297 1317.83333333 273 1295.5 c 128
 249 1273.16666667 221.333333333 1262 190 1262 c 256
580 1262 m 256
 548.666666667 1262 521 1273.16666667 497 1295.5 c 128
 473 1317.83333333 461 1346.66666667 461 1382 c 256
 461 1417.33333333 472.833333333 1446.33333333 496.5 1469 c 128
 520.166666667 1491.66666667 548 1503 580 1503 c 0
 611.333333333 1503 638.833333333 1491.83333333 662.5 1469.5 c 128
 686.166666667 1447.16666667 698 1418 698 1382 c 0
 698 1346.66666667 686.166666667 1317.83333333 662.5 1295.5 c 128
 638.833333333 1273.16666667 611.333333333 1262 580 1262 c 256
EndSplineSet
Validated: 524289
EndChar

StartChar: copyright
Encoding: 169 169 107
Width: 1667
GlyphClass: 1
Flags: W
LayerCount: 2
Fore
SplineSet
1534 711 m 256
 1534 595 1514.83333333 490.833333333 1476.5 398.5 c 128
 1438.16666667 306.166666667 1387 228.333333333 1323 165 c 128
 1259 101.666666667 1184.66666667 53.1666666667 1100 19.5 c 128
 1015.33333333 -14.1666666667 926.666666667 -31 834 -31 c 256
 741.333333333 -31 652.5 -14.1666666667 567.5 19.5 c 128
 482.5 53.1666666667 408 101.666666667 344 165 c 128
 280 228.333333333 228.833333333 306.166666667 190.5 398.5 c 128
 152.166666667 490.833333333 133 595 133 711 c 256
 133 827 152.166666667 931 190.5 1023 c 128
 228.833333333 1115 280 1192.83333333 344 1256.5 c 128
 408 1320.16666667 482.333333333 1368.66666667 567 1402 c 128
 651.666666667 1435.33333333 740.666666667 1452 834 1452 c 0
 926.666666667 1452 1015.33333333 1435.33333333 1100 1402 c 128
 1184.66666667 1368.66666667 1259 1320.16666667 1323 1256.5 c 128
 1387 1192.83333333 1438.16666667 1115 1476.5 1023 c 128
 1514.83333333 931 1534 827 1534 711 c 256
1384 711 m 256
 1384 801 1370.5 883.166666667 1343.5 957.5 c 128
 1316.5 1031.83333333 1278.66666667 1095.66666667 1230 1149 c 128
 1181.33333333 1202.33333333 1123.16666667 1243.33333333 1055.5 1272 c 128
 987.833333333 1300.66666667 914 1315 834 1315 c 0
 753.333333333 1315 679.166666667 1300.66666667 611.5 1272 c 128
 543.833333333 1243.33333333 485.833333333 1202.33333333 437.5 1149 c 128
 389.166666667 1095.66666667 351.333333333 1031.83333333 324 957.5 c 128
 296.666666667 883.166666667 283 801 283 711 c 256
 283 621 296.666666667 538.666666667 324 464 c 128
 351.333333333 389.333333333 389.166666667 325.5 437.5 272.5 c 128
 485.833333333 219.5 543.833333333 178.5 611.5 149.5 c 128
 679.166666667 120.5 753.333333333 106 834 106 c 256
 914.666666667 106 988.666666667 120.5 1056 149.5 c 128
 1123.33333333 178.5 1181.33333333 219.5 1230 272.5 c 128
 1278.66666667 325.5 1316.5 389.333333333 1343.5 464 c 128
 1370.5 538.666666667 1384 621 1384 711 c 256
858 287 m 0
 799.333333333 287 746.166666667 296.5 698.5 315.5 c 128
 650.833333333 334.5 609.5 361.833333333 574.5 397.5 c 128
 539.5 433.166666667 512.5 477.166666667 493.5 529.5 c 128
 474.5 581.833333333 465 642.333333333 465 711 c 0
 465 777.666666667 475.5 837 496.5 889 c 128
 517.5 941 545.833333333 985 581.5 1021 c 128
 617.166666667 1057 658.833333333 1084.66666667 706.5 1104 c 128
 754.166666667 1123.33333333 804.666666667 1133 858 1133 c 0
 893.333333333 1133 925.666666667 1130.16666667 955 1124.5 c 128
 984.333333333 1118.83333333 1010 1112.33333333 1032 1105 c 128
 1054 1097.66666667 1072.16666667 1090.16666667 1086.5 1082.5 c 128
 1100.83333333 1074.83333333 1110.66666667 1069 1116 1065 c 1
 1069 942 l 1
 1052.33333333 951.333333333 1026 962.5 990 975.5 c 128
 954 988.5 912 995 864 995 c 0
 794.666666667 995 736.833333333 970.833333333 690.5 922.5 c 128
 644.166666667 874.166666667 621 803.666666667 621 711 c 0
 621 626.333333333 642.166666667 557 684.5 503 c 128
 726.833333333 449 788.666666667 422 870 422 c 0
 923.333333333 422 967.5 427.833333333 1002.5 439.5 c 128
 1037.5 451.166666667 1064.33333333 461.666666667 1083 471 c 1
 1122 348 l 1
 1115.33333333 344 1104.16666667 338.166666667 1088.5 330.5 c 128
 1072.83333333 322.833333333 1053.33333333 316 1030 310 c 128
 1006.66666667 304 980.333333333 298.666666667 951 294 c 128
 921.666666667 289.333333333 890.666666667 287 858 287 c 0
EndSplineSet
Validated: 524289
EndChar

StartChar: ordfeminine
Encoding: 170 170 108
Width: 796
GlyphClass: 1
Flags: W
LayerCount: 2
Fore
SplineSet
401 801 m 0
 431 801 461.166666667 801.666666667 491.5 803 c 128
 521.833333333 804.333333333 540.333333333 806.333333333 547 809 c 1
 547 1014 l 1
 531.666666667 1016.66666667 512.5 1018.66666667 489.5 1020 c 128
 466.5 1021.33333333 444 1022 422 1022 c 0
 398.666666667 1022 375 1020.66666667 351 1018 c 128
 327 1015.33333333 305.5 1009.83333333 286.5 1001.5 c 128
 267.5 993.166666667 251.833333333 981.833333333 239.5 967.5 c 128
 227.166666667 953.166666667 221 935 221 913 c 0
 221 872.333333333 237 843.5 269 826.5 c 128
 301 809.5 345 801 401 801 c 0
387 1446 m 0
 443 1446 490.166666667 1439.16666667 528.5 1425.5 c 128
 566.833333333 1411.83333333 597.833333333 1392.66666667 621.5 1368 c 128
 645.166666667 1343.33333333 662.166666667 1313.66666667 672.5 1279 c 128
 682.833333333 1244.33333333 688 1205 688 1161 c 2
 688 702 l 1
 655.333333333 695.333333333 611 689 555 683 c 128
 499 677 443 674 387 674 c 0
 341.666666667 674 300.333333333 678.333333333 263 687 c 128
 225.666666667 695.666666667 193.333333333 709.666666667 166 729 c 128
 138.666666667 748.333333333 117.166666667 773 101.5 803 c 128
 85.8333333333 833 78 869.666666667 78 913 c 0
 78 955 86.8333333333 991.166666667 104.5 1021.5 c 128
 122.166666667 1051.83333333 146 1076.16666667 176 1094.5 c 128
 206 1112.83333333 240.833333333 1126.16666667 280.5 1134.5 c 128
 320.166666667 1142.83333333 362 1147 406 1147 c 0
 425.333333333 1147 446.5 1146.33333333 469.5 1145 c 128
 492.5 1143.66666667 518.333333333 1141 547 1137 c 1
 547 1143 l 2
 547 1163.66666667 545 1184.16666667 541 1204.5 c 128
 537 1224.83333333 528.833333333 1242.83333333 516.5 1258.5 c 128
 504.166666667 1274.16666667 487 1287.16666667 465 1297.5 c 128
 443 1307.83333333 414.333333333 1313 379 1313 c 0
 347.666666667 1313 313.166666667 1310.83333333 275.5 1306.5 c 128
 237.833333333 1302.16666667 205.333333333 1295.33333333 178 1286 c 1
 158 1415 l 1
 184 1421.66666667 217.666666667 1428.5 259 1435.5 c 128
 300.333333333 1442.5 343 1446 387 1446 c 0
EndSplineSet
Validated: 524289
EndChar

StartChar: logicalnot
Encoding: 172 172 110
Width: 1155
GlyphClass: 1
Flags: W
LayerCount: 2
Fore
SplineSet
1047 807 m 1
 1047 109 l 1
 883 109 l 1
 883 645 l 1
 109 645 l 1
 109 807 l 1
 1047 807 l 1
EndSplineSet
Validated: 1
EndChar

StartChar: registered
Encoding: 174 174 112
Width: 1667
GlyphClass: 1
Flags: W
LayerCount: 2
Fore
SplineSet
1534 711 m 256
 1534 595 1514.83333333 490.833333333 1476.5 398.5 c 128
 1438.16666667 306.166666667 1387 228.333333333 1323 165 c 128
 1259 101.666666667 1184.66666667 53.1666666667 1100 19.5 c 128
 1015.33333333 -14.1666666667 926.666666667 -31 834 -31 c 256
 741.333333333 -31 652.5 -14.1666666667 567.5 19.5 c 128
 482.5 53.1666666667 408 101.666666667 344 165 c 128
 280 228.333333333 228.833333333 306.166666667 190.5 398.5 c 128
 152.166666667 490.833333333 133 595 133 711 c 256
 133 827 152.166666667 931 190.5 1023 c 128
 228.833333333 1115 280 1192.83333333 344 1256.5 c 128
 408 1320.16666667 482.333333333 1368.66666667 567 1402 c 128
 651.666666667 1435.33333333 740.666666667 1452 834 1452 c 0
 926.666666667 1452 1015.33333333 1435.33333333 1100 1402 c 128
 1184.66666667 1368.66666667 1259 1320.16666667 1323 1256.5 c 128
 1387 1192.83333333 1438.16666667 1115 1476.5 1023 c 128
 1514.83333333 931 1534 827 1534 711 c 256
1384 711 m 256
 1384 801 1370.5 883.166666667 1343.5 957.5 c 128
 1316.5 1031.83333333 1278.66666667 1095.66666667 1230 1149 c 128
 1181.33333333 1202.33333333 1123.16666667 1243.33333333 1055.5 1272 c 128
 987.833333333 1300.66666667 914 1315 834 1315 c 0
 753.333333333 1315 679.166666667 1300.66666667 611.5 1272 c 128
 543.833333333 1243.33333333 485.833333333 1202.33333333 437.5 1149 c 128
 389.166666667 1095.66666667 351.333333333 1031.83333333 324 957.5 c 128
 296.666666667 883.166666667 283 801 283 711 c 256
 283 621 296.666666667 538.666666667 324 464 c 128
 351.333333333 389.333333333 389.166666667 325.5 437.5 272.5 c 128
 485.833333333 219.5 543.833333333 178.5 611.5 149.5 c 128
 679.166666667 120.5 753.333333333 106 834 106 c 256
 914.666666667 106 988.666666667 120.5 1056 149.5 c 128
 1123.33333333 178.5 1181.33333333 219.5 1230 272.5 c 128
 1278.66666667 325.5 1316.5 389.333333333 1343.5 464 c 128
 1370.5 538.666666667 1384 621 1384 711 c 256
1036 303 m 1
 1004.66666667 364.333333333 969.5 422.666666667 930.5 478 c 128
 891.5 533.333333333 857.666666667 577.333333333 829 610 c 1
 692 610 l 1
 692 303 l 1
 547 303 l 1
 547 1098 l 1
 583.666666667 1106 622.5 1112 663.5 1116 c 128
 704.5 1120 742 1122 776 1122 c 0
 893.333333333 1122 982.833333333 1100.16666667 1044.5 1056.5 c 128
 1106.16666667 1012.83333333 1137 946.666666667 1137 858 c 0
 1137 807.333333333 1123.66666667 763.333333333 1097 726 c 128
 1070.33333333 688.666666667 1032.33333333 659.666666667 983 639 c 1
 996.333333333 622.333333333 1012 601.833333333 1030 577.5 c 128
 1048 553.166666667 1066.5 526 1085.5 496 c 128
 1104.5 466 1123.5 434.5 1142.5 401.5 c 128
 1161.5 368.5 1178.66666667 335.666666667 1194 303 c 1
 1036 303 l 1
692 729 m 1
 770 729 l 2
 831.333333333 729 882.5 737.5 923.5 754.5 c 128
 964.5 771.5 985 806.666666667 985 860 c 0
 985 910.666666667 965.5 945.833333333 926.5 965.5 c 128
 887.5 985.166666667 840.666666667 995 786 995 c 0
 770.666666667 995 755 994.666666667 739 994 c 128
 723 993.333333333 707.333333333 992.333333333 692 991 c 1
 692 729 l 1
EndSplineSet
Validated: 524289
EndChar

StartChar: macron
Encoding: 175 175 113
Width: 770
GlyphClass: 1
Flags: W
LayerCount: 2
Fore
SplineSet
94 1456 m 1
 676 1456 l 1
 676 1309 l 1
 94 1309 l 1
 94 1456 l 1
EndSplineSet
Validated: 1
EndChar

StartChar: degree
Encoding: 176 176 114
Width: 679
GlyphClass: 1
Flags: W
LayerCount: 2
Fore
SplineSet
627 1305 m 256
 627 1261 619.166666667 1221.33333333 603.5 1186 c 128
 587.833333333 1150.66666667 567 1120.66666667 541 1096 c 128
 515 1071.33333333 484.5 1052.5 449.5 1039.5 c 128
 414.5 1026.5 378 1020 340 1020 c 256
 302 1020 265.5 1026.5 230.5 1039.5 c 128
 195.5 1052.5 165 1071.33333333 139 1096 c 128
 113 1120.66666667 92.1666666667 1150.66666667 76.5 1186 c 128
 60.8333333333 1221.33333333 53 1261 53 1305 c 256
 53 1349 60.8333333333 1388.66666667 76.5 1424 c 128
 92.1666666667 1459.33333333 113 1489.16666667 139 1513.5 c 128
 165 1537.83333333 195.5 1556.5 230.5 1569.5 c 128
 265.5 1582.5 302 1589 340 1589 c 256
 378 1589 414.5 1582.5 449.5 1569.5 c 128
 484.5 1556.5 515 1537.83333333 541 1513.5 c 128
 567 1489.16666667 587.833333333 1459.33333333 603.5 1424 c 128
 619.166666667 1388.66666667 627 1349 627 1305 c 256
489 1305 m 256
 489 1353 474.333333333 1390.83333333 445 1418.5 c 128
 415.666666667 1446.16666667 380.666666667 1460 340 1460 c 256
 299.333333333 1460 264.166666667 1446 234.5 1418 c 128
 204.833333333 1390 190 1352.33333333 190 1305 c 0
 190 1257 204.833333333 1219 234.5 1191 c 128
 264.166666667 1163 299.333333333 1149 340 1149 c 256
 380.666666667 1149 415.666666667 1163 445 1191 c 128
 474.333333333 1219 489 1257 489 1305 c 256
EndSplineSet
Validated: 524289
EndChar

StartChar: plusminus
Encoding: 177 177 115
Width: 1155
GlyphClass: 1
Flags: W
LayerCount: 2
Fore
SplineSet
109 858 m 1
 496 858 l 1
 496 1270 l 1
 659 1270 l 1
 659 858 l 1
 1047 858 l 1
 1047 696 l 1
 659 696 l 1
 659 285 l 1
 496 285 l 1
 496 696 l 1
 109 696 l 1
 109 858 l 1
109 162 m 1
 1047 162 l 1
 1047 0 l 1
 109 0 l 1
 109 162 l 1
EndSplineSet
Validated: 1
EndChar

StartChar: twosuperior
Encoding: 178 178 116
Width: 735
GlyphClass: 1
Flags: W
LayerCount: 2
Fore
SplineSet
606 1225 m 0
 606 1196.33333333 599.5 1168.33333333 586.5 1141 c 128
 573.5 1113.66666667 556.166666667 1086.66666667 534.5 1060 c 128
 512.833333333 1033.33333333 487.666666667 1006.66666667 459 980 c 128
 430.333333333 953.333333333 399.666666667 925.666666667 367 897 c 0
 343.666666667 877.666666667 320.666666667 856.833333333 298 834.5 c 128
 275.333333333 812.166666667 262 792 258 774 c 1
 639 774 l 1
 639 645 l 1
 94 645 l 1
 90 690.333333333 93.1666666667 730.333333333 103.5 765 c 128
 113.833333333 799.666666667 128.833333333 831.333333333 148.5 860 c 128
 168.166666667 888.666666667 191 915 217 939 c 128
 243 963 270.333333333 987.333333333 299 1012 c 0
 345.666666667 1051.33333333 383.666666667 1087.66666667 413 1121 c 128
 442.333333333 1154.33333333 457 1187.66666667 457 1221 c 0
 457 1256.33333333 445.666666667 1282.16666667 423 1298.5 c 128
 400.333333333 1314.83333333 369.333333333 1323 330 1323 c 0
 306.666666667 1323 284.666666667 1320 264 1314 c 128
 243.333333333 1308 224.833333333 1300.5 208.5 1291.5 c 128
 192.166666667 1282.5 177.5 1273.5 164.5 1264.5 c 128
 151.5 1255.5 141.666666667 1248.33333333 135 1243 c 1
 61 1343 l 1
 84.3333333333 1367.66666667 119.666666667 1392 167 1416 c 128
 214.333333333 1440 268.666666667 1452 330 1452 c 0
 424 1452 493.5 1432.33333333 538.5 1393 c 128
 583.5 1353.66666667 606 1297.66666667 606 1225 c 0
EndSplineSet
Validated: 524321
Substitution2: "Ubuntu-Regular-Single Substitution lookup 26 subtable" twoinferior
Substitution2: "Ubuntu-Regular-'sinf' Scientific Inferiors lookup 13 subtable" two.sinf
Substitution2: "Ubuntu-Regular-'subs' Subscript lookup 12 subtable" two.sinf
Substitution2: "Ubuntu-Regular-'sups' Superscript lookup 11 subtable" two.sups
Substitution2: "Ubuntu-Regular-'dnom' Denominators lookup 10 subtable" twoinferior
EndChar

StartChar: threesuperior
Encoding: 179 179 117
Width: 735
GlyphClass: 1
Flags: W
LayerCount: 2
Fore
SplineSet
295 756 m 0
 367.666666667 756 417.5 767.166666667 444.5 789.5 c 128
 471.5 811.833333333 485 841 485 877 c 0
 485 900.333333333 479 920.166666667 467 936.5 c 128
 455 952.833333333 438.333333333 966 417 976 c 128
 395.666666667 986 371.333333333 993.5 344 998.5 c 128
 316.666666667 1003.5 288.666666667 1006 260 1006 c 2
 221 1006 l 1
 221 1122 l 1
 272 1122 l 2
 291.333333333 1122 311.666666667 1123.83333333 333 1127.5 c 128
 354.333333333 1131.16666667 373.5 1137 390.5 1145 c 128
 407.5 1153 421.5 1164.16666667 432.5 1178.5 c 128
 443.5 1192.83333333 449 1210.33333333 449 1231 c 0
 449 1265 436.333333333 1289.16666667 411 1303.5 c 128
 385.666666667 1317.83333333 353 1325 313 1325 c 0
 276.333333333 1325 242.333333333 1318.5 211 1305.5 c 128
 179.666666667 1292.5 152.333333333 1280.66666667 129 1270 c 1
 78 1382 l 1
 100 1397.33333333 133.833333333 1412.83333333 179.5 1428.5 c 128
 225.166666667 1444.16666667 271 1452 317 1452 c 0
 417 1452 487.833333333 1431.83333333 529.5 1391.5 c 128
 571.166666667 1351.16666667 592 1299.66666667 592 1237 c 0
 592 1170.33333333 554.333333333 1115.66666667 479 1073 c 1
 527 1057.66666667 565 1032.66666667 593 998 c 128
 621 963.333333333 635 922 635 874 c 0
 635 838.666666667 628.833333333 806.333333333 616.5 777 c 128
 604.166666667 747.666666667 584.333333333 721.833333333 557 699.5 c 128
 529.666666667 677.166666667 494.5 659.833333333 451.5 647.5 c 128
 408.5 635.166666667 357 629 297 629 c 0
 255 629 212 633.666666667 168 643 c 128
 124 652.333333333 90 663.333333333 66 676 c 1
 96 799 l 1
 126 788.333333333 157.833333333 778.5 191.5 769.5 c 128
 225.166666667 760.5 259.666666667 756 295 756 c 0
EndSplineSet
Validated: 524289
Substitution2: "Ubuntu-Regular-Single Substitution lookup 26 subtable" threeinferior
Substitution2: "Ubuntu-Regular-'sinf' Scientific Inferiors lookup 13 subtable" three.sinf
Substitution2: "Ubuntu-Regular-'subs' Subscript lookup 12 subtable" three.sinf
Substitution2: "Ubuntu-Regular-'sups' Superscript lookup 11 subtable" three.sups
Substitution2: "Ubuntu-Regular-'dnom' Denominators lookup 10 subtable" threeinferior
EndChar

StartChar: acute
Encoding: 180 180 118
Width: 770
GlyphClass: 1
Flags: W
LayerCount: 2
Fore
SplineSet
645 1468 m 1
 356 1188 l 1
 260 1274 l 1
 522 1589 l 1
 645 1468 l 1
EndSplineSet
Validated: 1
EndChar

StartChar: mu
Encoding: 181 181 119
Width: 1187
GlyphClass: 1
Flags: W
LayerCount: 2
Fore
SplineSet
354 1065 m 1
 354 496 l 2
 354 366 375.166666667 275 417.5 223 c 128
 459.833333333 171 528.333333333 145 623 145 c 0
 643.666666667 145 664.833333333 145.833333333 686.5 147.5 c 128
 708.166666667 149.166666667 728.5 151 747.5 153 c 128
 766.5 155 783.833333333 157 799.5 159 c 128
 815.166666667 161 826.666666667 163.333333333 834 166 c 1
 834 1065 l 1
 1024 1065 l 1
 1024 31 l 1
 980 20.3333333333 923.666666667 8.66666666667 855 -4 c 128
 786.333333333 -16.6666666667 711 -23 629 -23 c 0
 553.666666667 -23 493.833333333 -15 449.5 1 c 128
 405.166666667 17 369.333333333 40 342 70 c 1
 346 32 348.666666667 -6.5 350 -45.5 c 128
 351.333333333 -84.5 352 -125.333333333 352 -168 c 2
 352 -379 l 1
 164 -379 l 1
 164 1065 l 1
 354 1065 l 1
EndSplineSet
Validated: 524289
EndChar

StartChar: paragraph
Encoding: 182 182 120
Width: 1323
GlyphClass: 1
Flags: W
LayerCount: 2
Fore
SplineSet
791 1276 m 0
 780.333333333 1276 769.333333333 1275.66666667 758 1275 c 128
 746.666666667 1274.33333333 737 1273.33333333 729 1272 c 1
 729 -379 l 1
 569 -379 l 1
 569 537 l 1
 417.666666667 552.333333333 299.666666667 595.333333333 215 666 c 128
 130.333333333 736.666666667 88 841.666666667 88 981 c 0
 88 1056.33333333 103.333333333 1122 134 1178 c 128
 164.666666667 1234 208.666666667 1281 266 1319 c 128
 323.333333333 1357 393 1385.66666667 475 1405 c 128
 557 1424.33333333 648.666666667 1434 750 1434 c 0
 807.333333333 1434 868.666666667 1431.5 934 1426.5 c 128
 999.333333333 1421.5 1060 1412.33333333 1116 1399 c 1
 1116 -379 l 1
 956 -379 l 1
 956 1266 l 1
 936.666666667 1268.66666667 912.833333333 1271 884.5 1273 c 128
 856.166666667 1275 825 1276 791 1276 c 0
EndSplineSet
Validated: 524289
EndChar

StartChar: cedilla
Encoding: 184 184 122
Width: 770
GlyphClass: 1
Flags: W
LayerCount: 2
Fore
SplineSet
408 -76 m 1
 447.333333333 -95.3333333333 475.833333333 -116.166666667 493.5 -138.5 c 128
 511.166666667 -160.833333333 520 -194 520 -238 c 0
 520 -253.333333333 516.666666667 -269.666666667 510 -287 c 128
 503.333333333 -304.333333333 491.833333333 -320.5 475.5 -335.5 c 128
 459.166666667 -350.5 437.333333333 -362.833333333 410 -372.5 c 128
 382.666666667 -382.166666667 349 -387 309 -387 c 0
 273.666666667 -387 241.333333333 -384.333333333 212 -379 c 128
 182.666666667 -373.666666667 159 -367.333333333 141 -360 c 1
 164 -244 l 1
 180.666666667 -249.333333333 198.166666667 -254 216.5 -258 c 128
 234.833333333 -262 255.666666667 -264 279 -264 c 0
 328.333333333 -264 352.666666667 -248.333333333 352 -217 c 0
 352 -201.666666667 344.5 -189 329.5 -179 c 128
 314.5 -169 293.333333333 -158.333333333 266 -147 c 2
 252 -141 l 1
 256 -127.666666667 262.166666667 -111.833333333 270.5 -93.5 c 128
 278.833333333 -75.1666666667 287 -57 295 -39 c 128
 303 -21 310.833333333 -4.83333333333 318.5 9.5 c 128
 326.166666667 23.8333333333 332 34.3333333333 336 41 c 1
 467 41 l 1
 459 25.6666666667 448.833333333 6.5 436.5 -16.5 c 128
 424.166666667 -39.5 414.666666667 -59.3333333333 408 -76 c 1
EndSplineSet
Validated: 524321
EndChar

StartChar: onesuperior
Encoding: 185 185 123
Width: 735
GlyphClass: 1
Flags: W
LayerCount: 2
Fore
SplineSet
102 1272 m 1
 154 1290 205.333333333 1312.83333333 256 1340.5 c 128
 306.666666667 1368.16666667 350.333333333 1400 387 1436 c 1
 487 1436 l 1
 487 645 l 1
 344 645 l 1
 344 1247 l 1
 314 1227.66666667 279.5 1210.66666667 240.5 1196 c 128
 201.5 1181.33333333 168.333333333 1169.66666667 141 1161 c 1
 102 1272 l 1
EndSplineSet
Validated: 524289
Substitution2: "Ubuntu-Regular-Single Substitution lookup 26 subtable" oneinferior
Substitution2: "Ubuntu-Regular-'sinf' Scientific Inferiors lookup 13 subtable" one.sinf
Substitution2: "Ubuntu-Regular-'subs' Subscript lookup 12 subtable" one.sinf
Substitution2: "Ubuntu-Regular-'sups' Superscript lookup 11 subtable" one.sups
Substitution2: "Ubuntu-Regular-'dnom' Denominators lookup 10 subtable" oneinferior
EndChar

StartChar: ordmasculine
Encoding: 186 186 124
Width: 913
GlyphClass: 1
Flags: W
LayerCount: 2
Fore
SplineSet
825 1061 m 256
 825 1002.33333333 815.833333333 949 797.5 901 c 128
 779.166666667 853 753.666666667 812 721 778 c 128
 688.333333333 744 649.5 717.833333333 604.5 699.5 c 128
 559.5 681.166666667 510.333333333 672 457 672 c 256
 403.666666667 672 354.5 681.166666667 309.5 699.5 c 128
 264.5 717.833333333 225.5 744 192.5 778 c 128
 159.5 812 133.833333333 853 115.5 901 c 128
 97.1666666667 949 88 1002.33333333 88 1061 c 256
 88 1119.66666667 97.1666666667 1173.16666667 115.5 1221.5 c 128
 133.833333333 1269.83333333 159.5 1310.83333333 192.5 1344.5 c 128
 225.5 1378.16666667 264.5 1404.16666667 309.5 1422.5 c 128
 354.5 1440.83333333 403.666666667 1450 457 1450 c 256
 510.333333333 1450 559.5 1440.83333333 604.5 1422.5 c 128
 649.5 1404.16666667 688.333333333 1378.16666667 721 1344.5 c 128
 753.666666667 1310.83333333 779.166666667 1269.83333333 797.5 1221.5 c 128
 815.833333333 1173.16666667 825 1119.66666667 825 1061 c 256
674 1061 m 0
 674 1137.66666667 655.166666667 1198.83333333 617.5 1244.5 c 128
 579.833333333 1290.16666667 526.333333333 1313 457 1313 c 0
 389 1313 335.833333333 1290.16666667 297.5 1244.5 c 128
 259.166666667 1198.83333333 240 1137.66666667 240 1061 c 0
 240 985.666666667 258.666666667 924.833333333 296 878.5 c 128
 333.333333333 832.166666667 387 809 457 809 c 0
 526.333333333 809 579.833333333 832.166666667 617.5 878.5 c 128
 655.166666667 924.833333333 674 985.666666667 674 1061 c 0
EndSplineSet
Validated: 524289
EndChar

StartChar: questiondown
Encoding: 191 191 129
Width: 827
GlyphClass: 1
Flags: W
LayerCount: 2
Fore
SplineSet
258 -47 m 0
 258 -99 276.833333333 -141.666666667 314.5 -175 c 128
 352.166666667 -208.333333333 404.333333333 -225 471 -225 c 0
 561 -225 649 -202 735 -156 c 1
 788 -303 l 1
 741.333333333 -327.666666667 689.166666667 -347.5 631.5 -362.5 c 128
 573.833333333 -377.5 512 -385 446 -385 c 0
 372 -385 310.5 -375.5 261.5 -356.5 c 128
 212.5 -337.5 172.666666667 -313 142 -283 c 128
 111.333333333 -253 89.5 -219.166666667 76.5 -181.5 c 128
 63.5 -143.833333333 57 -106.666666667 57 -70 c 0
 57 -24.6666666667 65.6666666667 15.6666666667 83 51 c 128
 100.333333333 86.3333333333 121.833333333 120.166666667 147.5 152.5 c 128
 173.166666667 184.833333333 200.666666667 215.333333333 230 244 c 128
 259.333333333 272.666666667 287 303 313 335 c 128
 339 367 360.5 400.666666667 377.5 436 c 128
 394.5 471.333333333 403 511.666666667 403 557 c 0
 403 567 403 567 403 576.5 c 128
 403 582.833333333 402.333333333 589.333333333 401 596 c 1
 561 596 l 1
 566.333333333 568.666666667 569 542 569 516 c 0
 569 472 561.166666667 432.333333333 545.5 397 c 128
 529.833333333 361.666666667 510.833333333 328.666666667 488.5 298 c 128
 466.166666667 267.333333333 441.333333333 238.333333333 414 211 c 128
 386.666666667 183.666666667 361.666666667 156.333333333 339 129 c 128
 316.333333333 101.666666667 297.166666667 73.6666666667 281.5 45 c 128
 265.833333333 16.3333333333 258 -14.3333333333 258 -47 c 0
334 928 m 256
 334 964.666666667 346.333333333 996.666666667 371 1024 c 128
 395.666666667 1051.33333333 429 1065 471 1065 c 256
 513 1065 546.333333333 1051.33333333 571 1024 c 128
 595.666666667 996.666666667 608 964.666666667 608 928 c 256
 608 891.333333333 595.833333333 859.333333333 571.5 832 c 128
 547.166666667 804.666666667 513.666666667 791 471 791 c 0
 429 791 395.666666667 804.666666667 371 832 c 128
 346.333333333 859.333333333 334 891.333333333 334 928 c 256
EndSplineSet
Validated: 524289
Substitution2: "Ubuntu-Regular-'case' Case-Sensitive Forms lookup 18 subtable" Questiondown
EndChar

StartChar: Aring
Encoding: 197 197 135
Width: 1357
GlyphClass: 1
Flags: W
LayerCount: 2
Fore
SplineSet
352 365 m 1
 223 0 l 1
 16 0 l 1
 66.6666666667 139.333333333 114.5 269.333333333 159.5 390 c 128
 204.5 510.666666667 248.5 625.333333333 291.5 734 c 128
 334.5 842.666666667 376.833333333 946.166666667 418.5 1044.5 c 128
 460.166666667 1142.83333333 503.666666667 1240.33333333 549 1337 c 1
 523 1356.33333333 502.5 1380.33333333 487.5 1409 c 128
 472.5 1437.66666667 465 1471 465 1509 c 0
 465 1541.66666667 470.833333333 1570.66666667 482.5 1596 c 128
 494.166666667 1621.33333333 509.5 1643.33333333 528.5 1662 c 128
 547.5 1680.66666667 569.666666667 1694.66666667 595 1704 c 128
 620.333333333 1713.33333333 647.333333333 1718 676 1718 c 256
 704.666666667 1718 731.666666667 1713.33333333 757 1704 c 128
 782.333333333 1694.66666667 804.5 1680.66666667 823.5 1662 c 128
 842.5 1643.33333333 857.833333333 1621.5 869.5 1596.5 c 128
 881.166666667 1571.5 887 1542.33333333 887 1509 c 0
 887 1472.33333333 879.5 1440 864.5 1412 c 128
 849.5 1384 829.666666667 1360.33333333 805 1341 c 1
 850.333333333 1244.33333333 894 1146.5 936 1047.5 c 128
 978 948.5 1020.5 844.666666667 1063.5 736 c 128
 1106.5 627.333333333 1150.66666667 512.666666667 1196 392 c 128
 1241.33333333 271.333333333 1289.66666667 140.666666667 1341 0 c 1
 1124 0 l 1
 1100.66666667 61.3333333333 1078.83333333 122 1058.5 182 c 128
 1038.16666667 242 1017 303 995 365 c 1
 352 365 l 1
938 526 m 1
 894 644.666666667 850.5 759.666666667 807.5 871 c 128
 764.5 982.333333333 720 1089.33333333 674 1192 c 1
 626 1089.33333333 580.5 982.833333333 537.5 872.5 c 128
 494.5 762.166666667 452 646.666666667 410 526 c 1
 938 526 l 1
784 1509 m 256
 784 1544.33333333 773.5 1572 752.5 1592 c 128
 731.5 1612 706 1622 676 1622 c 256
 646 1622 620.333333333 1612.16666667 599 1592.5 c 128
 577.666666667 1572.83333333 567 1545 567 1509 c 0
 567 1473.66666667 577.666666667 1446.16666667 599 1426.5 c 128
 620.333333333 1406.83333333 646 1397 676 1397 c 256
 706 1397 731.5 1406.83333333 752.5 1426.5 c 128
 773.5 1446.16666667 784 1473.66666667 784 1509 c 256
EndSplineSet
Validated: 524289
EndChar

StartChar: AE
Encoding: 198 198 136
Width: 1914
GlyphClass: 1
Flags: W
LayerCount: 2
Fore
SplineSet
1788 1253 m 1
 1171 1253 l 1
 1171 825 l 1
 1714 825 l 1
 1714 664 l 1
 1171 664 l 1
 1171 166 l 1
 1839 166 l 1
 1839 0 l 1
 975 0 l 1
 975 365 l 1
 416 365 l 1
 383.333333333 305 350.833333333 244.5 318.5 183.5 c 128
 286.166666667 122.5 255 61.3333333333 225 0 c 1
 12 0 l 1
 90 147.333333333 166.166666667 286.166666667 240.5 416.5 c 128
 314.833333333 546.833333333 387.5 670.166666667 458.5 786.5 c 128
 529.5 902.833333333 599.5 1013.16666667 668.5 1117.5 c 128
 737.5 1221.83333333 806 1322.33333333 874 1419 c 1
 1788 1419 l 1
 1788 1253 l 1
975 1264 m 1
 902.333333333 1166 827.166666667 1054.66666667 749.5 930 c 128
 671.833333333 805.333333333 591.333333333 670.666666667 508 526 c 1
 975 526 l 1
 975 1264 l 1
EndSplineSet
Validated: 524289
EndChar

StartChar: Ccedilla
Encoding: 199 199 137
Width: 1269
GlyphClass: 1
Flags: W
LayerCount: 2
Fore
SplineSet
676 -23 m 1
 591.333333333 -12.3333333333 514.833333333 11.8333333333 446.5 49.5 c 128
 378.166666667 87.1666666667 319.833333333 137.166666667 271.5 199.5 c 128
 223.166666667 261.833333333 185.666666667 335.666666667 159 421 c 128
 132.333333333 506.333333333 119 603 119 711 c 0
 119 829.666666667 137 935 173 1027 c 128
 209 1119 257.833333333 1196.5 319.5 1259.5 c 128
 381.166666667 1322.5 452.833333333 1370.33333333 534.5 1403 c 128
 616.166666667 1435.66666667 703.666666667 1452 797 1452 c 0
 855.666666667 1452 908.5 1447.83333333 955.5 1439.5 c 128
 1002.5 1431.16666667 1043.33333333 1421.66666667 1078 1411 c 128
 1112.66666667 1400.33333333 1141 1389.5 1163 1378.5 c 128
 1185 1367.5 1200 1359.33333333 1208 1354 c 1
 1151 1190 l 1
 1139 1198 1121.33333333 1206.83333333 1098 1216.5 c 128
 1074.66666667 1226.16666667 1048.33333333 1235.83333333 1019 1245.5 c 128
 989.666666667 1255.16666667 957.5 1263 922.5 1269 c 128
 887.5 1275 852.333333333 1278 817 1278 c 0
 741.666666667 1278 674 1265 614 1239 c 128
 554 1213 502.833333333 1175.5 460.5 1126.5 c 128
 418.166666667 1077.5 385.833333333 1017.83333333 363.5 947.5 c 128
 341.166666667 877.166666667 330 798.333333333 330 711 c 0
 330 626.333333333 339.833333333 549.166666667 359.5 479.5 c 128
 379.166666667 409.833333333 408.833333333 350 448.5 300 c 128
 488.166666667 250 537.666666667 211.333333333 597 184 c 128
 656.333333333 156.666666667 725.666666667 143 805 143 c 0
 896.333333333 143 972 152.666666667 1032 172 c 128
 1092 191.333333333 1137 208.333333333 1167 223 c 1
 1219 59 l 1
 1199.66666667 43.6666666667 1153.5 25.5 1080.5 4.5 c 128
 1007.5 -16.5 915 -28.3333333333 803 -31 c 1
 799 -39 795.166666667 -46.8333333333 791.5 -54.5 c 128
 787.833333333 -62.1666666667 784.666666667 -69.3333333333 782 -76 c 1
 821.333333333 -95.3333333333 850 -116.166666667 868 -138.5 c 128
 886 -160.833333333 895 -194 895 -238 c 0
 895 -253.333333333 891.5 -269.666666667 884.5 -287 c 128
 877.5 -304.333333333 865.833333333 -320.5 849.5 -335.5 c 128
 833.166666667 -350.5 811.333333333 -362.833333333 784 -372.5 c 128
 756.666666667 -382.166666667 723.333333333 -387 684 -387 c 0
 648.666666667 -387 616.333333333 -384.333333333 587 -379 c 128
 557.666666667 -373.666666667 534 -367.333333333 516 -360 c 1
 539 -244 l 1
 555.666666667 -249.333333333 573 -254 591 -258 c 128
 609 -262 629.666666667 -264 653 -264 c 0
 702.333333333 -264 727 -248.333333333 727 -217 c 0
 727 -201.666666667 719.5 -189 704.5 -179 c 128
 689.5 -169 668.333333333 -158.333333333 641 -147 c 2
 627 -141 l 1
 632.333333333 -124.333333333 639.5 -105.333333333 648.5 -84 c 128
 657.5 -62.6666666667 666.666666667 -42.3333333333 676 -23 c 1
EndSplineSet
Validated: 524289
EndChar

StartChar: Eth
Encoding: 208 208 146
Width: 1486
GlyphClass: 1
Flags: W
LayerCount: 2
Fore
SplineSet
1368 711 m 256
 1368 588.333333333 1348.83333333 481.5 1310.5 390.5 c 128
 1272.16666667 299.5 1218.16666667 224.333333333 1148.5 165 c 128
 1078.83333333 105.666666667 995.666666667 61.3333333333 899 32 c 128
 802.333333333 2.66666666667 696 -12 580 -12 c 0
 522.666666667 -12 459.5 -9.66666666667 390.5 -5 c 128
 321.5 -0.333333333333 259 9 203 23 c 1
 203 664 l 1
 39 664 l 1
 39 817 l 1
 203 817 l 1
 203 1399 l 1
 259 1412.33333333 321.5 1421.5 390.5 1426.5 c 128
 459.5 1431.5 522.666666667 1434 580 1434 c 0
 696 1434 802.333333333 1419.33333333 899 1390 c 128
 995.666666667 1360.66666667 1078.83333333 1316.16666667 1148.5 1256.5 c 128
 1218.16666667 1196.83333333 1272.16666667 1121.66666667 1310.5 1031 c 128
 1348.83333333 940.333333333 1368 833.666666667 1368 711 c 256
596 162 m 0
 784.666666667 162 925.333333333 210.166666667 1018 306.5 c 128
 1110.66666667 402.833333333 1157 537.666666667 1157 711 c 256
 1157 884.333333333 1110.66666667 1019.16666667 1018 1115.5 c 128
 925.333333333 1211.83333333 784.666666667 1260 596 1260 c 0
 540 1260 496.666666667 1259.16666667 466 1257.5 c 128
 435.333333333 1255.83333333 413.666666667 1254.33333333 401 1253 c 1
 401 817 l 1
 668 817 l 1
 668 664 l 1
 401 664 l 1
 401 168 l 1
 413 166.666666667 434.5 165.333333333 465.5 164 c 128
 496.5 162.666666667 540 162 596 162 c 0
EndSplineSet
Validated: 524289
EndChar

StartChar: multiply
Encoding: 215 215 153
Width: 1155
GlyphClass: 1
Flags: W
LayerCount: 2
Fore
SplineSet
877 199 m 1
 578 498 l 1
 279 199 l 1
 164 313 l 1
 463 612 l 1
 164 911 l 1
 279 1026 l 1
 578 727 l 1
 877 1026 l 1
 991 911 l 1
 692 612 l 1
 991 313 l 1
 877 199 l 1
EndSplineSet
Validated: 1
EndChar

StartChar: Oslash
Encoding: 216 216 154
Width: 1593
GlyphClass: 1
Flags: W
LayerCount: 2
Fore
SplineSet
119 711 m 0
 119 832.333333333 137 939.333333333 173 1032 c 128
 209 1124.66666667 258.166666667 1202.16666667 320.5 1264.5 c 128
 382.833333333 1326.83333333 455.333333333 1373.66666667 538 1405 c 128
 620.666666667 1436.33333333 708.333333333 1452 801 1452 c 0
 945.666666667 1452 1074 1413.66666667 1186 1337 c 1
 1307 1495 l 1
 1434 1401 l 1
 1303 1231 l 1
 1356.33333333 1169.66666667 1398.33333333 1095.66666667 1429 1009 c 128
 1459.66666667 922.333333333 1475 823 1475 711 c 0
 1475 589.666666667 1456.83333333 482.5 1420.5 389.5 c 128
 1384.16666667 296.5 1335.33333333 218.833333333 1274 156.5 c 128
 1212.66666667 94.1666666667 1141.33333333 47.3333333333 1060 16 c 128
 978.666666667 -15.3333333333 892.333333333 -31 801 -31 c 0
 728.333333333 -31 659.666666667 -21.6666666667 595 -3 c 128
 530.333333333 15.6666666667 470 43.3333333333 414 80 c 1
 295 -74 l 1
 168 20 l 1
 295 184 l 1
 240.333333333 245.333333333 197.333333333 319.833333333 166 407.5 c 128
 134.666666667 495.166666667 119 596.333333333 119 711 c 0
328 711 m 0
 328 562.333333333 358 440 418 344 c 1
 1071 1190 l 1
 995.666666667 1248.66666667 904.333333333 1278 797 1278 c 0
 724.333333333 1278 659 1264.66666667 601 1238 c 128
 543 1211.33333333 493.833333333 1173.5 453.5 1124.5 c 128
 413.166666667 1075.5 382.166666667 1015.83333333 360.5 945.5 c 128
 338.833333333 875.166666667 328 797 328 711 c 0
797 143 m 0
 869.666666667 143 934.5 156.333333333 991.5 183 c 128
 1048.5 209.666666667 1097.16666667 247.666666667 1137.5 297 c 128
 1177.83333333 346.333333333 1209 406.166666667 1231 476.5 c 128
 1253 546.833333333 1264 625 1264 711 c 0
 1264 783.666666667 1256.5 849.5 1241.5 908.5 c 128
 1226.5 967.5 1205.33333333 1021 1178 1069 c 1
 526 227 l 1
 598.666666667 171 689 143 797 143 c 0
EndSplineSet
Validated: 524289
EndChar

StartChar: Thorn
Encoding: 222 222 160
Width: 1247
GlyphClass: 1
Flags: W
LayerCount: 2
Fore
SplineSet
375 455 m 1
 524 455 l 2
 592 455 653.5 459.333333333 708.5 468 c 128
 763.5 476.666666667 809.666666667 492 847 514 c 128
 884.333333333 536 913.333333333 565.333333333 934 602 c 128
 954.666666667 638.666666667 965 685.666666667 965 743 c 0
 965 797.666666667 954.333333333 843.166666667 933 879.5 c 128
 911.666666667 915.833333333 881.833333333 944.5 843.5 965.5 c 128
 805.166666667 986.5 759.5 1001.16666667 706.5 1009.5 c 128
 653.5 1017.83333333 594.666666667 1022 530 1022 c 0
 493 1022 493 1022 453.5 1022 c 128
 427.166666667 1022 401 1020.66666667 375 1018 c 1
 375 455 l 1
375 1419 m 1
 375 1188 l 1
 401 1190.66666667 428 1192.33333333 456 1193 c 128
 484 1193.66666667 511 1194 537 1194 c 0
 961.666666667 1194 1174 1043 1174 741 c 0
 1174 659 1159.16666667 589.833333333 1129.5 533.5 c 128
 1099.83333333 477.166666667 1057.5 430.833333333 1002.5 394.5 c 128
 947.5 358.166666667 880.333333333 331.833333333 801 315.5 c 128
 721.666666667 299.166666667 632 291 532 291 c 2
 375 291 l 1
 375 0 l 1
 176 0 l 1
 176 1419 l 1
 375 1419 l 1
EndSplineSet
Validated: 524289
EndChar

StartChar: germandbls
Encoding: 223 223 161
Width: 1275
GlyphClass: 1
Flags: W
LayerCount: 2
Fore
SplineSet
1020 1262 m 0
 1020 1228 1015.16666667 1197.5 1005.5 1170.5 c 128
 995.833333333 1143.5 983.833333333 1118.83333333 969.5 1096.5 c 128
 955.166666667 1074.16666667 939.5 1053.5 922.5 1034.5 c 128
 905.5 1015.5 889.333333333 997.666666667 874 981 c 0
 842.666666667 947 816.166666667 918.666666667 794.5 896 c 128
 772.833333333 873.333333333 762 845 762 811 c 0
 762 790.333333333 767.166666667 772.5 777.5 757.5 c 128
 787.833333333 742.5 801.166666667 729.5 817.5 718.5 c 128
 833.833333333 707.5 851.833333333 697.333333333 871.5 688 c 128
 891.166666667 678.666666667 911.333333333 669 932 659 c 0
 968.666666667 641 1003 621.833333333 1035 601.5 c 128
 1067 581.166666667 1095 557.833333333 1119 531.5 c 128
 1143 505.166666667 1161.5 473.833333333 1174.5 437.5 c 128
 1187.5 401.166666667 1194 357.666666667 1194 307 c 0
 1194 200.333333333 1160.83333333 118.333333333 1094.5 61 c 128
 1028.16666667 3.66666666667 925.333333333 -25 786 -25 c 0
 757.333333333 -25 728.666666667 -22.8333333333 700 -18.5 c 128
 671.333333333 -14.1666666667 644.833333333 -9 620.5 -3 c 128
 596.166666667 3 574.666666667 9.5 556 16.5 c 128
 537.333333333 23.5 524 29 516 33 c 1
 549 199 l 1
 557 195 569.5 189.5 586.5 182.5 c 128
 603.5 175.5 623.333333333 168.666666667 646 162 c 128
 668.666666667 155.333333333 693.333333333 149.5 720 144.5 c 128
 746.666666667 139.5 773.666666667 137 801 137 c 0
 869 137 919.333333333 152 952 182 c 128
 984.666666667 212 1001 252.333333333 1001 303 c 0
 1001 356.333333333 985.333333333 400 954 434 c 128
 922.666666667 468 868.333333333 503 791 539 c 0
 745.666666667 559.666666667 708.333333333 579.166666667 679 597.5 c 128
 649.666666667 615.833333333 626.833333333 634.5 610.5 653.5 c 128
 594.166666667 672.5 582.5 692.166666667 575.5 712.5 c 128
 568.5 732.833333333 565 756.666666667 565 784 c 0
 565 838.666666667 580 884.5 610 921.5 c 128
 640 958.5 672.333333333 994.666666667 707 1030 c 0
 720.333333333 1043.33333333 734.166666667 1058.33333333 748.5 1075 c 128
 762.833333333 1091.66666667 776.166666667 1108.5 788.5 1125.5 c 128
 800.833333333 1142.5 810.666666667 1159.83333333 818 1177.5 c 128
 825.333333333 1195.16666667 829 1213.66666667 829 1233 c 0
 829 1293 811.333333333 1339.66666667 776 1373 c 128
 740.666666667 1406.33333333 687.333333333 1423 616 1423 c 0
 524.666666667 1423 458.166666667 1397.16666667 416.5 1345.5 c 128
 374.833333333 1293.83333333 354 1222 354 1130 c 2
 354 0 l 1
 164 0 l 1
 164 1135 l 2
 164 1203 173.5 1265 192.5 1321 c 128
 211.5 1377 239.5 1424.83333333 276.5 1464.5 c 128
 313.5 1504.16666667 359.333333333 1534.83333333 414 1556.5 c 128
 468.666666667 1578.16666667 531.333333333 1589 602 1589 c 0
 676 1589 739.5 1580.83333333 792.5 1564.5 c 128
 845.5 1548.16666667 888.833333333 1525.33333333 922.5 1496 c 128
 956.166666667 1466.66666667 980.833333333 1432 996.5 1392 c 128
 1012.16666667 1352 1020 1308.66666667 1020 1262 c 0
EndSplineSet
Validated: 524289
EndChar

StartChar: ae
Encoding: 230 230 168
Width: 1759
GlyphClass: 1
Flags: W
LayerCount: 2
Fore
SplineSet
1255 -25 m 0
 1177 -25 1109.16666667 -15.6666666667 1051.5 3 c 128
 993.833333333 21.6666666667 943 48.6666666667 899 84 c 1
 885.666666667 74.6666666667 867.666666667 63.8333333333 845 51.5 c 128
 822.333333333 39.1666666667 795.333333333 27.1666666667 764 15.5 c 128
 732.666666667 3.83333333333 697.5 -5.83333333333 658.5 -13.5 c 128
 619.5 -21.1666666667 576.666666667 -25 530 -25 c 0
 462 -25 401 -18.8333333333 347 -6.5 c 128
 293 5.83333333333 247 25.6666666667 209 53 c 128
 171 80.3333333333 141.666666667 115.833333333 121 159.5 c 128
 100.333333333 203.166666667 90 255.666666667 90 317 c 0
 90 375.666666667 102 426.166666667 126 468.5 c 128
 150 510.833333333 182.5 545 223.5 571 c 128
 264.5 597 312.333333333 616.166666667 367 628.5 c 128
 421.666666667 640.833333333 479 647 539 647 c 0
 558.333333333 647 578.166666667 646 598.5 644 c 128
 618.833333333 642 637.833333333 639.333333333 655.5 636 c 128
 673.166666667 632.666666667 688.833333333 629.666666667 702.5 627 c 128
 716.166666667 624.333333333 725.666666667 622.333333333 731 621 c 1
 731 674 l 2
 731 705.333333333 727.666666667 736.333333333 721 767 c 128
 714.333333333 797.666666667 702 825 684 849 c 128
 666 873 641.666666667 892.166666667 611 906.5 c 128
 580.333333333 920.833333333 540.666666667 928 492 928 c 0
 429.333333333 928 374.333333333 923.5 327 914.5 c 128
 279.666666667 905.5 244.333333333 896.333333333 221 887 c 1
 199 1044 l 1
 223.666666667 1054.66666667 264.333333333 1065.33333333 321 1076 c 128
 377.666666667 1086.66666667 438.666666667 1092 504 1092 c 0
 598 1092 672.666666667 1075.83333333 728 1043.5 c 128
 783.333333333 1011.16666667 824.666666667 966.333333333 852 909 c 1
 897.333333333 970.333333333 950.666666667 1016.16666667 1012 1046.5 c 128
 1073.33333333 1076.83333333 1137.33333333 1092 1204 1092 c 0
 1346 1092 1455.66666667 1046.83333333 1533 956.5 c 128
 1610.33333333 866.166666667 1649 730.333333333 1649 549 c 0
 1649 538.333333333 1648.66666667 529.166666667 1648 521.5 c 128
 1647.33333333 513.833333333 1647 506.666666667 1647 500 c 2
 1647 481 l 1
 918 481 l 1
 926 371.666666667 958.333333333 288 1015 230 c 128
 1071.66666667 172 1158.66666667 143 1276 143 c 0
 1342.66666667 143 1398.83333333 148.833333333 1444.5 160.5 c 128
 1490.16666667 172.166666667 1524.66666667 183.666666667 1548 195 c 1
 1575 35 l 1
 1551.66666667 23 1511 10 1453 -4 c 128
 1395 -18 1329 -25 1255 -25 c 0
535 137 m 0
 605.666666667 137 661.5 144.833333333 702.5 160.5 c 128
 743.5 176.166666667 775 191.666666667 797 207 c 1
 776.333333333 245 760.166666667 285.833333333 748.5 329.5 c 128
 736.833333333 373.166666667 730.333333333 419.666666667 729 469 c 1
 713.666666667 475.666666667 691.833333333 481.5 663.5 486.5 c 128
 635.166666667 491.5 599 494 555 494 c 0
 526.333333333 494 496 491.833333333 464 487.5 c 128
 432 483.166666667 402.666666667 474.5 376 461.5 c 128
 349.333333333 448.5 327.166666667 430.833333333 309.5 408.5 c 128
 291.833333333 386.166666667 283 356.333333333 283 319 c 0
 283 249.666666667 305.166666667 202 349.5 176 c 128
 393.833333333 150 455.666666667 137 535 137 c 0
1450 635 m 1
 1451.33333333 721 1429.83333333 791.666666667 1385.5 847 c 128
 1341.16666667 902.333333333 1280 930 1202 930 c 0
 1158 930 1119.33333333 921.5 1086 904.5 c 128
 1052.66666667 887.5 1024.83333333 865.333333333 1002.5 838 c 128
 980.166666667 810.666666667 962.166666667 779.166666667 948.5 743.5 c 128
 934.833333333 707.833333333 926 671.666666667 922 635 c 1
 1450 635 l 1
EndSplineSet
Validated: 524321
Substitution2: "Ubuntu-Regular-'case' Case-Sensitive Forms lookup 19 subtable" AE
EndChar

StartChar: ccedilla
Encoding: 231 231 169
Width: 952
GlyphClass: 1
Flags: W
LayerCount: 2
Fore
SplineSet
651 -25 m 1
 629 -76 l 1
 668.333333333 -95.3333333333 696.833333333 -116.166666667 714.5 -138.5 c 128
 732.166666667 -160.833333333 741 -194 741 -238 c 0
 741 -253.333333333 737.666666667 -269.666666667 731 -287 c 128
 724.333333333 -304.333333333 712.833333333 -320.5 696.5 -335.5 c 128
 680.166666667 -350.5 658.333333333 -362.833333333 631 -372.5 c 128
 603.666666667 -382.166666667 570 -387 530 -387 c 0
 494.666666667 -387 462.333333333 -384.333333333 433 -379 c 128
 403.666666667 -373.666666667 380 -367.333333333 362 -360 c 1
 385 -244 l 1
 401.666666667 -249.333333333 419.166666667 -254 437.5 -258 c 128
 455.833333333 -262 476.666666667 -264 500 -264 c 0
 549.333333333 -264 573.666666667 -248.333333333 573 -217 c 0
 573 -201.666666667 565.5 -189 550.5 -179 c 128
 535.5 -169 514.333333333 -158.333333333 487 -147 c 2
 473 -141 l 1
 478.333333333 -124.333333333 485.833333333 -104.5 495.5 -81.5 c 128
 505.166666667 -58.5 515.333333333 -36.6666666667 526 -16 c 1
 456.666666667 -6.66666666667 395.666666667 13.3333333333 343 44 c 128
 290.333333333 74.6666666667 246.333333333 113.833333333 211 161.5 c 128
 175.666666667 209.166666667 149 264.166666667 131 326.5 c 128
 113 388.833333333 104 456.666666667 104 530 c 0
 104 612 116 687.166666667 140 755.5 c 128
 164 823.833333333 197.833333333 883 241.5 933 c 128
 285.166666667 983 338.833333333 1022 402.5 1050 c 128
 466.166666667 1078 536.666666667 1092 614 1092 c 0
 662 1092 709.833333333 1087.83333333 757.5 1079.5 c 128
 805.166666667 1071.16666667 851 1058 895 1040 c 1
 852 879 l 1
 823.333333333 892.333333333 790.166666667 903.166666667 752.5 911.5 c 128
 714.833333333 919.833333333 675 924 633 924 c 0
 526.333333333 924 444.666666667 890.5 388 823.5 c 128
 331.333333333 756.5 303 658.666666667 303 530 c 0
 303 472.666666667 309.5 420.166666667 322.5 372.5 c 128
 335.5 324.833333333 356 284 384 250 c 128
 412 216 447.833333333 189.666666667 491.5 171 c 128
 535.166666667 152.333333333 588.333333333 143 651 143 c 0
 701.666666667 143 747.5 147.833333333 788.5 157.5 c 128
 829.5 167.166666667 861.666666667 177.333333333 885 188 c 1
 911 29 l 1
 900.333333333 23.6666666667 885.833333333 17.8333333333 867.5 11.5 c 128
 849.166666667 5.16666666667 828.333333333 -0.333333333333 805 -5 c 128
 781.666666667 -9.66666666667 756.666666667 -13.8333333333 730 -17.5 c 128
 703.333333333 -21.1666666667 677 -23.6666666667 651 -25 c 1
EndSplineSet
Validated: 524321
Substitution2: "Ubuntu-Regular-'case' Case-Sensitive Forms lookup 19 subtable" Ccedilla
EndChar

StartChar: eth
Encoding: 240 240 178
Width: 1206
GlyphClass: 1
Flags: W
LayerCount: 2
Fore
SplineSet
1155 1346 m 1
 936 1270 l 1
 980 1196 1017 1109.83333333 1047 1011.5 c 128
 1077 913.166666667 1092 800 1092 672 c 0
 1092 582 1084 495 1068 411 c 128
 1052 327 1025 252.5 987 187.5 c 128
 949 122.5 897.5 70.5 832.5 31.5 c 128
 767.5 -7.5 686 -27 588 -27 c 0
 507.333333333 -27 436.666666667 -12 376 18 c 128
 315.333333333 48 264.833333333 87.6666666667 224.5 137 c 128
 184.166666667 186.333333333 154 243 134 307 c 128
 114 371 104 438 104 508 c 0
 104 584.666666667 115.333333333 653.666666667 138 715 c 128
 160.666666667 776.333333333 192.5 828.5 233.5 871.5 c 128
 274.5 914.5 324.666666667 947.333333333 384 970 c 128
 443.333333333 992.666666667 510 1004 584 1004 c 0
 653.333333333 1004 714 993 766 971 c 128
 818 949 856.333333333 928.333333333 881 909 c 1
 864.333333333 1018.33333333 826.666666667 1119.33333333 768 1212 c 1
 522 1128 l 1
 475 1257 l 1
 684 1329 l 1
 638.666666667 1382.33333333 581.333333333 1434.33333333 512 1485 c 1
 633 1589 l 1
 663 1569.66666667 697.5 1543.33333333 736.5 1510 c 128
 775.5 1476.66666667 814.666666667 1435.33333333 854 1386 c 1
 1108 1475 l 1
 1155 1346 l 1
897 666 m 0
 897 676.666666667 896.666666667 687.5 896 698.5 c 128
 895.333333333 709.5 895 720.333333333 895 731 c 1
 848.333333333 771.666666667 799.833333333 799.666666667 749.5 815 c 128
 699.166666667 830.333333333 652 838 608 838 c 0
 552 838 504.666666667 829.333333333 466 812 c 128
 427.333333333 794.666666667 395.666666667 771 371 741 c 128
 346.333333333 711 328.166666667 676.333333333 316.5 637 c 128
 304.833333333 597.666666667 299 554.666666667 299 508 c 0
 299 458.666666667 305.166666667 411.833333333 317.5 367.5 c 128
 329.833333333 323.166666667 348 284.333333333 372 251 c 128
 396 217.666666667 426 191 462 171 c 128
 498 151 540 141 588 141 c 0
 650.666666667 141 702.166666667 156 742.5 186 c 128
 782.833333333 216 814.166666667 255.666666667 836.5 305 c 128
 858.833333333 354.333333333 874.5 410.5 883.5 473.5 c 128
 892.5 536.5 897 600.666666667 897 666 c 0
EndSplineSet
Validated: 524289
Substitution2: "Ubuntu-Regular-'case' Case-Sensitive Forms lookup 19 subtable" Eth
EndChar

StartChar: divide
Encoding: 247 247 185
Width: 1155
GlyphClass: 1
Flags: W
LayerCount: 2
Fore
SplineSet
578 92 m 256
 544 92 515 103.333333333 491 126 c 128
 467 148.666666667 455 179 455 217 c 256
 455 255 466.833333333 285.333333333 490.5 308 c 128
 514.166666667 330.666666667 543.333333333 342 578 342 c 0
 612 342 640.833333333 330.666666667 664.5 308 c 128
 688.166666667 285.333333333 700 255 700 217 c 256
 700 179 688.166666667 148.666666667 664.5 126 c 128
 640.833333333 103.333333333 612 92 578 92 c 256
578 883 m 256
 544 883 515 894.166666667 491 916.5 c 128
 467 938.833333333 455 969.333333333 455 1008 c 0
 455 1046 466.833333333 1076.33333333 490.5 1099 c 128
 514.166666667 1121.66666667 543.333333333 1133 578 1133 c 0
 612 1133 640.833333333 1121.66666667 664.5 1099 c 128
 688.166666667 1076.33333333 700 1046 700 1008 c 256
 700 970 688.166666667 939.666666667 664.5 917 c 128
 640.833333333 894.333333333 612 883 578 883 c 256
109 694 m 1
 1047 694 l 1
 1047 532 l 1
 109 532 l 1
 109 694 l 1
EndSplineSet
Validated: 524289
EndChar

StartChar: oslash
Encoding: 248 248 186
Width: 1208
GlyphClass: 1
Flags: W
LayerCount: 2
Fore
SplineSet
983 911 m 1
 1021 863 1050.66666667 807.333333333 1072 744 c 128
 1093.33333333 680.666666667 1104 610 1104 532 c 0
 1104 447.333333333 1091.66666667 371 1067 303 c 128
 1042.33333333 235 1007.83333333 176.333333333 963.5 127 c 128
 919.166666667 77.6666666667 866.333333333 39.6666666667 805 13 c 128
 743.666666667 -13.6666666667 676.666666667 -27 604 -27 c 0
 496 -27 402.666666667 1 324 57 c 1
 223 -74 l 1
 115 8 l 1
 225 152 l 1
 187 200 157.333333333 256 136 320 c 128
 114.666666667 384 104 454.666666667 104 532 c 0
 104 615.333333333 116.333333333 691.5 141 760.5 c 128
 165.666666667 829.5 200.166666667 888.666666667 244.5 938 c 128
 288.833333333 987.333333333 341.833333333 1025.33333333 403.5 1052 c 128
 465.166666667 1078.66666667 532 1092 604 1092 c 0
 657.333333333 1092 707.5 1084.5 754.5 1069.5 c 128
 801.5 1054.5 845 1033.33333333 885 1006 c 1
 985 1137 l 1
 1094 1055 l 1
 983 911 l 1
301 532 m 0
 301 443.333333333 315.333333333 368.333333333 344 307 c 1
 778 868 l 1
 728.666666667 906 670.666666667 925.333333333 604 926 c 0
 510 926 436 890.666666667 382 820 c 128
 328 749.333333333 301 653.333333333 301 532 c 0
907 532 m 0
 907 616.666666667 892 691.333333333 862 756 c 1
 430 195 l 1
 476.666666667 158.333333333 534.666666667 139.666666667 604 139 c 0
 698 139 772 174.166666667 826 244.5 c 128
 880 314.833333333 907 410.666666667 907 532 c 0
EndSplineSet
Validated: 524289
Substitution2: "Ubuntu-Regular-'case' Case-Sensitive Forms lookup 19 subtable" Oslash
EndChar

StartChar: thorn
Encoding: 254 254 192
Width: 1206
GlyphClass: 1
Flags: W
LayerCount: 2
Fore
SplineSet
903 530 m 0
 903 654 872.333333333 750 811 818 c 128
 749.666666667 886 667.666666667 920 565 920 c 0
 544.333333333 920 523.166666667 918.5 501.5 915.5 c 128
 479.833333333 912.5 459.166666667 909.333333333 439.5 906 c 128
 419.833333333 902.666666667 402.5 899 387.5 895 c 128
 372.5 891 361.333333333 887.666666667 354 885 c 1
 354 225 l 1
 377.333333333 205.666666667 410.833333333 187.166666667 454.5 169.5 c 128
 498.166666667 151.833333333 546 143 598 143 c 0
 652.666666667 143 699.5 153 738.5 173 c 128
 777.5 193 809.166666667 220.333333333 833.5 255 c 128
 857.833333333 289.666666667 875.5 330.5 886.5 377.5 c 128
 897.5 424.5 903 475.333333333 903 530 c 0
1102 530 m 0
 1102 449.333333333 1091.33333333 375 1070 307 c 128
 1048.66666667 239 1017.5 180.333333333 976.5 131 c 128
 935.5 81.6666666667 885.333333333 43.3333333333 826 16 c 128
 766.666666667 -11.3333333333 699 -25 623 -25 c 0
 561.666666667 -25 507.333333333 -16.6666666667 460 0 c 128
 412.666666667 16.6666666667 377.333333333 32.3333333333 354 47 c 1
 354 -379 l 1
 164 -379 l 1
 164 1556 l 1
 354 1589 l 1
 354 1047 l 1
 389.333333333 1059 426.5 1068.66666667 465.5 1076 c 128
 504.5 1083.33333333 542 1087 578 1087 c 0
 656 1087 727.333333333 1074.16666667 792 1048.5 c 128
 856.666666667 1022.83333333 911.833333333 986 957.5 938 c 128
 1003.16666667 890 1038.66666667 831.5 1064 762.5 c 128
 1089.33333333 693.5 1102 616 1102 530 c 0
EndSplineSet
Validated: 524289
Substitution2: "Ubuntu-Regular-'case' Case-Sensitive Forms lookup 19 subtable" Thorn
EndChar

StartChar: Aogonek
Encoding: 261 260 198
Width: 1357
GlyphClass: 1
Flags: W
LayerCount: 2
Fore
SplineSet
1126 -4 m 1
 1102.66666667 57.3333333333 1080.5 118.333333333 1059.5 179 c 128
 1038.5 239.666666667 1017 300.666666667 995 362 c 1
 352 362 l 1
 223 0 l 1
 16 0 l 1
 70.6666666667 150 122 288.833333333 170 416.5 c 128
 218 544.166666667 264.833333333 665.333333333 310.5 780 c 128
 356.166666667 894.666666667 401.5 1004.33333333 446.5 1109 c 128
 491.5 1213.66666667 538.666666667 1317 588 1419 c 1
 770 1419 l 1
 819.333333333 1316.33333333 866.5 1212.83333333 911.5 1108.5 c 128
 956.5 1004.16666667 1001.5 895 1046.5 781 c 128
 1091.5 667 1137.83333333 546.166666667 1185.5 418.5 c 128
 1233.16666667 290.833333333 1284.33333333 152.666666667 1339 4 c 1
 1327 -2.66666666667 1310.83333333 -12.8333333333 1290.5 -26.5 c 128
 1270.16666667 -40.1666666667 1249.66666667 -58 1229 -80 c 0
 1209.66666667 -102 1194.5 -121.166666667 1183.5 -137.5 c 128
 1172.5 -153.833333333 1167 -171.333333333 1167 -190 c 0
 1167 -229.333333333 1194.33333333 -249.333333333 1249 -250 c 0
 1258.33333333 -250 1271 -249 1287 -247 c 128
 1303 -245 1318.33333333 -241.333333333 1333 -236 c 1
 1348 -360 l 1
 1332.66666667 -366.666666667 1313 -372.166666667 1289 -376.5 c 128
 1265 -380.833333333 1239.33333333 -383 1212 -383 c 0
 1135.33333333 -383 1078.66666667 -369 1042 -341 c 128
 1005.33333333 -313 987 -275 987 -227 c 0
 987 -195.666666667 995.5 -165.333333333 1012.5 -136 c 128
 1029.5 -106.666666667 1049.66666667 -79.6666666667 1073 -55 c 0
 1083.66666667 -44.3333333333 1093.5 -34.8333333333 1102.5 -26.5 c 128
 1111.5 -18.1666666667 1119.33333333 -10.6666666667 1126 -4 c 1
938 526 m 1
 894 644.666666667 850.5 759.666666667 807.5 871 c 128
 764.5 982.333333333 720 1089.33333333 674 1192 c 1
 626 1089.33333333 580.5 982.5 537.5 871.5 c 128
 494.5 760.5 452 645.333333333 410 526 c 1
 938 526 l 1
EndSplineSet
Validated: 524289
EndChar

StartChar: aogonek
Encoding: 262 261 199
Width: 1069
GlyphClass: 1
Flags: W
LayerCount: 2
Fore
SplineSet
524 137 m 0
 569.333333333 137 609.333333333 138 644 140 c 128
 678.666666667 142 707.666666667 146 731 152 c 1
 731 469 l 1
 717.666666667 475.666666667 695.5 481.5 664.5 486.5 c 128
 633.5 491.5 596.333333333 494 553 494 c 0
 524.333333333 494 494 491.833333333 462 487.5 c 128
 430 483.166666667 400.666666667 474.5 374 461.5 c 128
 347.333333333 448.5 325.166666667 430.833333333 307.5 408.5 c 128
 289.833333333 386.166666667 281 356.333333333 281 319 c 0
 281 251 302.666666667 203.666666667 346 177 c 128
 389.333333333 150.333333333 448.666666667 137 524 137 c 0
508 1092 m 0
 584.666666667 1092 649.166666667 1082 701.5 1062 c 128
 753.833333333 1042 796.166666667 1014 828.5 978 c 128
 860.833333333 942 883.833333333 899 897.5 849 c 128
 911.166666667 799 918 744 918 684 c 2
 918 18 l 1
 901.333333333 6 883.166666667 -7.83333333333 863.5 -23.5 c 128
 843.833333333 -39.1666666667 823.666666667 -58 803 -80 c 0
 783.666666667 -102 767.833333333 -121.166666667 755.5 -137.5 c 128
 743.166666667 -153.833333333 737 -171.333333333 737 -190 c 0
 737 -229.333333333 764.333333333 -249.333333333 819 -250 c 0
 828.333333333 -250 841 -249 857 -247 c 128
 873 -245 888.333333333 -241.333333333 903 -236 c 1
 918 -360 l 1
 902.666666667 -366.666666667 883 -372.166666667 859 -376.5 c 128
 835 -380.833333333 809.333333333 -383 782 -383 c 0
 705.333333333 -383 648.666666667 -369 612 -341 c 128
 575.333333333 -313 557 -275 557 -227 c 0
 557 -195.666666667 566.5 -165.333333333 585.5 -136 c 128
 604.5 -106.666666667 625.666666667 -79.6666666667 649 -55 c 0
 655.666666667 -47 663.833333333 -39.1666666667 673.5 -31.5 c 128
 683.166666667 -23.8333333333 691.333333333 -16.6666666667 698 -10 c 1
 666.666666667 -12.6666666667 634.333333333 -15.5 601 -18.5 c 128
 567.666666667 -21.5 534.666666667 -23 502 -23 c 0
 442 -23 386.666666667 -16.8333333333 336 -4.5 c 128
 285.333333333 7.83333333333 241.666666667 27.3333333333 205 54 c 128
 168.333333333 80.6666666667 139.666666667 115.833333333 119 159.5 c 128
 98.3333333333 203.166666667 88 255.666666667 88 317 c 0
 88 375.666666667 100 426.166666667 124 468.5 c 128
 148 510.833333333 180.5 545 221.5 571 c 128
 262.5 597 310.166666667 616.166666667 364.5 628.5 c 128
 418.833333333 640.833333333 476.333333333 647 537 647 c 0
 556.333333333 647 576.166666667 646 596.5 644 c 128
 616.833333333 642 636.166666667 639.333333333 654.5 636 c 128
 672.833333333 632.666666667 688.833333333 629.666666667 702.5 627 c 128
 716.166666667 624.333333333 725.666666667 622.333333333 731 621 c 1
 731 674 l 2
 731 705.333333333 727.666666667 736.333333333 721 767 c 128
 714.333333333 797.666666667 702 825 684 849 c 128
 666 873 641.666666667 892.166666667 611 906.5 c 128
 580.333333333 920.833333333 540.666666667 928 492 928 c 0
 429.333333333 928 374.333333333 923.5 327 914.5 c 128
 279.666666667 905.5 244.333333333 896.333333333 221 887 c 1
 199 1044 l 1
 223.666666667 1054.66666667 264.666666667 1065.33333333 322 1076 c 128
 379.333333333 1086.66666667 441.333333333 1092 508 1092 c 0
EndSplineSet
Validated: 524289
Substitution2: "Ubuntu-Regular-'case' Case-Sensitive Forms lookup 19 subtable" Aogonek
EndChar

StartChar: dcroat
Encoding: 274 273 211
Width: 1206
GlyphClass: 1
Flags: W
LayerCount: 2
Fore
SplineSet
852 831 m 1
 828.666666667 850.333333333 795.166666667 868.833333333 751.5 886.5 c 128
 707.833333333 904.166666667 660 913 608 913 c 0
 553.333333333 913 506.666666667 903.5 468 884.5 c 128
 429.333333333 865.5 397.666666667 839 373 805 c 128
 348.333333333 771 330.5 730.333333333 319.5 683 c 128
 308.5 635.666666667 303 584.666666667 303 530 c 0
 303 406 333.666666667 310.5 395 243.5 c 128
 456.333333333 176.5 538.333333333 143 641 143 c 0
 693 143 736.333333333 145.5 771 150.5 c 128
 805.666666667 155.5 832.666666667 160.666666667 852 166 c 1
 852 831 l 1
852 1556 m 1
 1042 1589 l 1
 1042 1399 l 1
 1194 1399 l 1
 1194 1257 l 1
 1042 1257 l 1
 1042 31 l 1
 998 19 942 6.66666666667 874 -6 c 128
 806 -18.6666666667 727.666666667 -25 639 -25 c 0
 557 -25 483.166666667 -12.3333333333 417.5 13 c 128
 351.833333333 38.3333333333 295.833333333 75.3333333333 249.5 124 c 128
 203.166666667 172.666666667 167.333333333 231 142 299 c 128
 116.666666667 367 104 444 104 530 c 0
 104 612 114.666666667 686.833333333 136 754.5 c 128
 157.333333333 822.166666667 188.5 880.166666667 229.5 928.5 c 128
 270.5 976.833333333 320.666666667 1014.33333333 380 1041 c 128
 439.333333333 1067.66666667 507.333333333 1081 584 1081 c 0
 645.333333333 1081 699.5 1072.83333333 746.5 1056.5 c 128
 793.5 1040.16666667 828.666666667 1024.66666667 852 1010 c 1
 852 1257 l 1
 489 1257 l 1
 489 1399 l 1
 852 1399 l 1
 852 1556 l 1
EndSplineSet
Validated: 524289
Substitution2: "Ubuntu-Regular-'case' Case-Sensitive Forms lookup 19 subtable" Dcroat
EndChar

StartChar: Eogonek
Encoding: 281 280 218
Width: 1169
GlyphClass: 1
Flags: W
LayerCount: 2
Fore
SplineSet
176 0 m 1
 176 1419 l 1
 1042 1419 l 1
 1042 1249 l 1
 375 1249 l 1
 375 827 l 1
 969 827 l 1
 969 662 l 1
 375 662 l 1
 375 170 l 1
 1094 170 l 1
 1094 4 l 1
 1082 -2.66666666667 1065.66666667 -12.8333333333 1045 -26.5 c 128
 1024.33333333 -40.1666666667 1003.66666667 -58 983 -80 c 0
 963.666666667 -102 948.666666667 -121.166666667 938 -137.5 c 128
 927.333333333 -153.833333333 922 -171.333333333 922 -190 c 0
 922 -229.333333333 949.333333333 -249.333333333 1004 -250 c 0
 1013.33333333 -250 1025.83333333 -249 1041.5 -247 c 128
 1057.16666667 -245 1072.33333333 -241.333333333 1087 -236 c 1
 1102 -360 l 1
 1086.66666667 -366.666666667 1067.16666667 -372.166666667 1043.5 -376.5 c 128
 1019.83333333 -380.833333333 994.333333333 -383 967 -383 c 0
 890.333333333 -383 833.5 -369 796.5 -341 c 128
 759.5 -313 741 -275 741 -227 c 0
 741 -195.666666667 749.666666667 -165.333333333 767 -136 c 128
 784.333333333 -106.666666667 804.333333333 -79.6666666667 827 -55 c 0
 843 -39 843 -39 856.5 -25.5 c 128
 865.5 -16.5 875.666666667 -8 887 0 c 1
 176 0 l 1
EndSplineSet
Validated: 524289
EndChar

StartChar: eogonek
Encoding: 282 281 219
Width: 1144
GlyphClass: 1
Flags: W
LayerCount: 2
Fore
SplineSet
104 530 m 0
 104 624 117.666666667 706.333333333 145 777 c 128
 172.333333333 847.666666667 208.666666667 906.166666667 254 952.5 c 128
 299.333333333 998.833333333 351.333333333 1033.66666667 410 1057 c 128
 468.666666667 1080.33333333 528.666666667 1092 590 1092 c 0
 733.333333333 1092 843.166666667 1047.16666667 919.5 957.5 c 128
 995.833333333 867.833333333 1034 731.666666667 1034 549 c 0
 1034 537 1034 537 1034 517.5 c 128
 1034 504.5 1033.33333333 492.333333333 1032 481 c 1
 303 481 l 1
 311 370.333333333 343 286.333333333 399 229 c 128
 455 171.666666667 542.666666667 143 662 143 c 0
 728.666666667 143 784.833333333 148.833333333 830.5 160.5 c 128
 876.166666667 172.166666667 910.666666667 183.666666667 934 195 c 1
 961 35 l 1
 937.666666667 17 914.333333333 -0.833333333333 891 -18.5 c 128
 867.666666667 -36.1666666667 845 -56.6666666667 823 -80 c 0
 799.666666667 -103.333333333 783 -123.5 773 -140.5 c 128
 763 -157.5 758 -174 758 -190 c 0
 758 -213.333333333 765.833333333 -229.166666667 781.5 -237.5 c 128
 797.166666667 -245.833333333 816.666666667 -250 840 -250 c 0
 856.666666667 -250 872.333333333 -248.333333333 887 -245 c 128
 901.666666667 -241.666666667 914 -238.666666667 924 -236 c 1
 938 -360 l 1
 921.333333333 -368 900.166666667 -373.833333333 874.5 -377.5 c 128
 848.833333333 -381.166666667 825 -383 803 -383 c 0
 733.666666667 -383 678.833333333 -370.666666667 638.5 -346 c 128
 598.166666667 -321.333333333 578 -281.666666667 578 -227 c 0
 578 -195.666666667 589.166666667 -162.333333333 611.5 -127 c 128
 633.833333333 -91.6666666667 666.333333333 -56 709 -20 c 1
 698.333333333 -21.3333333333 687 -22.5 675 -23.5 c 128
 663 -24.5 651.666666667 -25 641 -25 c 0
 548.333333333 -25 468.166666667 -11 400.5 17 c 128
 332.833333333 45 277.166666667 83.6666666667 233.5 133 c 128
 189.833333333 182.333333333 157.333333333 240.666666667 136 308 c 128
 114.666666667 375.333333333 104 449.333333333 104 530 c 0
836 635 m 1
 837.333333333 721 815.833333333 791.666666667 771.5 847 c 128
 727.166666667 902.333333333 666 930 588 930 c 0
 544 930 505.333333333 921.5 472 904.5 c 128
 438.666666667 887.5 410.333333333 865.333333333 387 838 c 128
 363.666666667 810.666666667 345.5 779.166666667 332.5 743.5 c 128
 319.5 707.833333333 311 671.666666667 307 635 c 1
 836 635 l 1
EndSplineSet
Validated: 524321
Substitution2: "Ubuntu-Regular-'case' Case-Sensitive Forms lookup 19 subtable" Eogonek
EndChar

StartChar: Hbar
Encoding: 295 294 232
Width: 1497
GlyphClass: 1
Flags: W
LayerCount: 2
Fore
SplineSet
39 1217 m 1
 203 1217 l 1
 203 1419 l 1
 401 1419 l 1
 401 1217 l 1
 1096 1217 l 1
 1096 1419 l 1
 1294 1419 l 1
 1294 1217 l 1
 1458 1217 l 1
 1458 1071 l 1
 1294 1071 l 1
 1294 0 l 1
 1096 0 l 1
 1096 655 l 1
 401 655 l 1
 401 0 l 1
 203 0 l 1
 203 1071 l 1
 39 1071 l 1
 39 1217 l 1
1096 1071 m 1
 401 1071 l 1
 401 827 l 1
 1096 827 l 1
 1096 1071 l 1
EndSplineSet
Validated: 1
EndChar

StartChar: hbar
Encoding: 296 295 233
Width: 1169
GlyphClass: 1
Flags: W
LayerCount: 2
Fore
SplineSet
164 0 m 1
 164 1257 l 1
 12 1257 l 1
 12 1399 l 1
 164 1399 l 1
 164 1556 l 1
 354 1589 l 1
 354 1399 l 1
 717 1399 l 1
 717 1257 l 1
 354 1257 l 1
 354 1036 l 1
 389.333333333 1049.33333333 427.166666667 1059.83333333 467.5 1067.5 c 128
 507.833333333 1075.16666667 548 1079 588 1079 c 0
 672.666666667 1079 743 1067.16666667 799 1043.5 c 128
 855 1019.83333333 899.666666667 986.5 933 943.5 c 128
 966.333333333 900.5 989.833333333 848.833333333 1003.5 788.5 c 128
 1017.16666667 728.166666667 1024 662 1024 590 c 2
 1024 0 l 1
 834 0 l 1
 834 549 l 2
 834 614.333333333 829.5 670.166666667 820.5 716.5 c 128
 811.5 762.833333333 796.666666667 800.333333333 776 829 c 128
 755.333333333 857.666666667 728 878.5 694 891.5 c 128
 660 904.5 617.666666667 911 567 911 c 0
 546.333333333 911 525.166666667 909.666666667 503.5 907 c 128
 481.833333333 904.333333333 461.166666667 901.333333333 441.5 898 c 128
 421.833333333 894.666666667 404.166666667 891 388.5 887 c 128
 372.833333333 883 361.333333333 879.666666667 354 877 c 1
 354 0 l 1
 164 0 l 1
EndSplineSet
Validated: 524289
Substitution2: "Ubuntu-Regular-'case' Case-Sensitive Forms lookup 19 subtable" Hbar
EndChar

StartChar: Iogonek
Encoding: 303 302 240
Width: 550
GlyphClass: 1
Flags: W
LayerCount: 2
Fore
SplineSet
176 1419 m 1
 375 1419 l 1
 375 0 l 1
 359.666666667 -10.6666666667 344.166666667 -22.1666666667 328.5 -34.5 c 128
 312.833333333 -46.8333333333 297 -62 281 -80 c 0
 261.666666667 -102 245.833333333 -121.166666667 233.5 -137.5 c 128
 221.166666667 -153.833333333 215 -171.333333333 215 -190 c 0
 215 -229.333333333 242.333333333 -249.333333333 297 -250 c 0
 306.333333333 -250 318.833333333 -249 334.5 -247 c 128
 350.166666667 -245 365.666666667 -241.333333333 381 -236 c 1
 395 -360 l 1
 362.333333333 -375.333333333 317.333333333 -383 260 -383 c 0
 182 -383 125 -369 89 -341 c 128
 53 -313 35 -275 35 -227 c 0
 35 -195.666666667 43.8333333333 -165.333333333 61.5 -136 c 128
 79.1666666667 -106.666666667 99.6666666667 -79.6666666667 123 -55 c 0
 139 -39 139 -39 152.5 -25.5 c 128
 161.5 -16.5 169.333333333 -9.33333333333 176 -4 c 1
 176 1419 l 1
EndSplineSet
Validated: 524289
EndChar

StartChar: iogonek
Encoding: 304 303 241
Width: 518
GlyphClass: 1
Flags: W
LayerCount: 2
Fore
SplineSet
354 0 m 1
 321.333333333 -24.6666666667 291.333333333 -51.3333333333 264 -80 c 0
 244.666666667 -102 229 -121.166666667 217 -137.5 c 128
 205 -153.833333333 199 -171.333333333 199 -190 c 0
 199 -229.333333333 226.333333333 -249.333333333 281 -250 c 0
 290.333333333 -250 302.833333333 -249 318.5 -247 c 128
 334.166666667 -245 349.666666667 -241.333333333 365 -236 c 1
 379 -360 l 1
 346.333333333 -375.333333333 301.333333333 -383 244 -383 c 0
 166 -383 108.833333333 -369 72.5 -341 c 128
 36.1666666667 -313 18 -275 18 -227 c 0
 18 -195.666666667 27 -165.666666667 45 -137 c 128
 63 -108.333333333 83.3333333333 -81 106 -55 c 0
 116.666666667 -43 127 -32.5 137 -23.5 c 128
 147 -14.5 156 -6.66666666667 164 0 c 1
 164 1065 l 1
 354 1065 l 1
 354 0 l 1
258 1257 m 256
 224 1257 195 1268.33333333 171 1291 c 128
 147 1313.66666667 135 1344 135 1382 c 256
 135 1420 147 1450.33333333 171 1473 c 128
 195 1495.66666667 224 1507 258 1507 c 256
 292 1507 321 1495.83333333 345 1473.5 c 128
 369 1451.16666667 381 1420.66666667 381 1382 c 0
 381 1344 369 1313.66666667 345 1291 c 128
 321 1268.33333333 292 1257 258 1257 c 256
EndSplineSet
Validated: 524289
Substitution2: "Ubuntu-Regular-'case' Case-Sensitive Forms lookup 19 subtable" Iogonek
EndChar

StartChar: dotlessi
Encoding: 306 305 243
Width: 518
GlyphClass: 1
Flags: W
LayerCount: 2
Fore
SplineSet
354 0 m 1
 164 0 l 1
 164 1065 l 1
 354 1065 l 1
 354 0 l 1
EndSplineSet
Validated: 1
EndChar

StartChar: kgreenlandic
Encoding: 313 312 250
Width: 1099
GlyphClass: 1
Flags: W
LayerCount: 2
Fore
SplineSet
553 580 m 1
 595 550 640.666666667 512 690 466 c 128
 739.333333333 420 787.5 370.5 834.5 317.5 c 128
 881.5 264.5 925.5 210.333333333 966.5 155 c 128
 1007.5 99.6666666667 1042.33333333 48 1071 0 c 1
 846 0 l 1
 816 46.6666666667 780.833333333 94.1666666667 740.5 142.5 c 128
 700.166666667 190.833333333 658.166666667 237.5 614.5 282.5 c 128
 570.833333333 327.5 526.5 369.166666667 481.5 407.5 c 128
 436.5 445.833333333 394 478 354 504 c 1
 354 0 l 1
 164 0 l 1
 164 1065 l 1
 354 1065 l 1
 354 608 l 1
 386.666666667 639.333333333 424.166666667 675.833333333 466.5 717.5 c 128
 508.833333333 759.166666667 551.5 801.5 594.5 844.5 c 128
 637.5 887.5 677.5 928.5 714.5 967.5 c 128
 751.5 1006.5 781.666666667 1039 805 1065 c 1
 1026 1065 l 1
 996 1032.33333333 960.833333333 995.166666667 920.5 953.5 c 128
 880.166666667 911.833333333 838.5 869.166666667 795.5 825.5 c 128
 752.5 781.833333333 709.833333333 738.5 667.5 695.5 c 128
 625.166666667 652.5 587 614 553 580 c 1
EndSplineSet
Validated: 524289
Substitution2: "Ubuntu-Regular-'case' Case-Sensitive Forms lookup 19 subtable" kgreenlandic.case
EndChar

StartChar: Lslash
Encoding: 322 321 259
Width: 1099
GlyphClass: 1
Flags: W
LayerCount: 2
Fore
SplineSet
1067 172 m 1
 1067 0 l 1
 213 0 l 1
 213 586 l 1
 63 510 l 1
 -4 645 l 1
 213 756 l 1
 213 1419 l 1
 412 1419 l 1
 412 858 l 1
 649 981 l 1
 715 846 l 1
 412 688 l 1
 412 172 l 1
 1067 172 l 1
EndSplineSet
Validated: 1
EndChar

StartChar: lslash
Encoding: 323 322 260
Width: 587
GlyphClass: 1
Flags: W
LayerCount: 2
Fore
SplineSet
512 -20 m 1
 394.666666667 -17.3333333333 311.333333333 7.83333333333 262 55.5 c 128
 212.666666667 103.166666667 188 177.666666667 188 279 c 2
 188 696 l 1
 72 637 l 1
 6 764 l 1
 188 856 l 1
 188 1556 l 1
 379 1589 l 1
 379 954 l 1
 528 1032 l 1
 592 905 l 1
 379 795 l 1
 379 309 l 2
 379 277.666666667 381.666666667 251.833333333 387 231.5 c 128
 392.333333333 211.166666667 401.166666667 194.833333333 413.5 182.5 c 128
 425.833333333 170.166666667 442.333333333 160.833333333 463 154.5 c 128
 483.666666667 148.166666667 509 143 539 139 c 1
 512 -20 l 1
EndSplineSet
Validated: 524289
Substitution2: "Ubuntu-Regular-'case' Case-Sensitive Forms lookup 19 subtable" Lslash
EndChar

StartChar: Eng
Encoding: 331 330 268
Width: 1490
GlyphClass: 1
Flags: W
LayerCount: 2
Fore
SplineSet
1120 49 m 1
 1072 127 1016.33333333 214.5 953 311.5 c 128
 889.666666667 408.5 823.833333333 505.5 755.5 602.5 c 128
 687.166666667 699.5 619.666666667 792.666666667 553 882 c 128
 486.333333333 971.333333333 425.666666667 1046.66666667 371 1108 c 1
 371 0 l 1
 176 0 l 1
 176 1419 l 1
 334 1419 l 1
 398 1351 466.5 1271.5 539.5 1180.5 c 128
 612.5 1089.5 684.833333333 996 756.5 900 c 128
 828.166666667 804 895.833333333 709.5 959.5 616.5 c 128
 1023.16666667 523.5 1076.66666667 441 1120 369 c 1
 1120 1419 l 1
 1315 1419 l 1
 1315 0 l 2
 1315 -62.6666666667 1310.83333333 -118 1302.5 -166 c 128
 1294.16666667 -214 1279.16666667 -254 1257.5 -286 c 128
 1235.83333333 -318 1205.16666667 -342.166666667 1165.5 -358.5 c 128
 1125.83333333 -374.833333333 1075.33333333 -383 1014 -383 c 0
 994.666666667 -383 972.333333333 -381.333333333 947 -378 c 128
 921.666666667 -374.666666667 901.666666667 -371 887 -367 c 1
 905 -217 l 1
 915.666666667 -221 930.333333333 -223.666666667 949 -225 c 128
 967.666666667 -226.333333333 982.333333333 -227 993 -227 c 0
 1043.66666667 -227 1077.5 -210.333333333 1094.5 -177 c 128
 1111.5 -143.666666667 1120 -96.3333333333 1120 -35 c 2
 1120 49 l 1
EndSplineSet
Validated: 524289
EndChar

StartChar: eng
Encoding: 332 331 269
Width: 1175
GlyphClass: 1
Flags: W
LayerCount: 2
Fore
SplineSet
164 1034 m 1
 208 1044.66666667 266 1056.16666667 338 1068.5 c 128
 410 1080.83333333 493.333333333 1087 588 1087 c 0
 672.666666667 1087 743 1075.16666667 799 1051.5 c 128
 855 1027.83333333 899.666666667 994.5 933 951.5 c 128
 966.333333333 908.5 989.833333333 857 1003.5 797 c 128
 1017.16666667 737 1024 670.666666667 1024 598 c 2
 1024 0 l 2
 1024 -62.6666666667 1019.5 -118 1010.5 -166 c 128
 1001.5 -214 985.833333333 -254 963.5 -286 c 128
 941.166666667 -318 910.166666667 -342.166666667 870.5 -358.5 c 128
 830.833333333 -374.833333333 780.333333333 -383 719 -383 c 0
 699.666666667 -383 677.333333333 -381.333333333 652 -378 c 128
 626.666666667 -374.666666667 606.666666667 -371 592 -367 c 1
 610 -217 l 1
 620.666666667 -221 635.333333333 -223.666666667 654 -225 c 128
 672.666666667 -226.333333333 687.333333333 -227 698 -227 c 0
 748.666666667 -227 784 -210.333333333 804 -177 c 128
 824 -143.666666667 834 -96.3333333333 834 -35 c 2
 834 557 l 2
 834 622.333333333 829.5 678.333333333 820.5 725 c 128
 811.5 771.666666667 796.666666667 809.333333333 776 838 c 128
 755.333333333 866.666666667 728 887.5 694 900.5 c 128
 660 913.5 617.666666667 920 567 920 c 0
 546.333333333 920 525.166666667 919.166666667 503.5 917.5 c 128
 481.833333333 915.833333333 461.166666667 914 441.5 912 c 128
 421.833333333 910 404.166666667 907.666666667 388.5 905 c 128
 372.833333333 902.333333333 361.333333333 900.333333333 354 899 c 1
 354 0 l 1
 164 0 l 1
 164 1034 l 1
EndSplineSet
Validated: 524289
Substitution2: "Ubuntu-Regular-'case' Case-Sensitive Forms lookup 19 subtable" Eng
EndChar

StartChar: OE
Encoding: 339 338 276
Width: 2033
GlyphClass: 1
Flags: W
LayerCount: 2
Fore
SplineSet
330 711 m 0
 330 623.666666667 343 545.833333333 369 477.5 c 128
 395 409.166666667 432.166666667 351.333333333 480.5 304 c 128
 528.833333333 256.666666667 587.833333333 220.5 657.5 195.5 c 128
 727.166666667 170.5 805 158 891 158 c 0
 922.333333333 158 949.333333333 158.333333333 972 159 c 128
 994.666666667 159.666666667 1013.33333333 160.666666667 1028 162 c 0
 1044.66666667 163.333333333 1059 165.333333333 1071 168 c 1
 1071 1251 l 1
 1041 1255 1011 1257.83333333 981 1259.5 c 128
 951 1261.16666667 921 1262 891 1262 c 0
 805 1262 727.166666667 1249.33333333 657.5 1224 c 128
 587.833333333 1198.66666667 528.833333333 1162.33333333 480.5 1115 c 128
 432.166666667 1067.66666667 395 1010 369 942 c 128
 343 874 330 797 330 711 c 0
891 -14 m 0
 780.333333333 -14 677.833333333 1 583.5 31 c 128
 489.166666667 61 407.666666667 106 339 166 c 128
 270.333333333 226 216.5 301.333333333 177.5 392 c 128
 138.5 482.666666667 119 589 119 711 c 0
 119 832.333333333 138.833333333 938 178.5 1028 c 128
 218.166666667 1118 272.333333333 1193 341 1253 c 128
 409.666666667 1313 491.166666667 1358.16666667 585.5 1388.5 c 128
 679.833333333 1418.83333333 782.333333333 1434 893 1434 c 0
 924.333333333 1434 959.166666667 1432.5 997.5 1429.5 c 128
 1035.83333333 1426.5 1072 1423 1106 1419 c 1
 1907 1419 l 1
 1907 1253 l 1
 1270 1253 l 1
 1270 825 l 1
 1833 825 l 1
 1833 664 l 1
 1270 664 l 1
 1270 166 l 1
 1958 166 l 1
 1958 0 l 1
 1106 0 l 1
 1072 -4 1035.5 -7.33333333333 996.5 -10 c 128
 957.5 -12.6666666667 922.333333333 -14 891 -14 c 0
EndSplineSet
Validated: 524289
EndChar

StartChar: oe
Encoding: 340 339 277
Width: 1939
GlyphClass: 1
Flags: W
LayerCount: 2
Fore
SplineSet
1436 -25 m 0
 1328 -25 1238.16666667 -5.16666666667 1166.5 34.5 c 128
 1094.83333333 74.1666666667 1039 129 999 199 c 1
 955 125 899.666666667 68.8333333333 833 30.5 c 128
 766.333333333 -7.83333333333 690 -27 604 -27 c 0
 531.333333333 -27 464.333333333 -13.6666666667 403 13 c 128
 341.666666667 39.6666666667 288.833333333 77.6666666667 244.5 127 c 128
 200.166666667 176.333333333 165.666666667 235.166666667 141 303.5 c 128
 116.333333333 371.833333333 104 448 104 532 c 0
 104 615.333333333 116.333333333 691.5 141 760.5 c 128
 165.666666667 829.5 200.166666667 888.666666667 244.5 938 c 128
 288.833333333 987.333333333 341.833333333 1025.33333333 403.5 1052 c 128
 465.166666667 1078.66666667 532 1092 604 1092 c 0
 690 1092 766.833333333 1071.83333333 834.5 1031.5 c 128
 902.166666667 991.166666667 957 936 999 866 c 1
 1044.33333333 942.666666667 1101.5 999.5 1170.5 1036.5 c 128
 1239.5 1073.5 1310.66666667 1092 1384 1092 c 0
 1526 1092 1635.66666667 1046.83333333 1713 956.5 c 128
 1790.33333333 866.166666667 1829 730.333333333 1829 549 c 0
 1829 538.333333333 1828.66666667 529.166666667 1828 521.5 c 128
 1827.33333333 513.833333333 1827 506.666666667 1827 500 c 2
 1827 481 l 1
 1098 481 l 1
 1106 371.666666667 1138.33333333 288 1195 230 c 128
 1251.66666667 172 1338.66666667 143 1456 143 c 0
 1522.66666667 143 1579 148.833333333 1625 160.5 c 128
 1671 172.166666667 1705.66666667 183.666666667 1729 195 c 1
 1755 35 l 1
 1731.66666667 23 1691.16666667 10 1633.5 -4 c 128
 1575.83333333 -18 1510 -25 1436 -25 c 0
905 532 m 256
 905 652 878 747.333333333 824 818 c 128
 770 888.666666667 696.666666667 924 604 924 c 256
 511.333333333 924 438 888.833333333 384 818.5 c 128
 330 748.166666667 303 652.666666667 303 532 c 0
 303 412 330 316.833333333 384 246.5 c 128
 438 176.166666667 511.333333333 141 604 141 c 256
 696.666666667 141 770 176.166666667 824 246.5 c 128
 878 316.833333333 905 412 905 532 c 256
1630 635 m 1
 1631.33333333 721 1609.83333333 791.666666667 1565.5 847 c 128
 1521.16666667 902.333333333 1460 930 1382 930 c 0
 1338 930 1299.5 921.5 1266.5 904.5 c 128
 1233.5 887.5 1205.66666667 865.333333333 1183 838 c 128
 1160.33333333 810.666666667 1142.16666667 779.166666667 1128.5 743.5 c 128
 1114.83333333 707.833333333 1106 671.666666667 1102 635 c 1
 1630 635 l 1
EndSplineSet
Validated: 524321
Substitution2: "Ubuntu-Regular-'case' Case-Sensitive Forms lookup 19 subtable" OE
EndChar

StartChar: Scedilla
Encoding: 351 350 288
Width: 1089
GlyphClass: 1
Flags: W
LayerCount: 2
Fore
SplineSet
506 141 m 0
 713.333333333 141 817 212 817 354 c 0
 817 398 807.833333333 435.333333333 789.5 466 c 128
 771.166666667 496.666666667 746.333333333 523.333333333 715 546 c 128
 683.666666667 568.666666667 647.833333333 588.166666667 607.5 604.5 c 128
 567.166666667 620.833333333 524.333333333 637 479 653 c 0
 427 671 377.833333333 691.333333333 331.5 714 c 128
 285.166666667 736.666666667 245 763.333333333 211 794 c 128
 177 824.666666667 150 861.166666667 130 903.5 c 128
 110 945.833333333 100 997 100 1057 c 0
 100 1181 142.333333333 1277.83333333 227 1347.5 c 128
 311.666666667 1417.16666667 428.666666667 1452 578 1452 c 0
 664 1452 742.166666667 1442.83333333 812.5 1424.5 c 128
 882.833333333 1406.16666667 934.333333333 1386 967 1364 c 1
 903 1202 l 1
 874.333333333 1220 831.666666667 1237.5 775 1254.5 c 128
 718.333333333 1271.5 652.666666667 1280 578 1280 c 0
 540 1280 504.5 1275.83333333 471.5 1267.5 c 128
 438.5 1259.16666667 409.666666667 1246.83333333 385 1230.5 c 128
 360.333333333 1214.16666667 340.833333333 1193.33333333 326.5 1168 c 128
 312.166666667 1142.66666667 305 1113 305 1079 c 0
 305 1041 312.5 1009 327.5 983 c 128
 342.5 957 363.666666667 934.166666667 391 914.5 c 128
 418.333333333 894.833333333 450.166666667 876.833333333 486.5 860.5 c 128
 522.833333333 844.166666667 562.666666667 827.666666667 606 811 c 0
 667.333333333 786.333333333 723.666666667 761.666666667 775 737 c 128
 826.333333333 712.333333333 870.833333333 683 908.5 649 c 128
 946.166666667 615 975.166666667 574.5 995.5 527.5 c 128
 1015.83333333 480.5 1026 423.333333333 1026 356 c 0
 1026 245.333333333 989.5 157.333333333 916.5 92 c 128
 843.5 26.6666666667 738.666666667 -13 602 -27 c 1
 580 -76 l 1
 619.333333333 -95.3333333333 647.833333333 -116.166666667 665.5 -138.5 c 128
 683.166666667 -160.833333333 692 -194 692 -238 c 0
 692 -253.333333333 688.666666667 -269.666666667 682 -287 c 128
 675.333333333 -304.333333333 663.833333333 -320.5 647.5 -335.5 c 128
 631.166666667 -350.5 609.333333333 -362.833333333 582 -372.5 c 128
 554.666666667 -382.166666667 521 -387 481 -387 c 0
 445.666666667 -387 413.333333333 -384.333333333 384 -379 c 128
 354.666666667 -373.666666667 331 -367.333333333 313 -360 c 1
 336 -244 l 1
 352.666666667 -249.333333333 370.166666667 -254 388.5 -258 c 128
 406.833333333 -262 427.666666667 -264 451 -264 c 0
 500.333333333 -264 524.666666667 -248.333333333 524 -217 c 0
 524 -201.666666667 516.5 -189 501.5 -179 c 128
 486.5 -169 465.333333333 -158.333333333 438 -147 c 2
 424 -141 l 1
 429.333333333 -125.666666667 436.166666667 -108.166666667 444.5 -88.5 c 128
 452.833333333 -68.8333333333 461.666666667 -49.6666666667 471 -31 c 1
 419 -29.6666666667 371.5 -25.1666666667 328.5 -17.5 c 128
 285.5 -9.83333333333 247 -0.833333333333 213 9.5 c 128
 179 19.8333333333 149.666666667 30.3333333333 125 41 c 128
 100.333333333 51.6666666667 81.3333333333 61.3333333333 68 70 c 1
 127 233 l 1
 158.333333333 215 206.166666667 195.166666667 270.5 173.5 c 128
 334.833333333 151.833333333 413.333333333 141 506 141 c 0
EndSplineSet
Validated: 524321
EndChar

StartChar: scedilla
Encoding: 352 351 289
Width: 913
GlyphClass: 1
Flags: W
LayerCount: 2
Fore
SplineSet
412 137 m 0
 490 137 547.666666667 147.333333333 585 168 c 128
 622.333333333 188.666666667 641 221.333333333 641 266 c 0
 641 312.666666667 622.5 349.666666667 585.5 377 c 128
 548.5 404.333333333 487.666666667 435 403 469 c 0
 362.333333333 485.666666667 323.166666667 502.5 285.5 519.5 c 128
 247.833333333 536.5 215.333333333 556.5 188 579.5 c 128
 160.666666667 602.5 138.833333333 630.5 122.5 663.5 c 128
 106.166666667 696.5 98 736.666666667 98 784 c 0
 98 878 132.833333333 952.833333333 202.5 1008.5 c 128
 272.166666667 1064.16666667 367 1092 487 1092 c 0
 517 1092 547.166666667 1090.16666667 577.5 1086.5 c 128
 607.833333333 1082.83333333 635.833333333 1078.66666667 661.5 1074 c 128
 687.166666667 1069.33333333 710 1064.33333333 730 1059 c 128
 750 1053.66666667 765.333333333 1048.66666667 776 1044 c 1
 741 881 l 1
 720.333333333 891.666666667 688.333333333 902.833333333 645 914.5 c 128
 601.666666667 926.166666667 549 932 487 932 c 0
 433.666666667 932 387.333333333 921.333333333 348 900 c 128
 308.666666667 878.666666667 289 845.666666667 289 801 c 0
 289 776.333333333 293.333333333 755.5 302 738.5 c 128
 310.666666667 721.5 324.333333333 706.166666667 343 692.5 c 128
 361.666666667 678.833333333 384.666666667 665.5 412 652.5 c 128
 439.333333333 639.5 472 626 510 612 c 0
 559.333333333 592.666666667 603.666666667 573.833333333 643 555.5 c 128
 682.333333333 537.166666667 716.333333333 515.833333333 745 491.5 c 128
 773.666666667 467.166666667 795.666666667 437.5 811 402.5 c 128
 826.333333333 367.5 834 324.666666667 834 274 c 0
 834 189.333333333 806.666666667 122.5 752 73.5 c 128
 697.333333333 24.5 618.666666667 -6 516 -18 c 1
 510.666666667 -28.6666666667 505.666666667 -38.8333333333 501 -48.5 c 128
 496.333333333 -58.1666666667 492.333333333 -67.3333333333 489 -76 c 1
 528.333333333 -95.3333333333 557 -116.166666667 575 -138.5 c 128
 593 -160.833333333 602 -194 602 -238 c 0
 602 -253.333333333 598.666666667 -269.666666667 592 -287 c 128
 585.333333333 -304.333333333 573.666666667 -320.5 557 -335.5 c 128
 540.333333333 -350.5 518.5 -362.833333333 491.5 -372.5 c 128
 464.5 -382.166666667 431 -387 391 -387 c 0
 355.666666667 -387 323.333333333 -384.333333333 294 -379 c 128
 264.666666667 -373.666666667 241 -367.333333333 223 -360 c 1
 246 -244 l 1
 262.666666667 -249.333333333 280.166666667 -254 298.5 -258 c 128
 316.833333333 -262 337.333333333 -264 360 -264 c 0
 409.333333333 -264 434 -248.333333333 434 -217 c 0
 434 -201.666666667 426.5 -189 411.5 -179 c 128
 396.5 -169 375.333333333 -158.333333333 348 -147 c 2
 334 -141 l 1
 339.333333333 -124.333333333 346.5 -105.5 355.5 -84.5 c 128
 364.5 -63.5 373.666666667 -43.6666666667 383 -25 c 1
 297 -22.3333333333 229.833333333 -13.6666666667 181.5 1 c 128
 133.166666667 15.6666666667 100 27 82 35 c 1
 117 199 l 1
 139 191 173.833333333 178.666666667 221.5 162 c 128
 269.166666667 145.333333333 332.666666667 137 412 137 c 0
EndSplineSet
Validated: 524289
Substitution2: "Ubuntu-Regular-'case' Case-Sensitive Forms lookup 19 subtable" Scedilla
EndChar

StartChar: uni0162
Encoding: 355 354 292
Width: 1157
GlyphClass: 1
Flags: W
LayerCount: 2
Fore
SplineSet
602 -76 m 1
 641.333333333 -95.3333333333 670 -116.166666667 688 -138.5 c 128
 706 -160.833333333 715 -194 715 -238 c 0
 715 -253.333333333 711.5 -269.666666667 704.5 -287 c 128
 697.5 -304.333333333 685.833333333 -320.5 669.5 -335.5 c 128
 653.166666667 -350.5 631.333333333 -362.833333333 604 -372.5 c 128
 576.666666667 -382.166666667 543.333333333 -387 504 -387 c 0
 468.666666667 -387 436.166666667 -384.333333333 406.5 -379 c 128
 376.833333333 -373.666666667 353.333333333 -367.333333333 336 -360 c 1
 358 -244 l 1
 374.666666667 -249.333333333 392.166666667 -254 410.5 -258 c 128
 428.833333333 -262 449.666666667 -264 473 -264 c 0
 522.333333333 -264 547 -248.333333333 547 -217 c 0
 547 -201.666666667 539.5 -189 524.5 -179 c 128
 509.5 -169 488.333333333 -158.333333333 461 -147 c 2
 446 -141 l 1
 451.333333333 -121.666666667 460.333333333 -98.5 473 -71.5 c 128
 485.666666667 -44.5 497.333333333 -20.6666666667 508 0 c 1
 479 0 l 1
 479 1247 l 1
 33 1247 l 1
 33 1419 l 1
 1124 1419 l 1
 1124 1247 l 1
 678 1247 l 1
 678 0 l 1
 639 0 l 1
 632.333333333 -13.3333333333 625.5 -26.6666666667 618.5 -40 c 128
 611.5 -53.3333333333 606 -65.3333333333 602 -76 c 1
EndSplineSet
Validated: 524289
EndChar

StartChar: uni0163
Encoding: 356 355 293
Width: 823
GlyphClass: 1
Flags: W
LayerCount: 2
Fore
SplineSet
539 -76 m 1
 578.333333333 -95.3333333333 606.833333333 -116.166666667 624.5 -138.5 c 128
 642.166666667 -160.833333333 651 -194 651 -238 c 0
 651 -253.333333333 647.666666667 -269.666666667 641 -287 c 128
 634.333333333 -304.333333333 622.833333333 -320.5 606.5 -335.5 c 128
 590.166666667 -350.5 568.333333333 -362.833333333 541 -372.5 c 128
 513.666666667 -382.166666667 480 -387 440 -387 c 0
 404.666666667 -387 372.333333333 -384.333333333 343 -379 c 128
 313.666666667 -373.666666667 290 -367.333333333 272 -360 c 1
 295 -244 l 1
 311.666666667 -249.333333333 329.166666667 -254 347.5 -258 c 128
 365.833333333 -262 386.666666667 -264 410 -264 c 0
 459.333333333 -264 483.666666667 -248.333333333 483 -217 c 0
 483 -201.666666667 475.5 -189 460.5 -179 c 128
 445.5 -169 424.333333333 -158.333333333 397 -147 c 2
 383 -141 l 1
 388.333333333 -123 395.5 -102.833333333 404.5 -80.5 c 128
 413.5 -58.1666666667 423.333333333 -36.6666666667 434 -16 c 1
 379.333333333 -9.33333333333 334 4.83333333333 298 26.5 c 128
 262 48.1666666667 233 76.8333333333 211 112.5 c 128
 189 148.166666667 173.666666667 190.833333333 165 240.5 c 128
 156.333333333 290.166666667 152 347.333333333 152 412 c 2
 152 1362 l 1
 342 1395 l 1
 342 1065 l 1
 745 1065 l 1
 745 905 l 1
 342 905 l 1
 342 414 l 2
 342 360.666666667 346.166666667 316.5 354.5 281.5 c 128
 362.833333333 246.5 375.166666667 219.166666667 391.5 199.5 c 128
 407.833333333 179.833333333 428.166666667 165.833333333 452.5 157.5 c 128
 476.833333333 149.166666667 505.666666667 145 539 145 c 0
 596.333333333 145 642.333333333 151.5 677 164.5 c 128
 711.666666667 177.5 736 187 750 193 c 1
 786 35 l 1
 768 27 739.666666667 16.5 701 3.5 c 128
 662.333333333 -9.5 617 -17.3333333333 565 -20 c 1
 557 -36 557 -36 550 -50 c 128
 545.333333333 -59.3333333333 541.666666667 -68 539 -76 c 1
EndSplineSet
Validated: 524321
Substitution2: "Ubuntu-Regular-'case' Case-Sensitive Forms lookup 19 subtable" uni0162
EndChar

StartChar: Tbar
Encoding: 359 358 296
Width: 1157
GlyphClass: 1
Flags: W
LayerCount: 2
Fore
SplineSet
1124 1419 m 1
 1124 1247 l 1
 678 1247 l 1
 678 805 l 1
 944 805 l 1
 944 651 l 1
 678 651 l 1
 678 0 l 1
 479 0 l 1
 479 651 l 1
 213 651 l 1
 213 805 l 1
 479 805 l 1
 479 1247 l 1
 33 1247 l 1
 33 1419 l 1
 1124 1419 l 1
EndSplineSet
Validated: 1
EndChar

StartChar: tbar
Encoding: 360 359 297
Width: 823
GlyphClass: 1
Flags: W
LayerCount: 2
Fore
SplineSet
342 1065 m 1
 745 1065 l 1
 745 905 l 1
 342 905 l 1
 342 627 l 1
 745 627 l 1
 745 483 l 1
 342 483 l 1
 342 414 l 2
 342 360.666666667 346.166666667 316.5 354.5 281.5 c 128
 362.833333333 246.5 375.166666667 219.166666667 391.5 199.5 c 128
 407.833333333 179.833333333 428.166666667 165.833333333 452.5 157.5 c 128
 476.833333333 149.166666667 505.666666667 145 539 145 c 0
 596.333333333 145 642.333333333 151.5 677 164.5 c 128
 711.666666667 177.5 736 187 750 193 c 1
 786 35 l 1
 766.666666667 25.6666666667 733.166666667 13.6666666667 685.5 -1 c 128
 637.833333333 -15.6666666667 583.333333333 -23 522 -23 c 0
 449.333333333 -23 389.5 -13.6666666667 342.5 5 c 128
 295.5 23.6666666667 257.666666667 51.3333333333 229 88 c 128
 200.333333333 124.666666667 180.333333333 170 169 224 c 128
 157.666666667 278 152 340.666666667 152 412 c 2
 152 1362 l 1
 342 1395 l 1
 342 1065 l 1
EndSplineSet
Validated: 524289
Substitution2: "Ubuntu-Regular-'case' Case-Sensitive Forms lookup 19 subtable" Tbar
EndChar

StartChar: Uogonek
Encoding: 371 370 308
Width: 1409
GlyphClass: 1
Flags: W
LayerCount: 2
Fore
SplineSet
705 -31 m 2
 612.333333333 -31 531.666666667 -16.6666666667 463 12 c 128
 394.333333333 40.6666666667 338.166666667 80 294.5 130 c 128
 250.833333333 180 218.5 239.166666667 197.5 307.5 c 128
 176.5 375.833333333 166 449.333333333 166 528 c 2
 166 1419 l 1
 365 1419 l 1
 365 551 l 2
 365 409 396.333333333 305.833333333 459 241.5 c 128
 521.666666667 177.166666667 603.666666667 145 705 145 c 0
 755.666666667 145 801.666666667 153 843 169 c 128
 884.333333333 185 920 209.333333333 950 242 c 128
 980 274.666666667 1003.16666667 316.5 1019.5 367.5 c 128
 1035.83333333 418.5 1044 479.666666667 1044 551 c 2
 1044 1419 l 1
 1243 1419 l 1
 1243 528 l 2
 1243 417.333333333 1222.83333333 319 1182.5 233 c 128
 1142.16666667 147 1079 79.6666666667 993 31 c 0
 961.666666667 11.6666666667 933.333333333 -6.16666666667 908 -22.5 c 128
 882.666666667 -38.8333333333 860 -58 840 -80 c 0
 820.666666667 -102 805.833333333 -121.166666667 795.5 -137.5 c 128
 785.166666667 -153.833333333 780 -171.333333333 780 -190 c 0
 780 -229.333333333 807.333333333 -249.333333333 862 -250 c 0
 871.333333333 -250 884 -249 900 -247 c 128
 916 -245 931.333333333 -241.333333333 946 -236 c 1
 961 -360 l 1
 945.666666667 -366.666666667 926 -372.166666667 902 -376.5 c 128
 878 -380.833333333 852.333333333 -383 825 -383 c 0
 748.333333333 -383 691.666666667 -369 655 -341 c 128
 618.333333333 -313 600 -275 600 -227 c 0
 600 -189 612.666666667 -152.666666667 638 -118 c 128
 663.333333333 -83.3333333333 689 -54.3333333333 715 -31 c 1
 705 -31 l 2
EndSplineSet
Validated: 524289
EndChar

StartChar: uogonek
Encoding: 372 371 309
Width: 1175
GlyphClass: 1
Flags: W
LayerCount: 2
Fore
SplineSet
1012 25 m 1
 995.333333333 13 977.166666667 -2 957.5 -20 c 128
 937.833333333 -38 917.666666667 -58 897 -80 c 0
 877.666666667 -102 861.833333333 -121.166666667 849.5 -137.5 c 128
 837.166666667 -153.833333333 831 -171.333333333 831 -190 c 0
 831 -229.333333333 858.333333333 -249.333333333 913 -250 c 0
 922.333333333 -250 935 -249 951 -247 c 128
 967 -245 982.333333333 -241.333333333 997 -236 c 1
 1012 -360 l 1
 996.666666667 -366.666666667 977.166666667 -372.166666667 953.5 -376.5 c 128
 929.833333333 -380.833333333 904.333333333 -383 877 -383 c 0
 800.333333333 -383 743.5 -369 706.5 -341 c 128
 669.5 -313 651 -275 651 -227 c 0
 651 -195.666666667 660.666666667 -165.333333333 680 -136 c 128
 699.333333333 -106.666666667 720.333333333 -79.6666666667 743 -55 c 0
 749.666666667 -47 758.166666667 -38.8333333333 768.5 -30.5 c 128
 778.833333333 -22.1666666667 787.666666667 -14.6666666667 795 -8 c 1
 763.666666667 -12 731.166666667 -15.5 697.5 -18.5 c 128
 663.833333333 -21.5 628 -23 590 -23 c 0
 508 -23 439 -11 383 13 c 128
 327 37 282 70.8333333333 248 114.5 c 128
 214 158.166666667 189.5 209.666666667 174.5 269 c 128
 159.5 328.333333333 152 394.333333333 152 467 c 2
 152 1065 l 1
 342 1065 l 1
 342 508 l 2
 342 378 362.5 285 403.5 229 c 128
 444.5 173 513.333333333 145 610 145 c 0
 630.666666667 145 652 145.833333333 674 147.5 c 128
 696 149.166666667 716.5 151 735.5 153 c 128
 754.5 155 771.833333333 157 787.5 159 c 128
 803.166666667 161 814.333333333 163.333333333 821 166 c 1
 821 1065 l 1
 1012 1065 l 1
 1012 25 l 1
EndSplineSet
Validated: 524289
Substitution2: "Ubuntu-Regular-'case' Case-Sensitive Forms lookup 19 subtable" Uogonek
EndChar

StartChar: longs
Encoding: 384 383 321
Width: 559
GlyphClass: 1
Flags: W
LayerCount: 2
Fore
SplineSet
580 1589 m 0
 636 1589 684 1585 724 1577 c 128
 764 1569 792.333333333 1561.33333333 809 1554 c 1
 774 1391 l 1
 757.333333333 1399 734 1406.66666667 704 1414 c 128
 674 1421.33333333 637.333333333 1425 594 1425 c 0
 505.333333333 1425 443.166666667 1400.83333333 407.5 1352.5 c 128
 371.833333333 1304.16666667 354 1239 354 1157 c 2
 354 0 l 1
 164 0 l 1
 164 1161 l 2
 164 1297.66666667 197.5 1403.16666667 264.5 1477.5 c 128
 331.5 1551.83333333 436.666666667 1589 580 1589 c 0
EndSplineSet
Validated: 524289
Substitution2: "Ubuntu-Regular-'case' Case-Sensitive Forms lookup 18 subtable" S
EndChar

StartChar: uni0180
Encoding: 385 384 322
Width: 1206
GlyphClass: 1
Flags: W
LayerCount: 2
Fore
SplineSet
354 1010 m 1
 377.333333333 1025.33333333 412.5 1041 459.5 1057 c 128
 506.5 1073 561 1081 623 1081 c 0
 699.666666667 1081 767.5 1067.66666667 826.5 1041 c 128
 885.5 1014.33333333 935.5 976.833333333 976.5 928.5 c 128
 1017.5 880.166666667 1048.66666667 822.166666667 1070 754.5 c 128
 1091.33333333 686.833333333 1102 612 1102 530 c 0
 1102 444 1089.33333333 367 1064 299 c 128
 1038.66666667 231 1002.83333333 172.666666667 956.5 124 c 128
 910.166666667 75.3333333333 854.166666667 38.3333333333 788.5 13 c 128
 722.833333333 -12.3333333333 649 -25 567 -25 c 0
 478.333333333 -25 399.833333333 -18.8333333333 331.5 -6.5 c 128
 263.166666667 5.83333333333 207.333333333 18.3333333333 164 31 c 1
 164 1257 l 1
 12 1257 l 1
 12 1399 l 1
 164 1399 l 1
 164 1556 l 1
 354 1589 l 1
 354 1399 l 1
 717 1399 l 1
 717 1257 l 1
 354 1257 l 1
 354 1010 l 1
354 166 m 1
 373.333333333 160.666666667 400.333333333 155.5 435 150.5 c 128
 469.666666667 145.5 513 143 565 143 c 0
 667.666666667 143 749.666666667 176.5 811 243.5 c 128
 872.333333333 310.5 903 406 903 530 c 0
 903 584.666666667 897.5 635.666666667 886.5 683 c 128
 875.5 730.333333333 857.833333333 771 833.5 805 c 128
 809.166666667 839 777.5 865.5 738.5 884.5 c 128
 699.5 903.5 652.666666667 913 598 913 c 0
 546 913 498.166666667 904.166666667 454.5 886.5 c 128
 410.833333333 868.833333333 377.333333333 850.333333333 354 831 c 1
 354 166 l 1
EndSplineSet
Validated: 524289
EndChar

StartChar: uni0181
Encoding: 386 385 323
Width: 1523
GlyphClass: 1
Flags: W
LayerCount: 2
Fore
SplineSet
766 -12 m 0
 737.333333333 -12 706.333333333 -11.3333333333 673 -10 c 128
 639.666666667 -8.66666666667 606.166666667 -6.66666666667 572.5 -4 c 128
 538.833333333 -1.33333333333 505.666666667 2 473 6 c 128
 440.333333333 10 410.333333333 15.6666666667 383 23 c 1
 383 1247 l 1
 259 1240.33333333 197 1188 197 1090 c 0
 197 1079.33333333 197.333333333 1068 198 1056 c 128
 198.666666667 1044 199.666666667 1034 201 1026 c 1
 43 1008 l 1
 40.3333333333 1017.33333333 37.6666666667 1031.5 35 1050.5 c 128
 32.3333333333 1069.5 31 1088.66666667 31 1108 c 0
 31 1188.66666667 50.8333333333 1250.83333333 90.5 1294.5 c 128
 130.166666667 1338.16666667 183.666666667 1370.16666667 251 1390.5 c 128
 318.333333333 1410.83333333 396.333333333 1423.16666667 485 1427.5 c 128
 573.666666667 1431.83333333 667.333333333 1434 766 1434 c 0
 848 1434 924.833333333 1427.83333333 996.5 1415.5 c 128
 1068.16666667 1403.16666667 1130.66666667 1382.33333333 1184 1353 c 128
 1237.33333333 1323.66666667 1279.33333333 1285 1310 1237 c 128
 1340.66666667 1189 1356 1130.33333333 1356 1061 c 0
 1356 983 1336.5 919.166666667 1297.5 869.5 c 128
 1258.5 819.833333333 1206.33333333 783.333333333 1141 760 c 1
 1228.33333333 735.333333333 1296.5 696.333333333 1345.5 643 c 128
 1394.5 589.666666667 1419 514 1419 416 c 0
 1419 274 1366.83333333 167.166666667 1262.5 95.5 c 128
 1158.16666667 23.8333333333 992.666666667 -12 766 -12 c 0
580 664 m 1
 580 160 l 1
 595.333333333 158.666666667 613 157.333333333 633 156 c 0
 651 154.666666667 671.833333333 154 695.5 154 c 128
 731 154 731 154 778 154 c 0
 836.666666667 154 892.333333333 157.666666667 945 165 c 128
 997.666666667 172.333333333 1043.83333333 185.5 1083.5 204.5 c 128
 1123.16666667 223.5 1154.83333333 250.166666667 1178.5 284.5 c 128
 1202.16666667 318.833333333 1214 362 1214 414 c 0
 1214 460.666666667 1205.16666667 500 1187.5 532 c 128
 1169.83333333 564 1144.33333333 589.833333333 1111 609.5 c 128
 1077.66666667 629.166666667 1037.83333333 643.166666667 991.5 651.5 c 128
 945.166666667 659.833333333 893.333333333 664 836 664 c 2
 580 664 l 1
580 819 m 1
 780 819 l 2
 836 819 886.833333333 822.833333333 932.5 830.5 c 128
 978.166666667 838.166666667 1017.5 850.5 1050.5 867.5 c 128
 1083.5 884.5 1108.83333333 907.666666667 1126.5 937 c 128
 1144.16666667 966.333333333 1153 1003 1153 1047 c 0
 1153 1087.66666667 1143.16666667 1122 1123.5 1150 c 128
 1103.83333333 1178 1076.83333333 1200.5 1042.5 1217.5 c 128
 1008.16666667 1234.5 968.166666667 1247.16666667 922.5 1255.5 c 128
 876.833333333 1263.83333333 828.666666667 1268 778 1268 c 0
 746.666666667 1268 719 1267.66666667 695 1267 c 128
 671 1266.33333333 650.333333333 1266 633 1266 c 2
 580 1266 l 1
 580 819 l 1
EndSplineSet
Validated: 524289
EndChar

StartChar: uni0182
Encoding: 387 386 324
Width: 1267
GlyphClass: 1
Flags: W
LayerCount: 2
Fore
SplineSet
375 1249 m 1
 375 889 l 1
 551 889 l 2
 651 889 740.166666667 880.833333333 818.5 864.5 c 128
 896.833333333 848.166666667 963.333333333 821.833333333 1018 785.5 c 128
 1072.66666667 749.166666667 1114.33333333 702.666666667 1143 646 c 128
 1171.66666667 589.333333333 1186 520 1186 438 c 0
 1186 288 1131.33333333 175.166666667 1022 99.5 c 128
 912.666666667 23.8333333333 758.333333333 -14 559 -14 c 0
 530.333333333 -14 499.333333333 -13.3333333333 466 -12 c 128
 432.666666667 -10.6666666667 399.166666667 -8.66666666667 365.5 -6 c 128
 331.833333333 -3.33333333333 298.666666667 0 266 4 c 128
 233.333333333 8 203.333333333 13.3333333333 176 20 c 1
 176 1419 l 1
 1053 1419 l 1
 1053 1249 l 1
 375 1249 l 1
575 160 m 0
 628.333333333 160 679.333333333 164 728 172 c 128
 776.666666667 180 819.333333333 194.666666667 856 216 c 128
 892.666666667 237.333333333 922 265.666666667 944 301 c 128
 966 336.333333333 977 381.333333333 977 436 c 0
 977 493.333333333 967.166666667 540.5 947.5 577.5 c 128
 927.833333333 614.5 899.5 643.833333333 862.5 665.5 c 128
 825.5 687.166666667 780 702.5 726 711.5 c 128
 672 720.5 611 725 543 725 c 2
 375 725 l 1
 375 166 l 1
 390.333333333 164.666666667 408 163.333333333 428 162 c 0
 446 160.666666667 467.166666667 160 491.5 160 c 128
 528 160 528 160 575 160 c 0
EndSplineSet
Validated: 524289
EndChar

StartChar: uni0183
Encoding: 388 387 325
Width: 1206
GlyphClass: 1
Flags: W
LayerCount: 2
Fore
SplineSet
354 1419 m 1
 354 1010 l 1
 377.333333333 1025.33333333 412.5 1041 459.5 1057 c 128
 506.5 1073 561 1081 623 1081 c 0
 699.666666667 1081 767.5 1067.66666667 826.5 1041 c 128
 885.5 1014.33333333 935.5 976.833333333 976.5 928.5 c 128
 1017.5 880.166666667 1048.66666667 822.166666667 1070 754.5 c 128
 1091.33333333 686.833333333 1102 612 1102 530 c 0
 1102 444 1089.33333333 367 1064 299 c 128
 1038.66666667 231 1002.83333333 172.666666667 956.5 124 c 128
 910.166666667 75.3333333333 854.166666667 38.3333333333 788.5 13 c 128
 722.833333333 -12.3333333333 649 -25 567 -25 c 0
 478.333333333 -25 399.833333333 -18.8333333333 331.5 -6.5 c 128
 263.166666667 5.83333333333 207.333333333 18.3333333333 164 31 c 1
 164 1579 l 1
 985 1579 l 1
 985 1419 l 1
 354 1419 l 1
354 166 m 1
 373.333333333 160.666666667 400.333333333 155.5 435 150.5 c 128
 469.666666667 145.5 513 143 565 143 c 0
 667.666666667 143 749.666666667 176.5 811 243.5 c 128
 872.333333333 310.5 903 406 903 530 c 0
 903 584.666666667 897.5 635.666666667 886.5 683 c 128
 875.5 730.333333333 857.833333333 771 833.5 805 c 128
 809.166666667 839 777.5 865.5 738.5 884.5 c 128
 699.5 903.5 652.666666667 913 598 913 c 0
 546 913 498.166666667 904.166666667 454.5 886.5 c 128
 410.833333333 868.833333333 377.333333333 850.333333333 354 831 c 1
 354 166 l 1
EndSplineSet
Validated: 524289
EndChar

StartChar: uni0184
Encoding: 389 388 326
Width: 1206
GlyphClass: 1
Flags: W
LayerCount: 2
Fore
SplineSet
354 1018 m 1
 377.333333333 1033.33333333 412.5 1049.16666667 459.5 1065.5 c 128
 506.5 1081.83333333 561 1090 623 1090 c 0
 699.666666667 1090 767.5 1076.33333333 826.5 1049 c 128
 885.5 1021.66666667 935.5 983.333333333 976.5 934 c 128
 1017.5 884.666666667 1048.66666667 825.833333333 1070 757.5 c 128
 1091.33333333 689.166666667 1102 614 1102 532 c 0
 1102 446 1089.33333333 368.666666667 1064 300 c 128
 1038.66666667 231.333333333 1002.83333333 173 956.5 125 c 128
 910.166666667 77 854.166666667 40 788.5 14 c 128
 722.833333333 -12 649 -25 567 -25 c 0
 478.333333333 -25 399.833333333 -18.8333333333 331.5 -6.5 c 128
 263.166666667 5.83333333333 207.333333333 18.3333333333 164 31 c 1
 164 1294 l 1
 20 1450 l 1
 69.3333333333 1478.66666667 122.333333333 1505.33333333 179 1530 c 128
 235.666666667 1554.66666667 294 1574.33333333 354 1589 c 1
 354 1018 l 1
354 166 m 1
 373.333333333 160.666666667 400.333333333 155.5 435 150.5 c 128
 469.666666667 145.5 513 143 565 143 c 0
 667.666666667 143 749.666666667 176.833333333 811 244.5 c 128
 872.333333333 312.166666667 903 408 903 532 c 0
 903 586.666666667 897.5 638 886.5 686 c 128
 875.5 734 857.833333333 775.333333333 833.5 810 c 128
 809.166666667 844.666666667 777.5 872 738.5 892 c 128
 699.5 912 652.666666667 922 598 922 c 0
 546 922 498.166666667 913 454.5 895 c 128
 410.833333333 877 377.333333333 858.666666667 354 840 c 1
 354 166 l 1
EndSplineSet
Validated: 524289
EndChar

StartChar: uni0185
Encoding: 390 389 327
Width: 1269
GlyphClass: 1
Flags: W
LayerCount: 2
Fore
SplineSet
985 444 m 256
 985 501.333333333 974.166666667 549.166666667 952.5 587.5 c 128
 930.833333333 625.833333333 900.5 656 861.5 678 c 128
 822.5 700 776 715.333333333 722 724 c 128
 668 732.666666667 608.333333333 737 543 737 c 0
 504 737 504 737 464 737 c 128
 437.333333333 737 410.333333333 735.666666667 383 733 c 1
 383 166 l 1
 398.333333333 164.666666667 415.333333333 163.333333333 434 162 c 0
 450.666666667 160.666666667 470.833333333 160 494.5 160 c 128
 530 160 530 160 578 160 c 0
 631.333333333 160 682.5 164 731.5 172 c 128
 780.5 180 823.833333333 195 861.5 217 c 128
 899.166666667 239 929.166666667 268 951.5 304 c 128
 973.833333333 340 985 386.666666667 985 444 c 256
383 903 m 1
 410.333333333 905.666666667 438 907.333333333 466 908 c 128
 494 908.666666667 521.666666667 909 549 909 c 0
 979 909 1194 754 1194 444 c 0
 1194 291.333333333 1138.33333333 176.833333333 1027 100.5 c 128
 915.666666667 24.1666666667 760.333333333 -14 561 -14 c 0
 503.666666667 -14 440.5 -11.6666666667 371.5 -7 c 128
 302.5 -2.33333333333 240 6.66666666667 184 20 c 1
 184 1137 l 1
 41 1292 l 1
 90.3333333333 1320.66666667 144 1347.33333333 202 1372 c 128
 260 1396.66666667 320.333333333 1417.33333333 383 1434 c 1
 383 903 l 1
EndSplineSet
Validated: 524289
EndChar

StartChar: uni0186
Encoding: 391 390 328
Width: 1269
GlyphClass: 1
Flags: W
LayerCount: 2
Fore
SplineSet
1151 711 m 0
 1151 595 1135 490.833333333 1103 398.5 c 128
 1071 306.166666667 1025.66666667 228.333333333 967 165 c 128
 908.333333333 101.666666667 838.333333333 53.1666666667 757 19.5 c 128
 675.666666667 -14.1666666667 585 -31 485 -31 c 0
 427.666666667 -31 374.5 -27.5 325.5 -20.5 c 128
 276.5 -13.5 233.166666667 -5.33333333333 195.5 4 c 128
 157.833333333 13.3333333333 126.833333333 23.1666666667 102.5 33.5 c 128
 78.1666666667 43.8333333333 61 52.3333333333 51 59 c 1
 102 223 l 1
 132 207.666666667 176.833333333 190.5 236.5 171.5 c 128
 296.166666667 152.5 371 143 461 143 c 0
 540.333333333 143 609.666666667 156.666666667 669 184 c 128
 728.333333333 211.333333333 778.166666667 250 818.5 300 c 128
 858.833333333 350 889.166666667 409.833333333 909.5 479.5 c 128
 929.833333333 549.166666667 940 626.333333333 940 711 c 256
 940 795.666666667 930.166666667 872.833333333 910.5 942.5 c 128
 890.833333333 1012.16666667 861.166666667 1071.83333333 821.5 1121.5 c 128
 781.833333333 1171.16666667 732 1209.66666667 672 1237 c 128
 612 1264.33333333 541.666666667 1278 461 1278 c 0
 371 1278 297 1268.83333333 239 1250.5 c 128
 181 1232.16666667 136.666666667 1215.33333333 106 1200 c 1
 55 1358 l 1
 64.3333333333 1364.66666667 81 1373.5 105 1384.5 c 128
 129 1395.5 159.5 1406.16666667 196.5 1416.5 c 128
 233.5 1426.83333333 276.166666667 1435.33333333 324.5 1442 c 128
 372.833333333 1448.66666667 425.666666667 1452 483 1452 c 0
 583 1452 674 1435.33333333 756 1402 c 128
 838 1368.66666667 908.333333333 1320.16666667 967 1256.5 c 128
 1025.66666667 1192.83333333 1071 1115.33333333 1103 1024 c 128
 1135 932.666666667 1151 828.333333333 1151 711 c 0
EndSplineSet
Validated: 524289
EndChar

StartChar: uni0187
Encoding: 392 391 329
Width: 1357
GlyphClass: 1
Flags: W
LayerCount: 2
Fore
SplineSet
786 -31 m 0
 686 -31 595.166666667 -14.5 513.5 18.5 c 128
 431.833333333 51.5 361.666666667 99.3333333333 303 162 c 128
 244.333333333 224.666666667 199 302 167 394 c 128
 135 486 119 591.666666667 119 711 c 0
 119 829.666666667 137 935 173 1027 c 128
 209 1119 257.833333333 1196.5 319.5 1259.5 c 128
 381.166666667 1322.5 452.833333333 1370.33333333 534.5 1403 c 128
 616.166666667 1435.66666667 703.666666667 1452 797 1452 c 1
 853 1449.33333333 900 1444.16666667 938 1436.5 c 128
 976 1428.83333333 1011.33333333 1419.66666667 1044 1409 c 1
 1066 1479.66666667 1098.5 1530.83333333 1141.5 1562.5 c 128
 1184.5 1594.16666667 1249 1610 1335 1610 c 0
 1354.33333333 1610 1377 1607.5 1403 1602.5 c 128
 1429 1597.5 1449.33333333 1591.66666667 1464 1585 c 1
 1432 1440 l 1
 1421.33333333 1444 1406.66666667 1447.33333333 1388 1450 c 128
 1369.33333333 1452.66666667 1354.33333333 1454 1343 1454 c 0
 1305 1454 1275.16666667 1446.5 1253.5 1431.5 c 128
 1231.83333333 1416.5 1214.83333333 1396.66666667 1202.5 1372 c 128
 1190.16666667 1347.33333333 1180.83333333 1319.66666667 1174.5 1289 c 128
 1168.16666667 1258.33333333 1161 1228 1153 1198 c 1
 1141 1203.33333333 1123.33333333 1210.5 1100 1219.5 c 128
 1076.66666667 1228.5 1050 1237.5 1020 1246.5 c 128
 990 1255.5 957.5 1263 922.5 1269 c 128
 887.5 1275 852.333333333 1278 817 1278 c 0
 741.666666667 1278 674 1265 614 1239 c 128
 554 1213 502.833333333 1175.5 460.5 1126.5 c 128
 418.166666667 1077.5 385.833333333 1017.83333333 363.5 947.5 c 128
 341.166666667 877.166666667 330 798.333333333 330 711 c 0
 330 626.333333333 339.833333333 549.166666667 359.5 479.5 c 128
 379.166666667 409.833333333 408.833333333 350 448.5 300 c 128
 488.166666667 250 537.666666667 211.333333333 597 184 c 128
 656.333333333 156.666666667 725.666666667 143 805 143 c 0
 896.333333333 143 972 152.666666667 1032 172 c 128
 1092 191.333333333 1137 208.333333333 1167 223 c 1
 1219 59 l 1
 1209.66666667 52.3333333333 1192.5 43.8333333333 1167.5 33.5 c 128
 1142.5 23.1666666667 1111.66666667 13.3333333333 1075 4 c 128
 1038.33333333 -5.33333333333 995.333333333 -13.5 946 -20.5 c 128
 896.666666667 -27.5 843.333333333 -31 786 -31 c 0
EndSplineSet
Validated: 524289
EndChar

StartChar: uni0188
Encoding: 393 392 330
Width: 1040
GlyphClass: 1
Flags: W
LayerCount: 2
Fore
SplineSet
856 881 m 1
 848 883.666666667 836.166666667 887.333333333 820.5 892 c 128
 804.833333333 896.666666667 786.666666667 901.333333333 766 906 c 128
 745.333333333 910.666666667 723.5 914.833333333 700.5 918.5 c 128
 677.5 922.166666667 655 924 633 924 c 0
 526.333333333 924 444.666666667 890.5 388 823.5 c 128
 331.333333333 756.5 303 658.666666667 303 530 c 0
 303 472.666666667 309.5 420.166666667 322.5 372.5 c 128
 335.5 324.833333333 356 284 384 250 c 128
 412 216 447.833333333 189.666666667 491.5 171 c 128
 535.166666667 152.333333333 588.333333333 143 651 143 c 0
 701.666666667 143 747.5 147.833333333 788.5 157.5 c 128
 829.5 167.166666667 861.666666667 177.333333333 885 188 c 1
 911 29 l 1
 900.333333333 22.3333333333 884.833333333 15.8333333333 864.5 9.5 c 128
 844.166666667 3.16666666667 821 -2.33333333333 795 -7 c 128
 769 -11.6666666667 741.333333333 -15.8333333333 712 -19.5 c 128
 682.666666667 -23.1666666667 654.333333333 -25 627 -25 c 0
 541 -25 465.5 -11.3333333333 400.5 16 c 128
 335.5 43.3333333333 280.833333333 81.6666666667 236.5 131 c 128
 192.166666667 180.333333333 159 238.833333333 137 306.5 c 128
 115 374.166666667 104 448.666666667 104 530 c 0
 104 612 116 687.166666667 140 755.5 c 128
 164 823.833333333 197.833333333 883 241.5 933 c 128
 285.166666667 983 338.833333333 1022 402.5 1050 c 128
 466.166666667 1078 536.666666667 1092 614 1092 c 0
 654.666666667 1092 695.666666667 1087.66666667 737 1079 c 1
 761.666666667 1155.66666667 795.166666667 1209.66666667 837.5 1241 c 128
 879.833333333 1272.33333333 941.333333333 1288 1022 1288 c 0
 1041.33333333 1288 1063.16666667 1285.66666667 1087.5 1281 c 128
 1111.83333333 1276.33333333 1131.66666667 1270.66666667 1147 1264 c 1
 1114 1126 l 1
 1103.33333333 1130 1089.5 1133.5 1072.5 1136.5 c 128
 1055.5 1139.5 1041.33333333 1141 1030 1141 c 0
 994.666666667 1141 966.666666667 1133.5 946 1118.5 c 128
 925.333333333 1103.5 909.333333333 1083.66666667 898 1059 c 128
 886.666666667 1034.33333333 878.166666667 1006.66666667 872.5 976 c 128
 866.833333333 945.333333333 861.333333333 913.666666667 856 881 c 1
EndSplineSet
Validated: 524289
EndChar

StartChar: uni018A
Encoding: 395 394 332
Width: 1667
GlyphClass: 1
Flags: W
LayerCount: 2
Fore
SplineSet
1548 711 m 256
 1548 588.333333333 1529 481.5 1491 390.5 c 128
 1453 299.5 1399.16666667 224.333333333 1329.5 165 c 128
 1259.83333333 105.666666667 1176.5 61.3333333333 1079.5 32 c 128
 982.5 2.66666666667 876 -12 760 -12 c 0
 702.666666667 -12 639.5 -9.66666666667 570.5 -5 c 128
 501.5 -0.333333333333 439 9 383 23 c 1
 383 1247 l 1
 257.666666667 1240.33333333 195 1188 195 1090 c 0
 195 1079.33333333 195.333333333 1068 196 1056 c 128
 196.666666667 1044 197.666666667 1034 199 1026 c 1
 41 1008 l 1
 38.3333333333 1017.33333333 35.6666666667 1031.5 33 1050.5 c 128
 30.3333333333 1069.5 29 1088.66666667 29 1108 c 0
 29 1188.66666667 49.1666666667 1250.83333333 89.5 1294.5 c 128
 129.833333333 1338.16666667 183.333333333 1370.16666667 250 1390.5 c 128
 316.666666667 1410.83333333 394 1423.16666667 482 1427.5 c 128
 570 1431.83333333 662.666666667 1434 760 1434 c 0
 876 1434 982.5 1419.33333333 1079.5 1390 c 128
 1176.5 1360.66666667 1259.83333333 1316.16666667 1329.5 1256.5 c 128
 1399.16666667 1196.83333333 1453 1121.66666667 1491 1031 c 128
 1529 940.333333333 1548 833.666666667 1548 711 c 256
776 162 m 0
 964.666666667 162 1105.33333333 210.166666667 1198 306.5 c 128
 1290.66666667 402.833333333 1337 537.666666667 1337 711 c 256
 1337 884.333333333 1290.66666667 1019.16666667 1198 1115.5 c 128
 1105.33333333 1211.83333333 964.666666667 1260 776 1260 c 0
 714.666666667 1260 667.333333333 1259.5 634 1258.5 c 128
 600.666666667 1257.5 583.333333333 1257 582 1257 c 1
 582 168 l 1
 597.333333333 166.666666667 614.333333333 165.333333333 633 164 c 0
 649.666666667 162.666666667 669.833333333 162 693.5 162 c 128
 729 162 729 162 776 162 c 0
EndSplineSet
Validated: 524289
EndChar

StartChar: uni018B
Encoding: 396 395 333
Width: 1280
GlyphClass: 1
Flags: W
LayerCount: 2
Fore
SplineSet
227 1253 m 1
 227 1419 l 1
 1104 1419 l 1
 1104 20 l 1
 1076.66666667 13.3333333333 1046.66666667 8 1014 4 c 128
 981.333333333 0 947.833333333 -3.33333333333 913.5 -6 c 128
 879.166666667 -8.66666666667 845.666666667 -10.6666666667 813 -12 c 128
 780.333333333 -13.3333333333 749.666666667 -14 721 -14 c 0
 521.666666667 -14 367.333333333 23.8333333333 258 99.5 c 128
 148.666666667 175.166666667 94 288 94 438 c 0
 94 520 108.333333333 589.333333333 137 646 c 128
 165.666666667 702.666666667 207.333333333 749.166666667 262 785.5 c 128
 316.666666667 821.833333333 383.333333333 848.166666667 462 864.5 c 128
 540.666666667 880.833333333 629.666666667 889 729 889 c 2
 905 889 l 1
 905 1253 l 1
 227 1253 l 1
705 160 m 0
 752 160 752 160 788.5 160 c 128
 812.833333333 160 834 160.666666667 852 162 c 0
 872.666666667 163.333333333 890.333333333 164.666666667 905 166 c 1
 905 725 l 1
 737 725 l 2
 669 725 608 720.5 554 711.5 c 128
 500 702.5 454.5 687.166666667 417.5 665.5 c 128
 380.5 643.833333333 352.166666667 614.5 332.5 577.5 c 128
 312.833333333 540.5 303 493.333333333 303 436 c 0
 303 381.333333333 314 336.333333333 336 301 c 128
 358 265.666666667 387.333333333 237.333333333 424 216 c 128
 460.666666667 194.666666667 503.333333333 180 552 172 c 128
 600.666666667 164 651.666666667 160 705 160 c 0
EndSplineSet
Validated: 524289
EndChar

StartChar: uni018C
Encoding: 397 396 334
Width: 1206
GlyphClass: 1
Flags: W
LayerCount: 2
Fore
SplineSet
852 831 m 1
 828.666666667 850.333333333 795.166666667 868.833333333 751.5 886.5 c 128
 707.833333333 904.166666667 660 913 608 913 c 0
 553.333333333 913 506.666666667 903.5 468 884.5 c 128
 429.333333333 865.5 397.666666667 839 373 805 c 128
 348.333333333 771 330.5 730.333333333 319.5 683 c 128
 308.5 635.666666667 303 584.666666667 303 530 c 0
 303 406 333.666666667 310.5 395 243.5 c 128
 456.333333333 176.5 538.333333333 143 641 143 c 0
 693 143 736.333333333 145.5 771 150.5 c 128
 805.666666667 155.5 832.666666667 160.666666667 852 166 c 1
 852 831 l 1
221 1419 m 1
 221 1579 l 1
 1042 1579 l 1
 1042 31 l 1
 998 19 942 6.66666666667 874 -6 c 128
 806 -18.6666666667 727.666666667 -25 639 -25 c 0
 557 -25 483.166666667 -12.3333333333 417.5 13 c 128
 351.833333333 38.3333333333 295.833333333 75.3333333333 249.5 124 c 128
 203.166666667 172.666666667 167.333333333 231 142 299 c 128
 116.666666667 367 104 444 104 530 c 0
 104 612 114.666666667 686.833333333 136 754.5 c 128
 157.333333333 822.166666667 188.5 880.166666667 229.5 928.5 c 128
 270.5 976.833333333 320.666666667 1014.33333333 380 1041 c 128
 439.333333333 1067.66666667 507.333333333 1081 584 1081 c 0
 645.333333333 1081 699.5 1072.83333333 746.5 1056.5 c 128
 793.5 1040.16666667 828.666666667 1024.66666667 852 1010 c 1
 852 1419 l 1
 221 1419 l 1
EndSplineSet
Validated: 524289
EndChar

StartChar: uni018D
Encoding: 398 397 335
Width: 1191
GlyphClass: 1
Flags: W
LayerCount: 2
Fore
SplineSet
1087 594 m 0
 1087 546 1078.83333333 498.5 1062.5 451.5 c 128
 1046.16666667 404.5 1023.33333333 359.5 994 316.5 c 128
 964.666666667 273.5 929.5 234.166666667 888.5 198.5 c 128
 847.5 162.833333333 802.666666667 134.333333333 754 113 c 1
 799.333333333 85.6666666667 836.833333333 54.8333333333 866.5 20.5 c 128
 896.166666667 -13.8333333333 911 -57 911 -109 c 0
 911 -158.333333333 900.5 -200 879.5 -234 c 128
 858.5 -268 829.833333333 -295.833333333 793.5 -317.5 c 128
 757.166666667 -339.166666667 715.833333333 -354.833333333 669.5 -364.5 c 128
 623.166666667 -374.166666667 575.333333333 -379 526 -379 c 0
 492 -379 458 -377.333333333 424 -374 c 128
 390 -370.666666667 358 -366.166666667 328 -360.5 c 128
 298 -354.833333333 271.666666667 -349 249 -343 c 128
 226.333333333 -337 209.666666667 -332 199 -328 c 1
 233 -172 l 1
 253.666666667 -181.333333333 289.333333333 -192.833333333 340 -206.5 c 128
 390.666666667 -220.166666667 451.333333333 -227 522 -227 c 0
 587.333333333 -227 637.833333333 -219.833333333 673.5 -205.5 c 128
 709.166666667 -191.166666667 727 -164.333333333 727 -125 c 0
 727 -96.3333333333 718.5 -72.5 701.5 -53.5 c 128
 684.5 -34.5 661.666666667 -16.6666666667 633 0 c 128
 604.333333333 16.6666666667 571.166666667 33.5 533.5 50.5 c 128
 495.833333333 67.5 456.666666667 87.6666666667 416 111 c 0
 322 163 246.5 225.833333333 189.5 299.5 c 128
 132.5 373.166666667 104 467.333333333 104 582 c 0
 104 639.333333333 112 698.333333333 128 759 c 128
 144 819.666666667 171 874.5 209 923.5 c 128
 247 972.5 298.5 1012.83333333 363.5 1044.5 c 128
 428.5 1076.16666667 510 1092 608 1092 c 0
 688.666666667 1092 759 1077.66666667 819 1049 c 128
 879 1020.33333333 928.833333333 982.666666667 968.5 936 c 128
 1008.16666667 889.333333333 1037.83333333 836.333333333 1057.5 777 c 128
 1077.16666667 717.666666667 1087 656.666666667 1087 594 c 0
463 281 m 0
 483.666666667 265.666666667 505.5 251.166666667 528.5 237.5 c 128
 551.5 223.833333333 574.666666667 211 598 199 c 1
 642 217 682.333333333 239.833333333 719 267.5 c 128
 755.666666667 295.166666667 787.333333333 326.5 814 361.5 c 128
 840.666666667 396.5 861.166666667 433.666666667 875.5 473 c 128
 889.833333333 512.333333333 897 552.666666667 897 594 c 0
 897 639.333333333 890.833333333 682 878.5 722 c 128
 866.166666667 762 848 797.333333333 824 828 c 128
 800 858.666666667 770 883 734 901 c 128
 698 919 656 928 608 928 c 0
 545.333333333 928 493.833333333 917.333333333 453.5 896 c 128
 413.166666667 874.666666667 381.833333333 847.333333333 359.5 814 c 128
 337.166666667 780.666666667 321.5 743.833333333 312.5 703.5 c 128
 303.5 663.166666667 299 624.666666667 299 588 c 0
 299 548.666666667 303.166666667 513.833333333 311.5 483.5 c 128
 319.833333333 453.166666667 331.166666667 425.833333333 345.5 401.5 c 128
 359.833333333 377.166666667 376.833333333 355.5 396.5 336.5 c 128
 416.166666667 317.5 438.333333333 299 463 281 c 0
EndSplineSet
Validated: 524289
EndChar

StartChar: uni018E
Encoding: 399 398 336
Width: 1169
GlyphClass: 1
Flags: W
LayerCount: 2
Fore
SplineSet
76 0 m 1
 76 170 l 1
 795 170 l 1
 795 662 l 1
 201 662 l 1
 201 827 l 1
 795 827 l 1
 795 1249 l 1
 127 1249 l 1
 127 1419 l 1
 993 1419 l 1
 993 0 l 1
 76 0 l 1
EndSplineSet
Validated: 1
EndChar

StartChar: uni018F
Encoding: 400 399 337
Width: 1443
GlyphClass: 1
Flags: W
LayerCount: 2
Fore
SplineSet
1118 758 m 1
 1106 934 1059.33333333 1064.66666667 978 1150 c 128
 896.666666667 1235.33333333 772.666666667 1278 606 1278 c 0
 562 1278 522 1275 486 1269 c 128
 450 1263 417.666666667 1255.5 389 1246.5 c 128
 360.333333333 1237.5 335.5 1228.16666667 314.5 1218.5 c 128
 293.5 1208.83333333 276 1200.66666667 262 1194 c 1
 213 1358 l 1
 223.666666667 1366 241.333333333 1375.16666667 266 1385.5 c 128
 290.666666667 1395.83333333 320.833333333 1406.16666667 356.5 1416.5 c 128
 392.166666667 1426.83333333 433.166666667 1435.33333333 479.5 1442 c 128
 525.833333333 1448.66666667 575.666666667 1452 629 1452 c 0
 747.666666667 1452 850.666666667 1433.5 938 1396.5 c 128
 1025.33333333 1359.5 1097.66666667 1308.33333333 1155 1243 c 128
 1212.33333333 1177.66666667 1255 1099.83333333 1283 1009.5 c 128
 1311 919.166666667 1325 821.666666667 1325 717 c 0
 1325 591.666666667 1308.66666667 482.5 1276 389.5 c 128
 1243.33333333 296.5 1198.33333333 218.5 1141 155.5 c 128
 1083.66666667 92.5 1016.33333333 45.6666666667 939 15 c 128
 861.666666667 -15.6666666667 778 -31 688 -31 c 0
 509.333333333 -31 369.166666667 28.5 267.5 147.5 c 128
 165.833333333 266.5 115 444 115 680 c 0
 115 690.666666667 115.666666667 704.166666667 117 720.5 c 128
 118.333333333 736.833333333 119.666666667 749.333333333 121 758 c 1
 1118 758 l 1
324 596 m 1
 324 529.333333333 332.166666667 468 348.5 412 c 128
 364.833333333 356 388.333333333 307.833333333 419 267.5 c 128
 449.666666667 227.166666667 487.833333333 195.666666667 533.5 173 c 128
 579.166666667 150.333333333 632 139 692 139 c 0
 761.333333333 139 821.666666667 152.666666667 873 180 c 128
 924.333333333 207.333333333 967.166666667 242.5 1001.5 285.5 c 128
 1035.83333333 328.5 1061.83333333 377.333333333 1079.5 432 c 128
 1097.16666667 486.666666667 1108 541.333333333 1112 596 c 1
 324 596 l 1
EndSplineSet
Validated: 524289
EndChar

StartChar: uni0190
Encoding: 401 400 338
Width: 1171
GlyphClass: 1
Flags: W
LayerCount: 2
Fore
SplineSet
874 668 m 1
 748 668 l 2
 686.666666667 668 629.666666667 664.166666667 577 656.5 c 128
 524.333333333 648.833333333 478.5 634.833333333 439.5 614.5 c 128
 400.5 594.166666667 369.666666667 566.5 347 531.5 c 128
 324.333333333 496.5 313 451.666666667 313 397 c 0
 313 304.333333333 345.5 238.5 410.5 199.5 c 128
 475.5 160.5 566 141 682 141 c 0
 724 141 764.166666667 144.5 802.5 151.5 c 128
 840.833333333 158.5 875.666666667 166.666666667 907 176 c 128
 938.333333333 185.333333333 966.666666667 195.5 992 206.5 c 128
 1017.33333333 217.5 1037.66666667 227.333333333 1053 236 c 1
 1112 72 l 1
 1096.66666667 64 1075.5 53.8333333333 1048.5 41.5 c 128
 1021.5 29.1666666667 989.5 17.8333333333 952.5 7.5 c 128
 915.5 -2.83333333333 873.833333333 -11.8333333333 827.5 -19.5 c 128
 781.166666667 -27.1666666667 732 -31 680 -31 c 0
 594 -31 515.5 -23.1666666667 444.5 -7.5 c 128
 373.5 8.16666666667 313 33.1666666667 263 67.5 c 128
 213 101.833333333 174 146 146 200 c 128
 118 254 104 318.333333333 104 393 c 0
 104 447.666666667 112.666666667 495.5 130 536.5 c 128
 147.333333333 577.5 170 613.333333333 198 644 c 128
 226 674.666666667 258.666666667 700 296 720 c 128
 333.333333333 740 372.666666667 755.333333333 414 766 c 1
 333.333333333 792 272.166666667 833.666666667 230.5 891 c 128
 188.833333333 948.333333333 168 1009.66666667 168 1075 c 0
 168 1139 180.333333333 1194.66666667 205 1242 c 128
 229.666666667 1289.33333333 263.833333333 1328.33333333 307.5 1359 c 128
 351.166666667 1389.66666667 403 1412.5 463 1427.5 c 128
 523 1442.5 588.333333333 1450 659 1450 c 0
 701 1450 743 1447.66666667 785 1443 c 128
 827 1438.33333333 865.333333333 1431.83333333 900 1423.5 c 128
 934.666666667 1415.16666667 966 1405.83333333 994 1395.5 c 128
 1022 1385.16666667 1044.33333333 1374.66666667 1061 1364 c 1
 997 1202 l 1
 968.333333333 1220 924 1237.5 864 1254.5 c 128
 804 1271.5 736.666666667 1280 662 1280 c 0
 574.666666667 1280 504.666666667 1260.5 452 1221.5 c 128
 399.333333333 1182.5 373 1132.33333333 373 1071 c 0
 373 1023 385.166666667 983.333333333 409.5 952 c 128
 433.833333333 920.666666667 465.166666667 895.833333333 503.5 877.5 c 128
 541.833333333 859.166666667 584.166666667 846.5 630.5 839.5 c 128
 676.833333333 832.5 722.666666667 829 768 829 c 2
 874 829 l 1
 874 668 l 1
EndSplineSet
Validated: 524289
EndChar

StartChar: uni0191
Encoding: 402 401 339
Width: 1099
GlyphClass: 1
Flags: W
LayerCount: 2
Fore
SplineSet
176 1419 m 1
 1032 1419 l 1
 1032 1253 l 1
 375 1253 l 1
 375 819 l 1
 958 819 l 1
 958 657 l 1
 375 657 l 1
 375 0 l 2
 375 -62.6666666667 370.5 -118 361.5 -166 c 128
 352.5 -214 336.833333333 -254 314.5 -286 c 128
 292.166666667 -318 261.166666667 -342.166666667 221.5 -358.5 c 128
 181.833333333 -374.833333333 131.333333333 -383 70 -383 c 0
 50.6666666667 -383 28.3333333333 -381.333333333 3 -378 c 128
 -22.3333333333 -374.666666667 -42.3333333333 -371 -57 -367 c 1
 -39 -217 l 1
 -28.3333333333 -221 -13.6666666667 -223.666666667 5 -225 c 128
 23.6666666667 -226.333333333 38.3333333333 -227 49 -227 c 0
 99.6666666667 -227 133.5 -210.333333333 150.5 -177 c 128
 167.5 -143.666666667 176 -96.3333333333 176 -35 c 2
 176 1419 l 1
EndSplineSet
Validated: 524289
EndChar

StartChar: florin
Encoding: 403 402 340
Width: 790
GlyphClass: 1
Flags: W
LayerCount: 2
Fore
SplineSet
584 1589 m 0
 637.333333333 1589 684 1585 724 1577 c 128
 764 1569 792.333333333 1561.33333333 809 1554 c 1
 774 1391 l 1
 758.666666667 1399 735.666666667 1406.66666667 705 1414 c 128
 674.333333333 1421.33333333 639.333333333 1425 600 1425 c 0
 507.333333333 1425 443.166666667 1401.16666667 407.5 1353.5 c 128
 371.833333333 1305.83333333 354 1240.33333333 354 1157 c 2
 354 1065 l 1
 764 1065 l 1
 764 905 l 1
 354 905 l 1
 354 20 l 2
 354 -116.666666667 323 -218 261 -284 c 128
 199 -350 112.666666667 -383 2 -383 c 0
 -54 -383 -101 -375.333333333 -139 -360 c 1
 -115 -205 l 1
 -99.6666666667 -209 -83.5 -212.333333333 -66.5 -215 c 128
 -49.5 -217.666666667 -32 -219 -14 -219 c 0
 50 -219 95.6666666667 -198.833333333 123 -158.5 c 128
 150.333333333 -118.166666667 164 -59.3333333333 164 18 c 2
 164 1161 l 2
 164 1297.66666667 197.166666667 1403.16666667 263.5 1477.5 c 128
 329.833333333 1551.83333333 436.666666667 1589 584 1589 c 0
EndSplineSet
Validated: 524289
EndChar

